<mxfile host="Electron" agent="Mozilla/5.0 (Windows NT 10.0; Win64; x64) AppleWebKit/537.36 (KHTML, like Gecko) draw.io/26.0.15 Chrome/132.0.6834.196 Electron/34.2.0 Safari/537.36" version="26.0.15">
  <diagram id="mmtBFIi0bb3fqyr1mbz-" name="第 1 页">
    <mxGraphModel dx="1776" dy="1220" grid="0" gridSize="10" guides="1" tooltips="1" connect="1" arrows="1" fold="1" page="0" pageScale="1" pageWidth="1920" pageHeight="1200" math="0" shadow="0">
      <root>
        <mxCell id="0" />
        <mxCell id="1" parent="0" />
        <mxCell id="SCAqfhZdBm1mwaxYcVvj-190" value="" style="rounded=1;whiteSpace=wrap;html=1;absoluteArcSize=1;strokeColor=none;fillColor=#F7F7F7;fontFamily=微软雅黑;" parent="1" vertex="1">
          <mxGeometry x="1330" y="810" width="160" height="170" as="geometry" />
        </mxCell>
        <mxCell id="SCAqfhZdBm1mwaxYcVvj-187" value="" style="rounded=0;whiteSpace=wrap;html=1;dashed=1;labelBackgroundColor=none;fontFamily=微软雅黑;fontSize=16;fontColor=#000000;strokeWidth=1;align=left;strokeColor=none;gradientDirection=east;gradientColor=#ffffff;fillColor=#E9EAF0;" parent="1" vertex="1">
          <mxGeometry x="870" y="197.2" width="510" height="26" as="geometry" />
        </mxCell>
        <mxCell id="SCAqfhZdBm1mwaxYcVvj-139" value="" style="rounded=1;whiteSpace=wrap;html=1;absoluteArcSize=1;strokeColor=none;fillColor=#E6FFCC;fontFamily=微软雅黑;shadow=1;shadowOffsetY=5;" parent="1" vertex="1">
          <mxGeometry x="490" y="590" width="580" height="200" as="geometry" />
        </mxCell>
        <mxCell id="SCAqfhZdBm1mwaxYcVvj-73" value="中间语言代码&lt;br&gt;IL Code" style="rounded=0;whiteSpace=wrap;html=1;fontSize=16;strokeWidth=2;spacingTop=27;fontFamily=微软雅黑;" parent="1" vertex="1">
          <mxGeometry x="520" y="599.99" width="140" height="140" as="geometry" />
        </mxCell>
        <mxCell id="SCAqfhZdBm1mwaxYcVvj-142" value="" style="rounded=1;whiteSpace=wrap;html=1;absoluteArcSize=1;strokeColor=none;fillColor=#ffeaf0;fontFamily=微软雅黑;" parent="1" vertex="1">
          <mxGeometry x="770" y="810" width="550" height="170" as="geometry" />
        </mxCell>
        <mxCell id="SCAqfhZdBm1mwaxYcVvj-141" value="" style="rounded=1;whiteSpace=wrap;html=1;absoluteArcSize=1;strokeColor=none;fillColor=#E3F1FF;fontFamily=微软雅黑;" parent="1" vertex="1">
          <mxGeometry x="1100" y="370" width="390" height="420" as="geometry" />
        </mxCell>
        <mxCell id="SCAqfhZdBm1mwaxYcVvj-140" value="" style="rounded=1;whiteSpace=wrap;html=1;absoluteArcSize=1;strokeColor=none;fillColor=#E3F1FF;fontFamily=微软雅黑;" parent="1" vertex="1">
          <mxGeometry x="490" y="370" width="1000" height="210" as="geometry" />
        </mxCell>
        <mxCell id="SCAqfhZdBm1mwaxYcVvj-138" value="" style="rounded=1;whiteSpace=wrap;html=1;absoluteArcSize=1;strokeColor=none;fillColor=#FFF9DE;fontFamily=微软雅黑;" parent="1" vertex="1">
          <mxGeometry x="230" y="810" width="530" height="170" as="geometry" />
        </mxCell>
        <mxCell id="SCAqfhZdBm1mwaxYcVvj-137" value="" style="rounded=1;whiteSpace=wrap;html=1;absoluteArcSize=1;strokeColor=none;fillColor=#FFF9DE;fontFamily=微软雅黑;" parent="1" vertex="1">
          <mxGeometry x="150" y="370" width="310" height="610" as="geometry" />
        </mxCell>
        <mxCell id="SCAqfhZdBm1mwaxYcVvj-1" value="" style="rounded=1;whiteSpace=wrap;html=1;absoluteArcSize=1;strokeColor=none;fillColor=#F2F2F2;fontFamily=微软雅黑;" parent="1" vertex="1">
          <mxGeometry x="150" y="270" width="310" height="90" as="geometry" />
        </mxCell>
        <mxCell id="SCAqfhZdBm1mwaxYcVvj-2" value="标准输入/输出 stdin/out" style="rounded=1;whiteSpace=wrap;html=1;arcSize=50;fillColor=#FFFFFF;strokeColor=none;fontSize=16;fontFamily=微软雅黑;" parent="1" vertex="1">
          <mxGeometry x="170" y="305" width="270" height="40" as="geometry" />
        </mxCell>
        <mxCell id="SCAqfhZdBm1mwaxYcVvj-19" style="edgeStyle=orthogonalEdgeStyle;rounded=0;orthogonalLoop=1;jettySize=auto;html=1;entryX=0.5;entryY=0;entryDx=0;entryDy=0;fontSize=16;strokeWidth=2;fontFamily=微软雅黑;" parent="1" source="SCAqfhZdBm1mwaxYcVvj-2" target="SCAqfhZdBm1mwaxYcVvj-18" edge="1">
          <mxGeometry relative="1" as="geometry">
            <mxPoint x="305" y="340" as="sourcePoint" />
          </mxGeometry>
        </mxCell>
        <mxCell id="SCAqfhZdBm1mwaxYcVvj-30" style="edgeStyle=orthogonalEdgeStyle;rounded=0;orthogonalLoop=1;jettySize=auto;html=1;exitX=0.5;exitY=1;exitDx=0;exitDy=0;entryX=0.5;entryY=0;entryDx=0;entryDy=0;fontSize=16;strokeWidth=2;fontFamily=微软雅黑;" parent="1" source="SCAqfhZdBm1mwaxYcVvj-18" target="SCAqfhZdBm1mwaxYcVvj-20" edge="1">
          <mxGeometry relative="1" as="geometry" />
        </mxCell>
        <mxCell id="SCAqfhZdBm1mwaxYcVvj-18" value="Scheme代码" style="rounded=0;whiteSpace=wrap;html=1;fontSize=16;fillColor=#FFFFFF;fontFamily=微软雅黑;" parent="1" vertex="1">
          <mxGeometry x="230" y="410" width="150" height="40" as="geometry" />
        </mxCell>
        <mxCell id="SCAqfhZdBm1mwaxYcVvj-23" style="edgeStyle=orthogonalEdgeStyle;rounded=0;orthogonalLoop=1;jettySize=auto;html=1;exitX=0.5;exitY=1;exitDx=0;exitDy=0;entryX=0.5;entryY=0;entryDx=0;entryDy=0;fontSize=16;strokeWidth=2;fontFamily=微软雅黑;" parent="1" source="SCAqfhZdBm1mwaxYcVvj-20" target="SCAqfhZdBm1mwaxYcVvj-22" edge="1">
          <mxGeometry relative="1" as="geometry" />
        </mxCell>
        <mxCell id="SCAqfhZdBm1mwaxYcVvj-20" value="词法分析 Lexer" style="rounded=0;whiteSpace=wrap;html=1;fontSize=16;fillColor=#FFFFFF;fontFamily=微软雅黑;" parent="1" vertex="1">
          <mxGeometry x="230" y="490" width="150" height="40" as="geometry" />
        </mxCell>
        <mxCell id="SCAqfhZdBm1mwaxYcVvj-27" style="edgeStyle=orthogonalEdgeStyle;rounded=0;orthogonalLoop=1;jettySize=auto;html=1;exitX=0.5;exitY=1;exitDx=0;exitDy=0;entryX=0.5;entryY=0;entryDx=0;entryDy=0;fontSize=16;strokeWidth=2;fontFamily=微软雅黑;" parent="1" source="SCAqfhZdBm1mwaxYcVvj-21" target="SCAqfhZdBm1mwaxYcVvj-26" edge="1">
          <mxGeometry relative="1" as="geometry" />
        </mxCell>
        <mxCell id="SCAqfhZdBm1mwaxYcVvj-21" value="语法分析 Parser" style="rounded=0;whiteSpace=wrap;html=1;fontSize=16;fillColor=#FFFFFF;fontFamily=微软雅黑;" parent="1" vertex="1">
          <mxGeometry x="230" y="620" width="150" height="40" as="geometry" />
        </mxCell>
        <mxCell id="SCAqfhZdBm1mwaxYcVvj-24" style="edgeStyle=orthogonalEdgeStyle;rounded=0;orthogonalLoop=1;jettySize=auto;html=1;exitX=0.5;exitY=1;exitDx=0;exitDy=0;entryX=0.5;entryY=0;entryDx=0;entryDy=0;fontSize=16;strokeWidth=2;fontFamily=微软雅黑;" parent="1" source="SCAqfhZdBm1mwaxYcVvj-22" target="SCAqfhZdBm1mwaxYcVvj-21" edge="1">
          <mxGeometry relative="1" as="geometry" />
        </mxCell>
        <mxCell id="SCAqfhZdBm1mwaxYcVvj-22" value="词素列表&lt;br&gt;Tokens" style="rounded=0;whiteSpace=wrap;html=1;fontSize=16;strokeColor=none;fillColor=none;fontFamily=微软雅黑;" parent="1" vertex="1">
          <mxGeometry x="230" y="560" width="150" height="40" as="geometry" />
        </mxCell>
        <mxCell id="SCAqfhZdBm1mwaxYcVvj-29" style="edgeStyle=orthogonalEdgeStyle;rounded=0;orthogonalLoop=1;jettySize=auto;html=1;exitX=0.5;exitY=1;exitDx=0;exitDy=0;entryX=0.5;entryY=0;entryDx=0;entryDy=0;fontSize=16;strokeWidth=2;fontFamily=微软雅黑;" parent="1" source="SCAqfhZdBm1mwaxYcVvj-26" target="SCAqfhZdBm1mwaxYcVvj-28" edge="1">
          <mxGeometry relative="1" as="geometry" />
        </mxCell>
        <mxCell id="SCAqfhZdBm1mwaxYcVvj-26" value="原始抽象语法树&lt;br&gt;Proto-AST" style="rounded=0;whiteSpace=wrap;html=1;fontSize=16;strokeColor=none;fillColor=none;fontFamily=微软雅黑;" parent="1" vertex="1">
          <mxGeometry x="230" y="720" width="150" height="40" as="geometry" />
        </mxCell>
        <mxCell id="SCAqfhZdBm1mwaxYcVvj-32" style="edgeStyle=orthogonalEdgeStyle;rounded=1;orthogonalLoop=1;jettySize=auto;html=1;exitX=1;exitY=0.5;exitDx=0;exitDy=0;entryX=0;entryY=0.75;entryDx=0;entryDy=0;fontSize=16;startArrow=none;strokeWidth=2;fontFamily=微软雅黑;" parent="1" source="SCAqfhZdBm1mwaxYcVvj-35" target="SCAqfhZdBm1mwaxYcVvj-31" edge="1">
          <mxGeometry relative="1" as="geometry" />
        </mxCell>
        <mxCell id="SCAqfhZdBm1mwaxYcVvj-37" style="edgeStyle=orthogonalEdgeStyle;rounded=1;orthogonalLoop=1;jettySize=auto;html=1;exitX=0.5;exitY=1;exitDx=0;exitDy=0;entryX=0;entryY=0.5;entryDx=0;entryDy=0;fontSize=16;strokeWidth=2;fontFamily=微软雅黑;" parent="1" source="SCAqfhZdBm1mwaxYcVvj-28" target="SCAqfhZdBm1mwaxYcVvj-35" edge="1">
          <mxGeometry relative="1" as="geometry" />
        </mxCell>
        <mxCell id="SCAqfhZdBm1mwaxYcVvj-28" value="语义分析 Analyzer" style="rounded=0;whiteSpace=wrap;html=1;fontSize=16;fillColor=#FFFFFF;fontFamily=微软雅黑;" parent="1" vertex="1">
          <mxGeometry x="230" y="790" width="150" height="40" as="geometry" />
        </mxCell>
        <mxCell id="SCAqfhZdBm1mwaxYcVvj-33" style="edgeStyle=orthogonalEdgeStyle;rounded=1;orthogonalLoop=1;jettySize=auto;html=1;exitX=0.5;exitY=1;exitDx=0;exitDy=0;entryX=0.5;entryY=0;entryDx=0;entryDy=0;fontSize=16;dashed=1;strokeWidth=2;fontFamily=微软雅黑;" parent="1" source="SCAqfhZdBm1mwaxYcVvj-31" target="SCAqfhZdBm1mwaxYcVvj-26" edge="1">
          <mxGeometry relative="1" as="geometry">
            <Array as="points">
              <mxPoint x="590" y="950" />
              <mxPoint x="190" y="950" />
              <mxPoint x="190" y="690" />
              <mxPoint x="305" y="690" />
            </Array>
          </mxGeometry>
        </mxCell>
        <mxCell id="SCAqfhZdBm1mwaxYcVvj-34" style="edgeStyle=orthogonalEdgeStyle;rounded=1;orthogonalLoop=1;jettySize=auto;html=1;exitX=0.5;exitY=1;exitDx=0;exitDy=0;entryX=0.5;entryY=0;entryDx=0;entryDy=0;dashed=1;fontSize=16;strokeWidth=2;fontFamily=微软雅黑;" parent="1" source="SCAqfhZdBm1mwaxYcVvj-31" target="SCAqfhZdBm1mwaxYcVvj-18" edge="1">
          <mxGeometry relative="1" as="geometry">
            <Array as="points">
              <mxPoint x="590" y="950" />
              <mxPoint x="190" y="950" />
              <mxPoint x="190" y="390" />
              <mxPoint x="305" y="390" />
            </Array>
          </mxGeometry>
        </mxCell>
        <mxCell id="SCAqfhZdBm1mwaxYcVvj-39" style="edgeStyle=orthogonalEdgeStyle;rounded=1;orthogonalLoop=1;jettySize=auto;html=1;exitX=1;exitY=0.5;exitDx=0;exitDy=0;entryX=0;entryY=0.5;entryDx=0;entryDy=0;fontSize=16;strokeWidth=2;fontFamily=微软雅黑;" parent="1" source="SCAqfhZdBm1mwaxYcVvj-31" target="SCAqfhZdBm1mwaxYcVvj-38" edge="1">
          <mxGeometry relative="1" as="geometry" />
        </mxCell>
        <mxCell id="SCAqfhZdBm1mwaxYcVvj-31" value="模块链接器" style="rounded=0;whiteSpace=wrap;html=1;fontSize=16;fillColor=#FFFFFF;strokeWidth=2;fontFamily=微软雅黑;" parent="1" vertex="1">
          <mxGeometry x="520" y="860" width="140" height="60" as="geometry" />
        </mxCell>
        <mxCell id="SCAqfhZdBm1mwaxYcVvj-35" value="抽象语法树&lt;br&gt;AST" style="rounded=0;whiteSpace=wrap;html=1;fontSize=16;strokeColor=none;fillColor=none;fontFamily=微软雅黑;" parent="1" vertex="1">
          <mxGeometry x="340" y="880" width="90" height="50" as="geometry" />
        </mxCell>
        <mxCell id="SCAqfhZdBm1mwaxYcVvj-41" style="edgeStyle=orthogonalEdgeStyle;rounded=1;orthogonalLoop=1;jettySize=auto;html=1;exitX=1;exitY=0.5;exitDx=0;exitDy=0;entryX=0;entryY=0.5;entryDx=0;entryDy=0;fontSize=16;strokeWidth=2;fontFamily=微软雅黑;" parent="1" source="SCAqfhZdBm1mwaxYcVvj-38" target="SCAqfhZdBm1mwaxYcVvj-40" edge="1">
          <mxGeometry relative="1" as="geometry" />
        </mxCell>
        <mxCell id="SCAqfhZdBm1mwaxYcVvj-46" style="edgeStyle=orthogonalEdgeStyle;rounded=1;orthogonalLoop=1;jettySize=auto;html=1;exitX=1;exitY=0.5;exitDx=0;exitDy=0;entryX=0.5;entryY=1;entryDx=0;entryDy=0;fontFamily=微软雅黑;fontSize=40;strokeWidth=1;" parent="1" source="SCAqfhZdBm1mwaxYcVvj-38" target="SCAqfhZdBm1mwaxYcVvj-44" edge="1">
          <mxGeometry relative="1" as="geometry">
            <Array as="points">
              <mxPoint x="860" y="890" />
              <mxPoint x="860" y="950" />
              <mxPoint x="1260" y="950" />
            </Array>
          </mxGeometry>
        </mxCell>
        <mxCell id="SCAqfhZdBm1mwaxYcVvj-38" value="合并后的AST&lt;br style=&quot;font-size: 15px;&quot;&gt;Merged AST" style="rounded=1;whiteSpace=wrap;html=1;fontSize=15;strokeColor=none;absoluteArcSize=1;arcSize=20;fillColor=#FFFFFF;fontFamily=微软雅黑;" parent="1" vertex="1">
          <mxGeometry x="710" y="860" width="110" height="60" as="geometry" />
        </mxCell>
        <mxCell id="SCAqfhZdBm1mwaxYcVvj-43" style="edgeStyle=orthogonalEdgeStyle;rounded=1;orthogonalLoop=1;jettySize=auto;html=1;exitX=1;exitY=0.5;exitDx=0;exitDy=0;entryX=0;entryY=0.5;entryDx=0;entryDy=0;fontSize=16;strokeWidth=2;fontFamily=微软雅黑;" parent="1" source="SCAqfhZdBm1mwaxYcVvj-40" target="SCAqfhZdBm1mwaxYcVvj-42" edge="1">
          <mxGeometry relative="1" as="geometry" />
        </mxCell>
        <mxCell id="SCAqfhZdBm1mwaxYcVvj-40" value="编译器&lt;br&gt;Compiler" style="rounded=0;whiteSpace=wrap;html=1;fontSize=16;fillColor=#FFFFFF;strokeWidth=2;fontFamily=微软雅黑;" parent="1" vertex="1">
          <mxGeometry x="900" y="860" width="140" height="60" as="geometry" />
        </mxCell>
        <mxCell id="SCAqfhZdBm1mwaxYcVvj-45" style="edgeStyle=orthogonalEdgeStyle;rounded=1;orthogonalLoop=1;jettySize=auto;html=1;exitX=1;exitY=0.5;exitDx=0;exitDy=0;entryX=0;entryY=0.5;entryDx=0;entryDy=0;fontFamily=微软雅黑;fontSize=40;strokeWidth=2;" parent="1" source="SCAqfhZdBm1mwaxYcVvj-42" target="SCAqfhZdBm1mwaxYcVvj-44" edge="1">
          <mxGeometry relative="1" as="geometry" />
        </mxCell>
        <mxCell id="SCAqfhZdBm1mwaxYcVvj-42" value="中间语言代码&lt;br&gt;IL Code" style="rounded=1;whiteSpace=wrap;html=1;fontSize=16;strokeColor=none;fontFamily=微软雅黑;" parent="1" vertex="1">
          <mxGeometry x="1090" y="860" width="110" height="60" as="geometry" />
        </mxCell>
        <mxCell id="SCAqfhZdBm1mwaxYcVvj-48" style="edgeStyle=orthogonalEdgeStyle;rounded=1;orthogonalLoop=1;jettySize=auto;html=1;exitX=1;exitY=0.5;exitDx=0;exitDy=0;entryX=0;entryY=0.5;entryDx=0;entryDy=0;fontFamily=微软雅黑;fontSize=40;strokeWidth=2;" parent="1" source="SCAqfhZdBm1mwaxYcVvj-44" target="SCAqfhZdBm1mwaxYcVvj-47" edge="1">
          <mxGeometry relative="1" as="geometry" />
        </mxCell>
        <mxCell id="SCAqfhZdBm1mwaxYcVvj-44" value="+" style="ellipse;whiteSpace=wrap;html=1;aspect=fixed;fontSize=40;fillColor=#FFFFFF;align=center;fontFamily=微软雅黑;strokeWidth=2;" parent="1" vertex="1">
          <mxGeometry x="1240" y="870" width="40" height="40" as="geometry" />
        </mxCell>
        <mxCell id="SCAqfhZdBm1mwaxYcVvj-51" style="edgeStyle=orthogonalEdgeStyle;rounded=1;orthogonalLoop=1;jettySize=auto;html=1;exitX=0.5;exitY=0;exitDx=0;exitDy=0;entryX=0.5;entryY=1;entryDx=0;entryDy=0;fontFamily=微软雅黑;fontSize=40;strokeWidth=2;" parent="1" source="SCAqfhZdBm1mwaxYcVvj-47" target="SCAqfhZdBm1mwaxYcVvj-50" edge="1">
          <mxGeometry relative="1" as="geometry" />
        </mxCell>
        <mxCell id="SCAqfhZdBm1mwaxYcVvj-47" value="模块&lt;br&gt;Module" style="rounded=1;whiteSpace=wrap;html=1;fontSize=16;strokeColor=none;fontStyle=1;fontFamily=微软雅黑;" parent="1" vertex="1">
          <mxGeometry x="1350" y="860" width="80" height="60" as="geometry" />
        </mxCell>
        <mxCell id="SCAqfhZdBm1mwaxYcVvj-54" style="edgeStyle=orthogonalEdgeStyle;rounded=1;orthogonalLoop=1;jettySize=auto;html=1;exitX=0.5;exitY=0;exitDx=0;exitDy=0;entryX=0.5;entryY=1;entryDx=0;entryDy=0;fontFamily=微软雅黑;fontSize=40;endSize=6;strokeWidth=2;" parent="1" source="SCAqfhZdBm1mwaxYcVvj-50" target="SCAqfhZdBm1mwaxYcVvj-53" edge="1">
          <mxGeometry relative="1" as="geometry" />
        </mxCell>
        <mxCell id="SCAqfhZdBm1mwaxYcVvj-50" value="模块解码器&lt;br&gt;Module Decoder" style="rounded=0;whiteSpace=wrap;html=1;fontSize=16;fillColor=#FFFFFF;strokeWidth=2;fontFamily=微软雅黑;" parent="1" vertex="1">
          <mxGeometry x="1320" y="690" width="140" height="60" as="geometry" />
        </mxCell>
        <mxCell id="SCAqfhZdBm1mwaxYcVvj-57" style="edgeStyle=orthogonalEdgeStyle;rounded=1;orthogonalLoop=1;jettySize=auto;html=1;exitX=0;exitY=0.5;exitDx=0;exitDy=0;entryX=1;entryY=0.5;entryDx=0;entryDy=0;fontFamily=微软雅黑;fontSize=40;strokeWidth=2;" parent="1" source="SCAqfhZdBm1mwaxYcVvj-52" target="SCAqfhZdBm1mwaxYcVvj-56" edge="1">
          <mxGeometry relative="1" as="geometry" />
        </mxCell>
        <mxCell id="SCAqfhZdBm1mwaxYcVvj-52" value="线程池&lt;br&gt;Thread Pool" style="rounded=0;whiteSpace=wrap;html=1;fontSize=16;fillColor=#FFFFFF;strokeWidth=2;fontFamily=微软雅黑;" parent="1" vertex="1">
          <mxGeometry x="1320" y="490" width="140" height="60" as="geometry" />
        </mxCell>
        <mxCell id="SCAqfhZdBm1mwaxYcVvj-55" style="edgeStyle=orthogonalEdgeStyle;rounded=1;orthogonalLoop=1;jettySize=auto;html=1;exitX=0.5;exitY=0;exitDx=0;exitDy=0;entryX=0.5;entryY=1;entryDx=0;entryDy=0;fontFamily=微软雅黑;fontSize=40;strokeWidth=2;" parent="1" source="SCAqfhZdBm1mwaxYcVvj-53" target="SCAqfhZdBm1mwaxYcVvj-52" edge="1">
          <mxGeometry relative="1" as="geometry" />
        </mxCell>
        <mxCell id="SCAqfhZdBm1mwaxYcVvj-53" value="线程&lt;br&gt;Thread" style="rounded=0;whiteSpace=wrap;html=1;fontSize=16;strokeColor=none;fontStyle=1;fillColor=none;fontFamily=微软雅黑;" parent="1" vertex="1">
          <mxGeometry x="1320" y="595" width="140" height="50" as="geometry" />
        </mxCell>
        <mxCell id="SCAqfhZdBm1mwaxYcVvj-130" style="edgeStyle=orthogonalEdgeStyle;rounded=1;orthogonalLoop=1;jettySize=auto;html=1;exitX=0;exitY=0.5;exitDx=0;exitDy=0;entryX=1;entryY=0.5;entryDx=0;entryDy=0;fontFamily=微软雅黑;fontSize=16;startArrow=classic;startFill=1;endArrow=classic;endFill=1;strokeColor=#0000FF;strokeWidth=2;" parent="1" source="SCAqfhZdBm1mwaxYcVvj-56" target="SCAqfhZdBm1mwaxYcVvj-69" edge="1">
          <mxGeometry relative="1" as="geometry" />
        </mxCell>
        <mxCell id="SCAqfhZdBm1mwaxYcVvj-133" style="edgeStyle=orthogonalEdgeStyle;rounded=1;orthogonalLoop=1;jettySize=auto;html=1;exitX=0.5;exitY=1;exitDx=0;exitDy=0;entryX=0.5;entryY=0;entryDx=0;entryDy=0;fontFamily=微软雅黑;fontSize=16;startArrow=none;startFill=0;endArrow=classic;endFill=1;strokeWidth=3;strokeColor=#009900;" parent="1" source="SCAqfhZdBm1mwaxYcVvj-56" target="SCAqfhZdBm1mwaxYcVvj-132" edge="1">
          <mxGeometry relative="1" as="geometry" />
        </mxCell>
        <mxCell id="SCAqfhZdBm1mwaxYcVvj-56" value="调度机&lt;br&gt;Scheduler" style="rounded=0;whiteSpace=wrap;html=1;fontSize=16;fillColor=#FFFFFF;strokeWidth=2;fontFamily=微软雅黑;" parent="1" vertex="1">
          <mxGeometry x="1080" y="490" width="140" height="60" as="geometry" />
        </mxCell>
        <mxCell id="SCAqfhZdBm1mwaxYcVvj-59" style="edgeStyle=orthogonalEdgeStyle;rounded=1;orthogonalLoop=1;jettySize=auto;html=1;exitX=0.25;exitY=1;exitDx=0;exitDy=0;entryX=0.25;entryY=0;entryDx=0;entryDy=0;fontFamily=微软雅黑;fontSize=40;" parent="1" source="SCAqfhZdBm1mwaxYcVvj-58" target="SCAqfhZdBm1mwaxYcVvj-56" edge="1">
          <mxGeometry relative="1" as="geometry" />
        </mxCell>
        <mxCell id="SCAqfhZdBm1mwaxYcVvj-58" value="调度时钟&lt;br style=&quot;font-size: 14px;&quot;&gt;Scheduler Clock" style="rounded=0;whiteSpace=wrap;html=1;fontSize=14;fillColor=#FFFFFF;strokeWidth=1;fontFamily=微软雅黑;" parent="1" vertex="1">
          <mxGeometry x="1080" y="390" width="140" height="49.99" as="geometry" />
        </mxCell>
        <mxCell id="SCAqfhZdBm1mwaxYcVvj-60" value="" style="rounded=0;whiteSpace=wrap;html=1;fontSize=16;fillColor=#FFFFFF;fontFamily=微软雅黑;" parent="1" vertex="1">
          <mxGeometry x="1130" y="609.99" width="40" height="20" as="geometry" />
        </mxCell>
        <mxCell id="SCAqfhZdBm1mwaxYcVvj-62" value="" style="rounded=0;whiteSpace=wrap;html=1;fontSize=16;fillColor=#FFFFFF;fontFamily=微软雅黑;" parent="1" vertex="1">
          <mxGeometry x="1130" y="629.99" width="40" height="20" as="geometry" />
        </mxCell>
        <mxCell id="SCAqfhZdBm1mwaxYcVvj-63" value="" style="rounded=0;whiteSpace=wrap;html=1;fontSize=16;fillColor=#FFFFFF;fontFamily=微软雅黑;" parent="1" vertex="1">
          <mxGeometry x="1130" y="649.99" width="40" height="20" as="geometry" />
        </mxCell>
        <mxCell id="SCAqfhZdBm1mwaxYcVvj-64" value="" style="rounded=0;whiteSpace=wrap;html=1;fontSize=16;fillColor=light-dark(#AAFF8A,#121212);fontFamily=微软雅黑;" parent="1" vertex="1">
          <mxGeometry x="1130" y="669.99" width="40" height="20" as="geometry" />
        </mxCell>
        <mxCell id="SCAqfhZdBm1mwaxYcVvj-65" value="" style="rounded=0;whiteSpace=wrap;html=1;fontSize=16;fillColor=#FFFFFF;fontFamily=微软雅黑;" parent="1" vertex="1">
          <mxGeometry x="1130" y="689.99" width="40" height="20" as="geometry" />
        </mxCell>
        <mxCell id="SCAqfhZdBm1mwaxYcVvj-66" value="" style="rounded=0;whiteSpace=wrap;html=1;fontSize=16;fillColor=#FFFFFF;fontFamily=微软雅黑;" parent="1" vertex="1">
          <mxGeometry x="1130" y="709.99" width="40" height="20" as="geometry" />
        </mxCell>
        <mxCell id="SCAqfhZdBm1mwaxYcVvj-69" value="执行机 Executor" style="rounded=0;whiteSpace=wrap;html=1;fontSize=16;fillColor=#FFFFFF;verticalAlign=top;strokeWidth=2;spacingTop=4;fontFamily=微软雅黑;" parent="1" vertex="1">
          <mxGeometry x="520" y="469.99" width="520" height="100" as="geometry" />
        </mxCell>
        <mxCell id="SCAqfhZdBm1mwaxYcVvj-111" style="edgeStyle=orthogonalEdgeStyle;rounded=1;orthogonalLoop=1;jettySize=auto;html=1;exitX=1;exitY=0.5;exitDx=0;exitDy=0;entryX=0;entryY=0.5;entryDx=0;entryDy=0;fontFamily=微软雅黑;fontSize=16;startArrow=classic;startFill=1;strokeWidth=2;strokeColor=#0000FF;" parent="1" source="SCAqfhZdBm1mwaxYcVvj-71" target="SCAqfhZdBm1mwaxYcVvj-72" edge="1">
          <mxGeometry relative="1" as="geometry" />
        </mxCell>
        <mxCell id="SCAqfhZdBm1mwaxYcVvj-71" value="取指令 Fetcher" style="rounded=0;whiteSpace=wrap;html=1;fontSize=12;dashed=1;fillColor=#F5F5F5;dashPattern=1 1;fontFamily=微软雅黑;" parent="1" vertex="1">
          <mxGeometry x="560" y="509.99" width="90" height="37.5" as="geometry" />
        </mxCell>
        <mxCell id="SCAqfhZdBm1mwaxYcVvj-72" value="中间语言指令执行逻辑 IL Instruction Logic" style="rounded=0;whiteSpace=wrap;html=1;fontSize=12;dashed=1;fillColor=#F5F5F5;dashPattern=1 1;fontFamily=微软雅黑;" parent="1" vertex="1">
          <mxGeometry x="690" y="509.99" width="310" height="37.5" as="geometry" />
        </mxCell>
        <mxCell id="SCAqfhZdBm1mwaxYcVvj-74" value="&lt;font style=&quot;font-size: 11px;&quot;&gt;程序计数器&lt;br&gt;Program Counter&lt;/font&gt;" style="rounded=0;whiteSpace=wrap;html=1;fontSize=12;fillColor=#FFFFFF;fontFamily=微软雅黑;" parent="1" vertex="1">
          <mxGeometry x="549" y="600" width="111" height="35" as="geometry" />
        </mxCell>
        <mxCell id="SCAqfhZdBm1mwaxYcVvj-77" value="&lt;font&gt;&lt;span style=&quot;font-size: 12px&quot;&gt;当前闭包寄存器&lt;/span&gt;&lt;br&gt;&lt;font style=&quot;font-size: 10px&quot;&gt;Current Closure Register&lt;/font&gt;&lt;/font&gt;" style="rounded=0;whiteSpace=wrap;html=1;fontSize=16;fillColor=#FFFFFF;strokeWidth=2;fontFamily=微软雅黑;" parent="1" vertex="1">
          <mxGeometry x="920" y="599.99" width="120" height="60" as="geometry" />
        </mxCell>
        <mxCell id="SCAqfhZdBm1mwaxYcVvj-78" value="&lt;font&gt;&lt;span style=&quot;font-size: 12px&quot;&gt;进程状态&amp;amp;元数据&lt;/span&gt;&lt;br&gt;&lt;font style=&quot;font-size: 10px&quot;&gt;Process State Register&lt;br&gt;&amp;amp; Metadata&lt;br&gt;&lt;/font&gt;&lt;/font&gt;" style="rounded=0;whiteSpace=wrap;html=1;fontSize=16;fillColor=#FFFFFF;strokeWidth=2;fontFamily=微软雅黑;" parent="1" vertex="1">
          <mxGeometry x="920" y="659.99" width="120" height="80" as="geometry" />
        </mxCell>
        <mxCell id="SCAqfhZdBm1mwaxYcVvj-82" value="" style="rounded=0;whiteSpace=wrap;html=1;fontSize=16;fillColor=#FFFFFF;fontFamily=微软雅黑;" parent="1" vertex="1">
          <mxGeometry x="690" y="599.99" width="30" height="20" as="geometry" />
        </mxCell>
        <mxCell id="SCAqfhZdBm1mwaxYcVvj-83" value="" style="rounded=0;whiteSpace=wrap;html=1;fontSize=16;fillColor=#FFFFFF;fontFamily=微软雅黑;" parent="1" vertex="1">
          <mxGeometry x="690" y="619.99" width="30" height="20" as="geometry" />
        </mxCell>
        <mxCell id="SCAqfhZdBm1mwaxYcVvj-88" value="" style="rounded=0;whiteSpace=wrap;html=1;fontSize=16;fillColor=#FFFFFF;fontFamily=微软雅黑;" parent="1" vertex="1">
          <mxGeometry x="690" y="719.99" width="30" height="20" as="geometry" />
        </mxCell>
        <mxCell id="SCAqfhZdBm1mwaxYcVvj-91" value="" style="rounded=0;whiteSpace=wrap;html=1;fontSize=16;fillColor=#FFFFFF;fontFamily=微软雅黑;" parent="1" vertex="1">
          <mxGeometry x="680" y="599.99" width="40" height="20" as="geometry" />
        </mxCell>
        <mxCell id="SCAqfhZdBm1mwaxYcVvj-92" value="" style="rounded=0;whiteSpace=wrap;html=1;fontSize=16;fillColor=#FFFFFF;fontFamily=微软雅黑;" parent="1" vertex="1">
          <mxGeometry x="680" y="619.99" width="40" height="20" as="geometry" />
        </mxCell>
        <mxCell id="SCAqfhZdBm1mwaxYcVvj-93" value="" style="rounded=0;whiteSpace=wrap;html=1;fontSize=16;fillColor=#FFFFFF;fontFamily=微软雅黑;" parent="1" vertex="1">
          <mxGeometry x="680" y="700" width="40" height="20" as="geometry" />
        </mxCell>
        <mxCell id="SCAqfhZdBm1mwaxYcVvj-97" value="" style="rounded=0;whiteSpace=wrap;html=1;fontSize=16;fillColor=#FFFFFF;fontFamily=微软雅黑;" parent="1" vertex="1">
          <mxGeometry x="680" y="719.99" width="40" height="20" as="geometry" />
        </mxCell>
        <mxCell id="SCAqfhZdBm1mwaxYcVvj-100" value="" style="rounded=0;whiteSpace=wrap;html=1;fontSize=16;fillColor=#FFFFFF;fontFamily=微软雅黑;" parent="1" vertex="1">
          <mxGeometry x="860" y="599.99" width="40" height="20" as="geometry" />
        </mxCell>
        <mxCell id="SCAqfhZdBm1mwaxYcVvj-101" value="" style="rounded=0;whiteSpace=wrap;html=1;fontSize=16;fillColor=#FFFFFF;fontFamily=微软雅黑;" parent="1" vertex="1">
          <mxGeometry x="860" y="619.99" width="40" height="20" as="geometry" />
        </mxCell>
        <mxCell id="SCAqfhZdBm1mwaxYcVvj-102" value="" style="rounded=0;whiteSpace=wrap;html=1;fontSize=16;fillColor=#FFFFFF;fontFamily=微软雅黑;" parent="1" vertex="1">
          <mxGeometry x="860" y="699.99" width="40" height="20" as="geometry" />
        </mxCell>
        <mxCell id="SCAqfhZdBm1mwaxYcVvj-106" value="" style="rounded=0;whiteSpace=wrap;html=1;fontSize=16;fillColor=#FFFFFF;fontFamily=微软雅黑;" parent="1" vertex="1">
          <mxGeometry x="860" y="719.99" width="40" height="20" as="geometry" />
        </mxCell>
        <mxCell id="SCAqfhZdBm1mwaxYcVvj-108" value="函数调用栈 FSTACK" style="rounded=0;whiteSpace=wrap;html=1;fontSize=11;strokeColor=none;fillColor=none;fontFamily=微软雅黑;" parent="1" vertex="1">
          <mxGeometry x="641.25" y="739.99" width="127.5" height="20.01" as="geometry" />
        </mxCell>
        <mxCell id="SCAqfhZdBm1mwaxYcVvj-79" value="堆区&lt;br&gt;Heap&lt;br&gt;&lt;font style=&quot;font-size: 10px&quot;&gt;静态/动态数据&lt;br&gt;Static/Dynamic Data&lt;/font&gt;" style="rounded=0;whiteSpace=wrap;html=1;fontSize=16;fillColor=#FFFFFF;strokeWidth=2;fontFamily=微软雅黑;" parent="1" vertex="1">
          <mxGeometry x="720" y="599.99" width="140" height="140" as="geometry" />
        </mxCell>
        <mxCell id="SCAqfhZdBm1mwaxYcVvj-114" style="edgeStyle=orthogonalEdgeStyle;rounded=1;orthogonalLoop=1;jettySize=auto;html=1;exitX=0;exitY=0.5;exitDx=0;exitDy=0;fontSize=16;startArrow=classic;startFill=1;strokeColor=#0000FF;endArrow=none;endFill=0;fontFamily=微软雅黑;" parent="1" source="SCAqfhZdBm1mwaxYcVvj-71" edge="1">
          <mxGeometry relative="1" as="geometry">
            <mxPoint x="539.9999999999999" y="547.49" as="sourcePoint" />
            <mxPoint x="540" y="598.99" as="targetPoint" />
            <Array as="points">
              <mxPoint x="540" y="528.99" />
              <mxPoint x="540" y="598.99" />
            </Array>
          </mxGeometry>
        </mxCell>
        <mxCell id="SCAqfhZdBm1mwaxYcVvj-115" style="edgeStyle=orthogonalEdgeStyle;rounded=0;orthogonalLoop=1;jettySize=auto;html=1;entryX=0.5;entryY=0;entryDx=0;entryDy=0;fontSize=16;startArrow=classic;startFill=1;strokeColor=#0000FF;fontFamily=微软雅黑;" parent="1" edge="1">
          <mxGeometry relative="1" as="geometry">
            <mxPoint x="604.9" y="547.49" as="sourcePoint" />
            <mxPoint x="604.9" y="599.49" as="targetPoint" />
            <Array as="points">
              <mxPoint x="605.11" y="576.99" />
              <mxPoint x="605.11" y="576.99" />
            </Array>
          </mxGeometry>
        </mxCell>
        <mxCell id="SCAqfhZdBm1mwaxYcVvj-116" style="edgeStyle=orthogonalEdgeStyle;rounded=0;orthogonalLoop=1;jettySize=auto;html=1;entryX=0.5;entryY=0;entryDx=0;entryDy=0;fontSize=16;startArrow=classic;startFill=1;strokeColor=#0000FF;endArrow=none;endFill=0;fontFamily=微软雅黑;" parent="1" edge="1">
          <mxGeometry relative="1" as="geometry">
            <mxPoint x="699.8300000000002" y="547.49" as="sourcePoint" />
            <mxPoint x="699.8300000000002" y="599.49" as="targetPoint" />
            <Array as="points">
              <mxPoint x="700.04" y="576.99" />
              <mxPoint x="700.04" y="576.99" />
            </Array>
          </mxGeometry>
        </mxCell>
        <mxCell id="SCAqfhZdBm1mwaxYcVvj-117" style="edgeStyle=orthogonalEdgeStyle;rounded=0;orthogonalLoop=1;jettySize=auto;html=1;entryX=0.5;entryY=0;entryDx=0;entryDy=0;fontSize=16;startArrow=none;startFill=0;strokeColor=#0000FF;fontFamily=微软雅黑;" parent="1" edge="1">
          <mxGeometry relative="1" as="geometry">
            <mxPoint x="709.8300000000002" y="547.99" as="sourcePoint" />
            <mxPoint x="709.8300000000002" y="599.99" as="targetPoint" />
            <Array as="points">
              <mxPoint x="710.04" y="577.49" />
              <mxPoint x="710.04" y="577.49" />
            </Array>
          </mxGeometry>
        </mxCell>
        <mxCell id="SCAqfhZdBm1mwaxYcVvj-120" style="edgeStyle=orthogonalEdgeStyle;rounded=0;orthogonalLoop=1;jettySize=auto;html=1;entryX=0.5;entryY=0;entryDx=0;entryDy=0;fontSize=16;startArrow=classic;startFill=1;strokeColor=#0000FF;endArrow=none;endFill=0;fontFamily=微软雅黑;" parent="1" edge="1">
          <mxGeometry relative="1" as="geometry">
            <mxPoint x="784.9200000000002" y="547.49" as="sourcePoint" />
            <mxPoint x="784.9200000000002" y="599.49" as="targetPoint" />
            <Array as="points">
              <mxPoint x="785.13" y="576.99" />
              <mxPoint x="785.13" y="576.99" />
            </Array>
          </mxGeometry>
        </mxCell>
        <mxCell id="SCAqfhZdBm1mwaxYcVvj-121" style="edgeStyle=orthogonalEdgeStyle;rounded=0;orthogonalLoop=1;jettySize=auto;html=1;entryX=0.5;entryY=0;entryDx=0;entryDy=0;fontSize=16;startArrow=none;startFill=0;strokeColor=#0000FF;fontFamily=微软雅黑;" parent="1" edge="1">
          <mxGeometry relative="1" as="geometry">
            <mxPoint x="794.9200000000002" y="547.99" as="sourcePoint" />
            <mxPoint x="794.9200000000002" y="599.99" as="targetPoint" />
            <Array as="points">
              <mxPoint x="795.13" y="577.49" />
              <mxPoint x="795.13" y="577.49" />
            </Array>
          </mxGeometry>
        </mxCell>
        <mxCell id="SCAqfhZdBm1mwaxYcVvj-122" style="edgeStyle=orthogonalEdgeStyle;rounded=0;orthogonalLoop=1;jettySize=auto;html=1;entryX=0.5;entryY=0;entryDx=0;entryDy=0;fontSize=16;startArrow=classic;startFill=1;strokeColor=#0000FF;endArrow=none;endFill=0;fontFamily=微软雅黑;" parent="1" edge="1">
          <mxGeometry relative="1" as="geometry">
            <mxPoint x="874.9200000000002" y="547.49" as="sourcePoint" />
            <mxPoint x="874.9200000000002" y="599.49" as="targetPoint" />
            <Array as="points">
              <mxPoint x="875.13" y="576.99" />
              <mxPoint x="875.13" y="576.99" />
            </Array>
          </mxGeometry>
        </mxCell>
        <mxCell id="SCAqfhZdBm1mwaxYcVvj-123" style="edgeStyle=orthogonalEdgeStyle;rounded=0;orthogonalLoop=1;jettySize=auto;html=1;entryX=0.5;entryY=0;entryDx=0;entryDy=0;fontSize=16;startArrow=none;startFill=0;strokeColor=#0000FF;fontFamily=微软雅黑;" parent="1" edge="1">
          <mxGeometry relative="1" as="geometry">
            <mxPoint x="884.9200000000002" y="547.99" as="sourcePoint" />
            <mxPoint x="884.9200000000002" y="599.99" as="targetPoint" />
            <Array as="points">
              <mxPoint x="885.13" y="577.49" />
              <mxPoint x="885.13" y="577.49" />
            </Array>
          </mxGeometry>
        </mxCell>
        <mxCell id="SCAqfhZdBm1mwaxYcVvj-124" style="edgeStyle=orthogonalEdgeStyle;rounded=0;orthogonalLoop=1;jettySize=auto;html=1;entryX=0.5;entryY=0;entryDx=0;entryDy=0;fontSize=16;startArrow=classic;startFill=1;strokeColor=#0000FF;fontFamily=微软雅黑;" parent="1" edge="1">
          <mxGeometry relative="1" as="geometry">
            <mxPoint x="979.73" y="547.49" as="sourcePoint" />
            <mxPoint x="979.73" y="599.49" as="targetPoint" />
            <Array as="points">
              <mxPoint x="979.94" y="576.99" />
              <mxPoint x="979.94" y="576.99" />
            </Array>
          </mxGeometry>
        </mxCell>
        <mxCell id="SCAqfhZdBm1mwaxYcVvj-125" value="本地宿主环境接口&lt;br style=&quot;font-size: 14px&quot;&gt;Native Host Interface" style="rounded=0;whiteSpace=wrap;html=1;fontSize=14;fillColor=#FFFFFF;strokeWidth=2;fontFamily=微软雅黑;" parent="1" vertex="1">
          <mxGeometry x="710" y="390" width="170" height="50" as="geometry" />
        </mxCell>
        <mxCell id="4GcCkNCRazbgQxLHn3y8-7" value="" style="rounded=0;whiteSpace=wrap;html=1;fontSize=16;fillColor=#FFFFFF;fontFamily=微软雅黑;" vertex="1" parent="1">
          <mxGeometry x="1130" y="729.99" width="40" height="20" as="geometry" />
        </mxCell>
        <mxCell id="SCAqfhZdBm1mwaxYcVvj-126" value="端口&lt;br style=&quot;font-size: 14px;&quot;&gt;Ports" style="rounded=0;whiteSpace=wrap;html=1;fontSize=14;fillColor=#FFFFFF;strokeWidth=2;fontFamily=微软雅黑;" parent="1" vertex="1">
          <mxGeometry x="920" y="390" width="120" height="50" as="geometry" />
        </mxCell>
        <mxCell id="SCAqfhZdBm1mwaxYcVvj-129" style="edgeStyle=orthogonalEdgeStyle;rounded=1;orthogonalLoop=1;jettySize=auto;html=1;fontFamily=微软雅黑;fontSize=16;startArrow=classic;startFill=1;strokeWidth=2;strokeColor=#0000FF;" parent="1" edge="1">
          <mxGeometry relative="1" as="geometry">
            <mxPoint x="980" y="440" as="sourcePoint" />
            <mxPoint x="980" y="470" as="targetPoint" />
          </mxGeometry>
        </mxCell>
        <mxCell id="SCAqfhZdBm1mwaxYcVvj-134" value="&lt;font style=&quot;font-size: 14px&quot;&gt;时间片轮转&lt;br&gt;Round-Robin&lt;br&gt;Cycle&lt;/font&gt;" style="edgeStyle=orthogonalEdgeStyle;rounded=1;orthogonalLoop=1;jettySize=auto;html=1;exitX=0.5;exitY=1;exitDx=0;exitDy=0;entryX=0.5;entryY=0;entryDx=0;entryDy=0;fontFamily=微软雅黑;fontSize=16;startArrow=none;startFill=0;endArrow=classic;endFill=1;strokeWidth=3;labelBackgroundColor=#E3F1FF;strokeColor=#FF8000;fontColor=#FF8000;" parent="1" source="SCAqfhZdBm1mwaxYcVvj-132" target="SCAqfhZdBm1mwaxYcVvj-56" edge="1">
          <mxGeometry relative="1" as="geometry">
            <Array as="points">
              <mxPoint x="1150" y="770" />
              <mxPoint x="1270" y="770" />
              <mxPoint x="1270" y="460" />
              <mxPoint x="1150" y="460" />
            </Array>
          </mxGeometry>
        </mxCell>
        <mxCell id="SCAqfhZdBm1mwaxYcVvj-136" value="线程队列&lt;br style=&quot;font-size: 14px&quot;&gt;Thread&lt;br style=&quot;font-size: 14px&quot;&gt;Queue" style="rounded=0;whiteSpace=wrap;html=1;fontSize=14;strokeColor=none;fillColor=none;fontFamily=微软雅黑;" parent="1" vertex="1">
          <mxGeometry x="1180" y="654.99" width="60" height="50" as="geometry" />
        </mxCell>
        <mxCell id="4GcCkNCRazbgQxLHn3y8-5" value="" style="shape=manualInput;whiteSpace=wrap;html=1;size=98;rotation=-180;gradientColor=none;strokeColor=none;gradientDirection=west;fillColor=light-dark(#eafed1, #ededed);shadow=1;shadowOffsetX=5;shadowBlur=2;shadowOffsetY=3;" vertex="1" parent="1">
          <mxGeometry x="1067" y="681" width="64" height="106" as="geometry" />
        </mxCell>
        <mxCell id="SCAqfhZdBm1mwaxYcVvj-143" value="" style="rounded=1;whiteSpace=wrap;html=1;absoluteArcSize=1;strokeColor=none;fillColor=#EDEEFF;fontFamily=微软雅黑;" parent="1" vertex="1">
          <mxGeometry x="490" y="270" width="1000" height="90" as="geometry" />
        </mxCell>
        <mxCell id="SCAqfhZdBm1mwaxYcVvj-145" style="edgeStyle=orthogonalEdgeStyle;rounded=1;orthogonalLoop=1;jettySize=auto;html=1;exitX=0.5;exitY=1;exitDx=0;exitDy=0;entryX=0.5;entryY=0;entryDx=0;entryDy=0;labelBackgroundColor=#E3F1FF;fontFamily=微软雅黑;fontSize=14;fontColor=#FF8000;startArrow=classic;startFill=1;endArrow=classic;endFill=1;endSize=6;strokeWidth=2;" parent="1" source="SCAqfhZdBm1mwaxYcVvj-144" target="SCAqfhZdBm1mwaxYcVvj-125" edge="1">
          <mxGeometry relative="1" as="geometry" />
        </mxCell>
        <mxCell id="SCAqfhZdBm1mwaxYcVvj-144" value="宿主提供的功能&lt;br&gt;Host APIs" style="rounded=0;whiteSpace=wrap;html=1;fontSize=16;strokeWidth=1;dashed=1;fillColor=none;fontFamily=微软雅黑;" parent="1" vertex="1">
          <mxGeometry x="685" y="285" width="220" height="60" as="geometry" />
        </mxCell>
        <mxCell id="SCAqfhZdBm1mwaxYcVvj-149" style="edgeStyle=orthogonalEdgeStyle;rounded=1;orthogonalLoop=1;jettySize=auto;html=1;exitX=0;exitY=0.5;exitDx=0;exitDy=0;entryX=1;entryY=0.5;entryDx=0;entryDy=0;labelBackgroundColor=#E3F1FF;fontFamily=微软雅黑;fontSize=14;fontColor=#FF8000;startArrow=classic;startFill=1;endArrow=classic;endFill=1;endSize=6;strokeWidth=2;strokeColor=#0000FF;" parent="1" source="SCAqfhZdBm1mwaxYcVvj-146" target="SCAqfhZdBm1mwaxYcVvj-18" edge="1">
          <mxGeometry relative="1" as="geometry" />
        </mxCell>
        <mxCell id="SCAqfhZdBm1mwaxYcVvj-150" style="edgeStyle=orthogonalEdgeStyle;rounded=1;orthogonalLoop=1;jettySize=auto;html=1;exitX=0;exitY=0.5;exitDx=0;exitDy=0;entryX=0;entryY=0.25;entryDx=0;entryDy=0;labelBackgroundColor=#E3F1FF;fontFamily=微软雅黑;fontSize=15;fontColor=#FF8000;startArrow=classic;startFill=1;endArrow=classic;endFill=1;endSize=6;strokeWidth=2;strokeColor=#0000FF;" parent="1" source="SCAqfhZdBm1mwaxYcVvj-146" target="SCAqfhZdBm1mwaxYcVvj-31" edge="1">
          <mxGeometry relative="1" as="geometry">
            <Array as="points">
              <mxPoint x="440" y="430" />
              <mxPoint x="440" y="875" />
            </Array>
          </mxGeometry>
        </mxCell>
        <mxCell id="SCAqfhZdBm1mwaxYcVvj-146" value="虚拟机对外接口&lt;br style=&quot;font-size: 14px&quot;&gt;Virtual Machine API" style="rounded=0;whiteSpace=wrap;html=1;fontSize=14;fillColor=#FFFFFF;strokeWidth=2;fontFamily=微软雅黑;" parent="1" vertex="1">
          <mxGeometry x="520" y="390" width="155" height="80" as="geometry" />
        </mxCell>
        <mxCell id="SCAqfhZdBm1mwaxYcVvj-148" style="edgeStyle=orthogonalEdgeStyle;rounded=1;orthogonalLoop=1;jettySize=auto;html=1;fontFamily=微软雅黑;fontSize=16;startArrow=classic;startFill=1;strokeWidth=2;strokeColor=#0000FF;" parent="1" edge="1">
          <mxGeometry relative="1" as="geometry">
            <mxPoint x="795" y="440" as="sourcePoint" />
            <mxPoint x="795" y="470" as="targetPoint" />
          </mxGeometry>
        </mxCell>
        <mxCell id="SCAqfhZdBm1mwaxYcVvj-154" value="&lt;b&gt;&lt;font style=&quot;font-size: 20px&quot;&gt;···&lt;/font&gt;&lt;/b&gt;" style="rounded=0;whiteSpace=wrap;html=1;fontSize=16;strokeWidth=1;fontFamily=微软雅黑;" parent="1" vertex="1">
          <mxGeometry x="680" y="639.99" width="40" height="60.01" as="geometry" />
        </mxCell>
        <mxCell id="SCAqfhZdBm1mwaxYcVvj-156" value="&lt;b&gt;&lt;font style=&quot;font-size: 20px&quot;&gt;···&lt;/font&gt;&lt;/b&gt;" style="rounded=0;whiteSpace=wrap;html=1;fontSize=16;strokeWidth=1;fontFamily=微软雅黑;" parent="1" vertex="1">
          <mxGeometry x="860" y="639.98" width="40" height="60.01" as="geometry" />
        </mxCell>
        <mxCell id="SCAqfhZdBm1mwaxYcVvj-80" value="" style="rounded=0;whiteSpace=wrap;html=1;fontSize=16;strokeWidth=2;fillColor=none;fontFamily=微软雅黑;" parent="1" vertex="1">
          <mxGeometry x="680" y="599.99" width="40" height="140" as="geometry" />
        </mxCell>
        <mxCell id="SCAqfhZdBm1mwaxYcVvj-81" value="" style="rounded=0;whiteSpace=wrap;html=1;fontSize=16;strokeWidth=2;fillColor=none;fontFamily=微软雅黑;" parent="1" vertex="1">
          <mxGeometry x="860" y="599.99" width="40" height="140" as="geometry" />
        </mxCell>
        <mxCell id="SCAqfhZdBm1mwaxYcVvj-159" value="" style="endArrow=classic;html=1;labelBackgroundColor=#E3F1FF;fontFamily=微软雅黑;fontSize=14;fontColor=#FF8000;endSize=6;strokeWidth=5;fillColor=#ffffff;strokeColor=#FF0000;startArrow=oval;startFill=1;" parent="1" edge="1">
          <mxGeometry width="50" height="50" relative="1" as="geometry">
            <mxPoint x="710" y="630" as="sourcePoint" />
            <mxPoint x="750" y="630" as="targetPoint" />
          </mxGeometry>
        </mxCell>
        <mxCell id="SCAqfhZdBm1mwaxYcVvj-160" value="" style="endArrow=classic;html=1;labelBackgroundColor=#E3F1FF;fontFamily=微软雅黑;fontSize=14;fontColor=#FF8000;endSize=6;strokeWidth=5;fillColor=#ffffff;strokeColor=#FF0000;startArrow=oval;startFill=1;" parent="1" edge="1">
          <mxGeometry width="50" height="50" relative="1" as="geometry">
            <mxPoint x="880" y="630" as="sourcePoint" />
            <mxPoint x="830" y="630" as="targetPoint" />
          </mxGeometry>
        </mxCell>
        <mxCell id="SCAqfhZdBm1mwaxYcVvj-161" value="" style="endArrow=classic;html=1;labelBackgroundColor=#E3F1FF;fontFamily=微软雅黑;fontSize=14;fontColor=#FF8000;endSize=6;strokeWidth=5;fillColor=#ffffff;strokeColor=#FF0000;startArrow=oval;startFill=1;" parent="1" edge="1">
          <mxGeometry width="50" height="50" relative="1" as="geometry">
            <mxPoint x="690" y="710" as="sourcePoint" />
            <mxPoint x="650" y="710" as="targetPoint" />
          </mxGeometry>
        </mxCell>
        <mxCell id="SCAqfhZdBm1mwaxYcVvj-162" value="分析器 (前端)&amp;nbsp; Parser (Front-end)" style="rounded=0;whiteSpace=wrap;html=1;fontSize=17;strokeColor=none;fillColor=none;fontStyle=1;fontColor=#FF9933;fontFamily=微软雅黑;" parent="1" vertex="1">
          <mxGeometry x="480" y="810" width="280" height="40" as="geometry" />
        </mxCell>
        <mxCell id="SCAqfhZdBm1mwaxYcVvj-163" value="编译器 (后端)&amp;nbsp; Compiler (Back-end)" style="rounded=0;whiteSpace=wrap;html=1;fontSize=17;strokeColor=none;fillColor=none;fontStyle=1;fontColor=#FF61A5;fontFamily=微软雅黑;" parent="1" vertex="1">
          <mxGeometry x="1020" y="810" width="300" height="40" as="geometry" />
        </mxCell>
        <mxCell id="SCAqfhZdBm1mwaxYcVvj-164" value="虚拟机运行时环境&lt;br&gt;&lt;font style=&quot;font-size: 15px&quot;&gt;Virtual Machine&lt;br&gt;Run-time Environment&lt;/font&gt;" style="rounded=0;whiteSpace=wrap;html=1;fontSize=17;strokeColor=none;fillColor=none;fontStyle=1;align=right;fontColor=#007FFF;fontFamily=微软雅黑;" parent="1" vertex="1">
          <mxGeometry x="1250" y="380" width="220" height="70" as="geometry" />
        </mxCell>
        <mxCell id="SCAqfhZdBm1mwaxYcVvj-165" value="宿主环境&lt;br&gt;&lt;font style=&quot;font-size: 15px&quot;&gt;Host Environment&lt;/font&gt;" style="rounded=0;whiteSpace=wrap;html=1;fontSize=17;strokeColor=none;fillColor=none;fontStyle=1;align=right;fontColor=#9757D9;fontFamily=微软雅黑;" parent="1" vertex="1">
          <mxGeometry x="1250" y="280" width="220" height="70" as="geometry" />
        </mxCell>
        <mxCell id="SCAqfhZdBm1mwaxYcVvj-166" value="&lt;font style=&quot;font-size: 14px;&quot;&gt;Read-Eval-Print Loop&lt;/font&gt;" style="rounded=0;whiteSpace=wrap;html=1;fontSize=14;strokeColor=none;fillColor=none;fontStyle=1;align=center;fontColor=#666666;fontFamily=微软雅黑;" parent="1" vertex="1">
          <mxGeometry x="170" y="270" width="270" height="30" as="geometry" />
        </mxCell>
        <mxCell id="SCAqfhZdBm1mwaxYcVvj-167" value="&lt;font color=&quot;#00bb00&quot;&gt;虚拟机线程 VM Thread&lt;/font&gt;" style="rounded=0;whiteSpace=wrap;html=1;fontSize=17;strokeColor=none;fillColor=none;fontStyle=1;fontColor=#FF6666;align=left;fontFamily=微软雅黑;" parent="1" vertex="1">
          <mxGeometry x="500" y="750" width="353" height="40" as="geometry" />
        </mxCell>
        <mxCell id="SCAqfhZdBm1mwaxYcVvj-168" value="操作数栈 OPSTACK" style="rounded=0;whiteSpace=wrap;html=1;fontSize=11;strokeColor=none;fillColor=none;fontFamily=微软雅黑;" parent="1" vertex="1">
          <mxGeometry x="816.25" y="739.99" width="127.5" height="20.01" as="geometry" />
        </mxCell>
        <mxCell id="SCAqfhZdBm1mwaxYcVvj-186" value="&lt;font style=&quot;line-height: 200%; font-size: 30px;&quot;&gt;&lt;span style=&quot;font-size: 30px;&quot;&gt;&lt;b style=&quot;font-size: 30px;&quot;&gt;系 统 框 图&amp;nbsp; &amp;nbsp;&lt;/b&gt;&lt;/span&gt;&lt;font style=&quot;line-height: 116%; font-size: 30px;&quot;&gt;System Architecture Diagram&lt;/font&gt;&lt;/font&gt;" style="text;html=1;strokeColor=none;fillColor=none;align=left;verticalAlign=middle;whiteSpace=wrap;rounded=0;dashed=1;fontFamily=微软雅黑;fontSize=30;labelBackgroundColor=none;fontStyle=0;" parent="1" vertex="1">
          <mxGeometry x="890" y="173.2" width="600" height="50" as="geometry" />
        </mxCell>
        <mxCell id="SCAqfhZdBm1mwaxYcVvj-189" value="&lt;font style=&quot;font-size: 15px&quot;&gt;&lt;u style=&quot;color: rgb(153 , 153 , 153) ; font-size: 15px&quot;&gt;https://github.com/bd4sur/Animac&lt;/u&gt;&lt;/font&gt;" style="text;html=1;strokeColor=none;fillColor=none;align=right;verticalAlign=middle;whiteSpace=wrap;rounded=0;dashed=1;fontFamily=微软雅黑;fontSize=15;fontColor=#666666;" parent="1" vertex="1">
          <mxGeometry x="1240" y="990" width="250" height="30" as="geometry" />
        </mxCell>
        <mxCell id="-8d1sTgAm_LuTP740mas-3" value="&lt;font style=&quot;font-size: 15px&quot;&gt;&lt;font color=&quot;#999999&quot; style=&quot;font-size: 15px;&quot;&gt;Copyright © 2019 ~ 2025 &lt;/font&gt;&lt;b style=&quot;font-size: 15px&quot;&gt;&lt;font color=&quot;#000000&quot; style=&quot;font-size: 15px;&quot;&gt;BD4SUR&lt;/font&gt;&lt;/b&gt;&lt;br&gt;&lt;/font&gt;" style="text;html=1;strokeColor=none;fillColor=none;align=left;verticalAlign=middle;whiteSpace=wrap;rounded=0;dashed=1;fontFamily=微软雅黑;fontSize=15;fontColor=#666666;" parent="1" vertex="1">
          <mxGeometry x="150" y="990" width="260" height="30" as="geometry" />
        </mxCell>
        <mxCell id="70e9rkExgkxMr-ouLD9Z-2" style="edgeStyle=orthogonalEdgeStyle;rounded=0;orthogonalLoop=1;jettySize=auto;html=1;exitX=0.5;exitY=1;exitDx=0;exitDy=0;entryX=0.5;entryY=0;entryDx=0;entryDy=0;strokeWidth=2;fontFamily=微软雅黑;" parent="1" source="70e9rkExgkxMr-ouLD9Z-1" target="SCAqfhZdBm1mwaxYcVvj-58" edge="1">
          <mxGeometry relative="1" as="geometry" />
        </mxCell>
        <mxCell id="70e9rkExgkxMr-ouLD9Z-1" value="外部中断源&lt;br&gt;External Interrupt Sources" style="rounded=0;whiteSpace=wrap;html=1;fontSize=16;strokeWidth=1;dashed=1;fillColor=none;fontFamily=微软雅黑;" parent="1" vertex="1">
          <mxGeometry x="1040" y="285" width="220" height="60" as="geometry" />
        </mxCell>
        <mxCell id="8AhzLtra5F1OILPT977s-1" value="" style="shape=image;verticalLabelPosition=bottom;labelBackgroundColor=default;verticalAlign=top;aspect=fixed;imageAspect=0;image=data:image/png,iVBORw0KGgoAAAANSUhEUgAAByoAAAHCCAYAAACwmE6DAAAAAXNSR0IArs4c6QAAAARnQU1BAACxjwv8YQUAAAAJcEhZcwAAHYcAAB2HAY/l8WUAAP+lSURBVHhe7J13fBzF+cafOZnigrEky42OC9gYCGBTA5hibNNCDSEQ0gi9huSXQugthBBISAgB00lIqKb3YlzBhepesClud5JtjGWKdfv7Y8rOzu4VydJp9+75fj6juZl3ZnZm9m51d+89+wrP8zwQQgghhBBCCCGEEEIIIYQQQkgJSbkVhBBCCCGEEEIIIYQQQgghhBDS1tBRSQghhBBCCCGEEEIIIYQQQggpOXRUEkIIIYQQQgghhBBCCCGEEEJKDh2VhBBCCCGEEEIIIYQQQgghhJCSQ0clIYQQQgghhBBCCCGEEEIIIaTk0FFJCCGEEEIIIYQQQgghhBBCCCk5dFQSQgghhBBCCCGEEEIIIYQQQkoOHZWEEEIIIYQQQgghhBBCCCGEkJJDRyUhhBBCCCGEEEIIIYQQQgghpOTQUUkIIYQQQgghhBBCCCGEEEIIKTl0VBJCCCGEEEIIIYQQQgghhBBCSg4dlYQQQgghhBBCCCGEEEIIIYSQkkNHJSGEEEIIIYQQQgghhBBCCCGk5NBRSQghhBBCCCGEEEIIIYQQQggpOXRUEkIIIYQQQgghhBBCCCGEEEJKDh2VhBBCCCGEEEIIIYQQQgghhJCSQ0clIYQQQgghhBBCCCGEEEIIIaTk0FFJCCGEEEIIIYQQQgghhBBCCCk5dFQSQgghhBBCCCGEEEIIIYQQQkoOHZWEEEIIIYQQQgghhBBCCCGEkJJDRyUhhBBCCCGEEEIIIYQQQgghpOTQUUkIIYQQQgghhBBCCCGEEEIIKTl0VBJCCCGEEEIIIYQQQgghhBBCSg4dlYQQQgghhBBCCCGEEEIIIYSQkkNHJSGEEEIIIYQQQgghhBBCCCGk5NBRSQghhBBCCCGEEEIIIYQQQggpOXRUEkIIIYQQQgghhBBCCCGEEEJKDh2VhBBCCCGEEEIIIYQQQgghhJCSQ0clIYQQQgghhBBCCCGEEEIIIaTk0FFJCCGEEEIIIYQQQgghhBBCCCk5wvM8z60kpFLxssDKz4GVS4DVy4AvVgBr0sCaDLB2pUyNq4Gv1gBffwl80wh88xXw7VdA07dAtgnIrgfMq0oA8CJyjVsfc7tIAakUkOoAVG0EbNwR6LAJsEknYJMuQMfNgI6bA52rZdqsO7BZHdC1B7B5L6C6D1C9hRyHEEIIIYQQQgghhBBCCCGVDR2VpOJYvQxYNk+m9EIg/TGQWSzTys+lk1EI5m2Z12wF1G4F1G0L1G0H1G0P9Oov0+a93DNGCCGEEEIIIYQQQgghhJByhI5KUrasXQl88j7w2UcqzQCWzAbW1iuFoEYrBlmORblzNdBnILDlTsCWg2XaeldZTwghhBBCCCGEEEIIIYSQ8oGOSlIWfNMILHgHWDDFw6JpAoumA8vnKweYdoQxT3Tesy+w7e7Atnt46DtUoO+ewMad3GcCIYQQQgghhBBCCCGEEEKSAh2VJJGsWgrMGQ/MnQjMmwh8PC3s2GJe/vl2Q4D++wAD9gN2+C7Qrbf7TCGEEEIIIYQQQgghhBBCSFyho5IkgsbVwMw3ZJo1Vt7KNcJvxbzC860HAzsc4GGngwUGHQR02tx9JhFCCCGEEEIIIYQQQgghJC7QUUliy8fTgQ9fBj58BZj9lmslpDA7HgDsPBzY+TBgu91dKyGEEEIIIYQQQgghhBBC2hM6Kkms+OAlYPpzHt5/QSC9yLUS0nLqtgW+M8rDd44Adh0hXDMhhBBCCCGEEEIIIYQQQkoMHZWk3Xn3WWDKU8D0p4EvV7pWQlqfLtXA7kcDQ78H7HakayWEEEIIIYQQQgghhBBCSCmgo5K0Cx+9Brz9ODDlSWBNfTjWIHPmpcq71ABDjwP2Ot7D4EOE+1QlhBBCCCGEEEIIIYQQQkgbQUclKRmfzQQm/Q+Y+D8g/bFrJaT96bEdsM9JMm05yLUSQgghhBBCCCGEEEIIIaQ1oaOStCleFnjrQQ8T/iMw403XSkh82WkYsN8PPRzwIwGRcq2EEEIIIYQQQgghhBBCCNlQ6KgkbcInHwJjHwDGPQisXeVaCUkOnTYHDjwNOOA0YOudXSshhBBCCCGEEEIIIYQQQloKHZWkVZn6FPD6PR7ef0mEYgEyZ570/DsjgIN+Bgz9nvvMJ4QQQgghhBBCCCGEEEJIc6Gjkmww2fXAq3cCr44GPp/lWgkpP7YYCBxyOjD8DCDVwbUSQgghhBBCCCGEEEIIIaQY6KgkLeaLNPDSP4FX/gV82eBaCSl/NqsFDj3Dw4izBbrWuVZCCCGEEEIIIYQQQgghhOSDjkrSbDKfAC/+A3jxdiDb5FoJqTxSVcDIc4CR5wLdt3athBBCCCGEEEIIIYQQQgiJgo5KUjTpRcCzfwVe/lc4dp+w2rn1tNNeSfbhZ3o48kKBum2tSkIIIYQQQgghhBBCCCGEhKCjkhSk4XPg2VulgpIQUhwjzgGOugio2cK1EEIIIYQQQgghhBBCCCEEdFSSfDR+ATz9Z+Cpv3iAZ2vGCCHFIARw1C+B7/0K6NTVtRJCCCGEEEIIIYQQQgghlQ0dlSSSZ24FnroJWLvatRBCmkvnbtJZedRFroUQQgghhBBCCCGEEEIIqVzoqCQBxv8PeOKPwNJ5uWPwufW00057cfY+A4BjfwN89ySrAyGEEEIIIYQQQgghhBBSodBRSQAAc98GHrse+PAN5VnRaE8Lyyyz3GrlnQ8GTvg9MGAvy0YIIYQQQgghhBBCCCGEVBh0VFY4X64EHrnGw8t3CddECGljDvuFh+9fJtCl2rUQQgghhBBCCCGEEEIIIeUPHZUVzKv3AP+7GljTYFXmUICxzDLLbVPerBo46XLg0J9Z9YQQQgghhBBCCCGEEEJIBUBHZQXy8fvAf64APnzdcpwwZ868XfOdDwJ+eBWw3a7uK5YQQgghhBBCCCGEEEIIKU/oqKwwHrsBeOyP0Y4S5syZt39+wm+AE37nvnIJIYQQQgghhBBCCCGEkPKDjsoKYeYE4MFLgYXvhR0jzJkzj1fed3fg1GuAQd91X8mEEEIIIYQQQgghhBBCSPlAR2UF8N9rgCf/Eu0QYc6ceXzzYy8BfnCZ+4omhBBCCCGEEEIIIYQQQsoDOirLmHlTgPt+C8yf7hi0IyQXtNNOe25KbO+7u4ef/lGg/1C7ESGEEEIIIYQQQgghhBCSfOioLFOe/hvw7ytVwXWMsMwyy4krn3IlcPQFVj0hhBBCCCGEEEIIIYQQknDoqCwz6j8HRv8KmPaS5fBgzpx5WeRDRgE/vwmo3cJ95RNCCCGEEEIIIYQQQgghyYOOyjJi8tPA6EuAL+qVY0P7N7Sjg2WWWU58ebMa4PSbgb2PlnWEEEIIIYQQQgghhBBCSFKho7JM+PfVwFN/dWsJIeXK9y4ATrnCrSWEEEIIIYQQQgghhBBCkgMdlQmn/nPgjouA999wLYSQcmfXg4CzbuWtYAkhhBBCCCGEEEIIIYQkEzoqE8z0Vzz880KBVStcCyGkUujWw8PZfxXYfbhrIYQQQgghhBBCCCGEEELiDR2VCeWZ24EHrlAx7Kx6lllmuTLLp10FHHWOZSSEEEIIIYQQQgghhBBCYg4dlQnkX5cArz7g1hJCKp1DTwPOvNmtJYQQQgghhBBCCCGEEELiCR2VCWLlcuC2c4EP33IthBAi2Xl/4PzbgeqeroUQQgghhBBCCCGEEEIIiRd0VCaEudOAv57lYfli4ZoIISRAz208XHiHwIA9XAshhBBCCCGEEEIIIYQQEh/oqEwAk58Fbj0LWP+tH5OOOXPmzPPlVR2Ai/4F7H2ke0UhhBBCCCGEEEIIIYQQQuIBHZUx54W7gbt/79YSQkhx/Px6YNTP3VpCCCGEEEIIIYQQQgghpP2hozLG/O8m4NGb3VpCCGkeJ14CnPRrt5YQQgghhBBCCCGEEEIIaV/oqIwpo3/n4YV7hVtNCCEtYtRPPZx+A68phBBCCCGEEEIIIYQQQuIDHZUx5G/nAW89Ho45x5w5c+Ybkh94PHDB390rDiGEEEIIIYQQQgghhBDSPtBRGTNu/BnwzgtuLSGEtA57jgR+c69bSwghhBBCCCGEEEIIIYSUHjoqY8K33wB//Anw3puuhRBCWpfvDAN+ex+w0cauhRBCCCGEEEIIIYQQQggpHXRUxoCv1gI3/AT4cIJrIYSQtmHn/YDf3Qds2tm1EEIIIYQQQgghhBBCCCGlgY7KdqZxjXRSzpwcHVOOOXPmzNsq32lv6azstJl7ZSKEEEIIIYQQQgghhBBC2h46KtuRr9YC150GzJgc4UHQuPW000477a1oH7QX8IcHqKwkhBBCCCGEEEIIIYQQUnroqGwnvv0GuPZU4MNJORwJzJkzZ16ifOf9gD88yJiVhBBCCCGEEEIIIYQQQkoLHZXtxNWnAu++6dYSQkj7sNsw4PKH3FpCCCGEEEIIIYQQQgghpO2go7Id+OPpwDsvKUGTADzPEjixzDLLLLdTea+RwG/vcq9YhBBCCCGEEEIIIYQQQkjbkHIrSNty64XA2y8BnpBlT9WzzDLLLLd3+e2X5DWKEEIIIYQQQgghhBBCCCkFdFSWkDsvA8aOgZQvMTExMcUwjX1SXqsIIYQQQgghhBBCCCGEkLaGjsoS8fBfgOfvl489K7HMMsssx638/APymkUIIYQQQgghhBBCCCGEtCV0VJaA5+8HHvmbjAenVUtCJZZZZpnlOJYf+av/4wpCCCGEEEIIIYQQQgghpC0QnudpIQ1pAya9ANx4tltLCCHJ4Df/BPYZ5dYSQgghhBBCCCGEEEIIIRsOHZVtyJx3gUu/D6xf71oIISQZVHUArn8E2GE310IIIYQQQgghhBBCCCGEbBh0VLYRK1cAvz3Bw/JPBTxP3VJRZSyz3FrlVArINuW2s8xya5R7be3hj48JVPeQ9YSQ8mLJkqXwACxZskSWP5dlAaBPn96AAPr06YMt+vR2uxJCCClDxjz1LKZOm47PP1+CJUuWAp6HJUuXwYMHAYE+vXsBQqBPn97Yc+geGLLH7thiiz7yfwYhhBBCCCGENBM6KtuIy08FPpgoH3ueiv+mYJnl1iiPOhU47kzgv38DXns0bGeZ5dYs77IvcPVDfj0hJJksWbIUny9ZgqlTp2PKlOmYMnWa2yQvffr0xtChe2DoHrujzxa9MXTIHm4TQgghCWPK1Gl46unnMGXKNOmYbCFDh+yBs88+HVv0odOSEEIIIYQQUjx0VLYBt18KvPSwW0tI67DHMOmg3HqAdCJ5nocFHwqMuQv4YJLbmpDWY8TJwDnXubWEkCTwzztGY+rUaZgydbpr2iD69JHOyqOPPgJDh+zumgkhhMSYKVOn44477mr1/w0AcM3Vl2HokD3osCSEEEIIIYQUhI7KVmbMaODeG9xaQjacrftLB+Uew2TZ8wB4KlflSS8BT40Gln0a6EpIq/HT3wHHnO7WEkLiyJIlS/HU08/hn3fcZW7lqtFlN98Q+xZ9euPss07H944+0mpJCCEkbmgH5TtTpxd9jW+JvXef3jjnrNPpsCSEEEIIIYTkhY7KVmTqm8A1Pw9/YGPOfEPyTToBx58BjDpV1vgOSlnOZmWsGK2u9AA8e5/AmHsAryk8HnPmG5pffjcwRDnMCSHxY8mSpXjqmedwxx2jTZ1+DZei3KdPbxx99BE4+0z+qoEQQuLGHf8ajdvvGJ3zGt4W5SFDdsc1V11GZyUhhBBCCCEkEjoqW4nMUuCSY4FVGddCSMs59ETg2NOBrjW+chJKRakdlqoqpLDMLAOevgeY8IIZjpBWoVsdcPMTQHd+10RI7Jg6dTp+/otz3Op2oU+f3rj7rtv5xTQhhMSAJUuW4rIrrsHUNrjNazH06dMb11x1GYbwNuGEEEIIIYQQBzoqW4krfgK8O96tJaRl7LIPcNwZQL/BvnLSdlB6nqd+qqyVlLLOV1b6TszZ7wJP3wfMfd89CiEtZ7fvAlfd59YSQtqLJUuW4vIrr223L6Bz0adPbxx91BE468yfuyZCCCElYurU6Tj9jHPd6nbhrDNPx9FHHc4fsRBCCCGEEEIMdFS2AvffBDx+p3ysb42YC9ppz2fvvRVw7BnAfiODqkn9KrXzQJ2tslQEyh4w/nng2QeAhrTfxqXQ/Gin3bYffwbw419bFYSQdiFOX0Dnok+f3nj+2SfcakIIIW1MHP9HDBmyO66+8g90VhJCCCGEEEIA0FG5wUx4Efjj+f4X+MyZtyRPpaTT59ifA9mssiiVpHyFCniQjbXCMuiglO2EUViqsqWw9DwPTesFnnnAw0v/leO582DOvLn5b26TjnVCSPswddp0/OKM89zqWNKnT2/c9a+/84tpQggpEXH+H8H/CYQQQgghhBANHZUbQGYpcNExwBcrXQshxXPAkcBxvwC69woqIHMpJLWD0q5z2+j+pg7BumWfAs8/BEwd6/clpCVsVg38dQzjVRLSHsT5C+hc8ItpQggpDUn4H3H0UUfgzDN+xv8JhBBCCCGEVDh0VG4A15wFvPO6W0tIcQzcHTjudGDQHrkVkBDB2JQA4CnFpe+I9Mu6nxkH2kFp9bHazZgq8Px/gMVz7ZkR0jz2PBi47A63lhDSljz9zPO48qrr3OpE0KdPb9x5x238YpoQQtqIJUuW4sijT3CrY8mZZ/wcZ57xM7eaEEIIIYQQUkHQUdlCHh8N3HeTW+vfEjEXtNNe3QM4/hfAQUfnUEAios4qm/FdB6Zuox+7bax29jEAYOyzwAv/BRq/KDx/2nNTyfaf/Bo4/nS3lhDSFkyd9i7OODPeKplC0FlJCCFtxxlnnoep0951q2PLlVdciqOPOtytJoQQQgghhFQIdFS2gNnvAb8+SX5hr7+4Z868mPyYHwPHnu5ho418dWNWKyBhOyT92JSyLOugYlDqNrBVkvD7ucpMW2FpxlLj6/JXjQIv/hd445nwvJkzLya/+X/ADt9xr5iEkNZkydKlOOroE93qRNKnd2888/SjbjUhhJANYNq0d3HGWee71bHnmacfRZ/e/PEKIYQQQgghlQgdlS3gl98H5n3g1hKSm32GS7VZ760dtSMsxaOucxWQqo0p2210N6uPrjdl/diuc8tWm88WAi89Anw0RQ1OSJEM2AW4+RG3lhDSmpxx1vmYliCVTCGOOvJwXHnF791qQgghLWSPod91qxLBHnvshjvvuM2tJoQQQgghhFQAdFQ2kwduBR5hLDZSJH0HAcf/HPjOvggqIHM4D2UKKix1v4ATU+H3sfrlaKMdndk8MS5tJ+b7k4GXHwOWfuKPRUghvn8mcNrFbi0hpDU48+wLlJNS65hzkSz7Gb/4Gc74xU8DLQghhDSfO++6F3fedW+zrsFh2s/+9FOPok/vXm41IYQQQgghpMxJuRUkNx9NAR69U322Ukm4eYp22oEumwM/+RVw7T3aSQl4XtBJ6XmAl1Up4FwM3gYWnvDbqBaeB2TtfrpdjjZQ7bIe4KnxdRtPjQ/V14Nst/OewCV/Ao48Bdhk0+atn/bKtT9yJ9W4hLQFzzz7gqWkjP6C1ydZ9meffb6sVKKEENIeLFm6DHfedU/oGhsmvva77rrHrSKEEEIIIYRUAFRUNoOLTgTmfyQ/Wgn1EYs5czcf9QPg+J956NQlGCdS4seEhOeXAT9WpVY8QrWTduVcNGMFFZCe56nj++N7dqxK+P38Pk47+HVujMsvVwu8/ATw9mvh9TJn7ub9BwO3MuwcIa3K0L0OsEr61VY+5d69e+LpMbx3NCGEtJS7Rms1Zfgam6Ty02MeQW+qKgkhhBBCCKkoUm4FieY//wDmz5Cfo0IqIubMBTBkf+D6+4AfXQB07BxUNwKykXYuwhMhZSM8gWxWtdVOQtVPNtKOw7ACEhDB27566nj6cPqYEepN086em9Omc1fg2J8AZ10GDNg5ev3Mmet8/gx5zSSEtA5nnXOhfCCEypWhjMpLly7Ds8+9oAyEEEKay7Tp78kHEdfYJJWnTafCnhBCCCGEkEqDisoiWDATuOBE5cQRzJkH8622A044HdjzQPl8MQ5KS7EI2EpGDxBhRWSgDSLq7LI+TpRyMutBqPH1Mex5+ceV4wXKQjkzc81fjf/eZIFXxwAN6fB+MGeu8789JuO0EkJazrTp7+Gccy8y12h4+hpffuXefXrjjn/cSiUNIYQ0k6VLl+F7x/0g7zU2KeU99tgN//zHre4SCSGEEEIIIWUMFZVFcO8t8nMTLNWQTm497ZVj37gjcMq5wE0PSSelZ2JASieN5wGeJ6S60XZAwlJEamei7WiEqnP6Bdrofmp83U/+kcpMaffnlTWD+3Mzbax56XH0vGSyjguBXfcCLrkBOOR7Mi5h1P5E7RvtlWW/9xZzGSWEtJDRo+9V/wN8yrW8dOky3DX6PsdKCCGkEM8+96J5nOsam5TytOnvYenSZU4tIYQQQgghpJyho7IALzwCTJ8oP0DZCbZTKSLRHq4rJ/shR3v46yPAkScD2ayML5lVXkQvq+qU19J2FGazHrysVClqZ2JWlXVdVD8v65l22aw8hpeVcSk96LI/npmHJ+fmjq/L5hjW+Pb8g/2C8816wIFHeLjoOmDXfZq3f7SH68rR/u4keQ0lhLSMZ597EdPffR9CiIpJzz3/Iqbr2xcSQggpiunvvhe6niY5mdvYEkIIIYQQQioCOirzsGY1cP/fwmohIeTORdbTXtb2nfcErr4DOP3XAt1qbMeMUjZ6vpIREEZhaeo8IZWM6jnmqXaBfp7fTx9Aqh+jFZDS7icREZvSjAP/ePr4eg4BZaZqp52Tei6eBwih5q/G7lYDHPtj4McXAdv0z79/hfaX9vKz3/83eS0lhDSfu++5HxACAqiofPQ994MQQkgziLiWJjonhBBCCCGEVBR0VObhwds8fLHa+Hhsfw/LFVbu0Qc45zLg938B+u8klYxS6aiUjcqJZzv2jPNQqR2zjgIyoGy0+hkFpKNshBoz6zgmdRvdTyokHUWk1c9WZhqVpz62pcy06wLju+tRddsNAH5yEXDEyUCXzfPvJ8uVU/5iFfDgbe7VlRBSiOeefxHLli0PqUwqIb377vuY/i7VNIQQUizvlpn6/t33PnCXSAghhBBCCClj6KjMwaz3gGcfEXDVQZE57dH1ZWI/8XTgb/8D9h+hnXeWstGDUTp66rljO/NMG8h+2otj94N27Hi6j2znj+krLk3SY6u+gABsRafdzxxAOyHDMS21c1IfN6DohJyTB6Ee6+GcmJZqDbvvC5x/ObDf8OL2l/Yc9WVkf+4ReU0lhBRPWFVoLu4VUX7u+ZcCZUIIIfnIf01NWnnp0qWBMiGEEEIIIaS8oaMyBw/903IwublObj3tZWXffwTw1/8Bx//YUR56QbVjVGxHqHZ2jEgYpWOwn12nxzcKyDyxKbWi0+2n6yLH1+uzVJGB+atYm5H9dFntRbAfkG3y55GqAoYd7uGM3wADd43eX1N2c9qj6xNuf+h29ypLCMnFc8+/hGXLVjgKk1RFld997wNMf/d9d2sIIYQ4LF26LHQNTX5ZuMskhBBCCCGElDF0VEbwxnPAu5NzqIOYl32+4y7ApbcA514K9OjtO1vgWTEhlTMGkJ08T7eR7bQi0e5n2hTRTx8gZ2xKYw/3k8eVCkszju7nxLQEhBPTMtwPuh+C/WD1k38s5afqV9sDOPY04MSfA723it5v5pWRvztZXlsJIYV54QVfTShy5Bq3vlzsS5cuC+wDIYSQaJYuWx66hmrc+qTY+UMVQgghhBBCKgvheb7rhEh+8T3gs0VuLSl3qrsDJ/4EOPhID0IEb7cK2E5A7ezzANvZqJsZB6IsZ7OqnR7D6uc7A4P95GPZzrdF98tmPelszNlPH0CVIdt4Horq51nz1+3sfnoivl2N5SG07qkTBMa/Any1Ts2JVBRbbgvc9ZRbSwixeffd93HeBZe41RVJ71698NijD7nVhBBCLJ5/4SVcd/1NbnXimTDuVbeKEEIIIYQQUqZQUenw2H3AZ4vDaiDm5Z0fcwpw28PAIUcBgJC3WdVOOOV8y1qOOemMs2JAKied3c/0gVANgv1UlayLiGkJ1c93/kX3M7EppQkIOB/dueg6K6ZlRD973Z7lpJQPnHXr29Ba/QAnpqWa/x77Amf+HzBkv+jzwLy8888Xy2ssISQ3z7/wMqAvpRG5xq0vR/vSZctw970POBZCCCE2vXv1iryGRuUatz6udkIIIYQQQkhlQEWlxdovgR+PAr5cAwir3pPfsbNchuV9hgHH/wTYalvlaLMUkDCOPavsybKsCtcZpWFkPzW+o0gMKBRVv6BdjwXAVlSq8WUftTB3/p6ML2n3M8dX/WS9WpNuZ83fP17U/P1+uffLn4e9ruWfAxNeBxbMyX1+WC6/cufNgPtfADp3sSoJIYbvHjAciHjtVGq5d6+eePQRqioJISQf+x0wPPIamtRyr1498Riv/YQQQgghhFQMVFRaPHKPdFZq9Y9OLJdfefsdgP+7AbjoSt9J6SlFpGwoPzBLJ53jdNMDWXXwZJ3n9DOxKdVzzNSbfvJ45qGya2Wm7geIyFiVrsozNP+IfnD6yXq9QRI5v3BMTs+9XazVT9ttxaVOcr/8egDo0Qc49lTgqJOA2h75zxfL5VNe+6W81hJCwmg1JdRLxqZSy0uXLce7jFVGCCF56dOrZ6Cc65qa1DIhhBBCCCGkvKGiUpFZDvxolHK0kLKlcxcZh/LwE3znnp/c2JSOslGNYWI25uinGxpnnXYGen4/U47ol8369aF+ejw9vtVGNguqPAv2g98uX79Qm8h+sr19DN03qOCM7jdlPDB5LLB+vT8OKU+EAB58Aege/E6NkIrnxJN+hGXLlrvVFc9u39kVf/tr+cVfI4SQ1qLc/n/wuk8IIYQQQkhlQUWl4rEHpPNFq3+Yl19++PHAbf+RuZf140n6DjbHaegp5aH2IXoqlmREbMfo2JR6HH0cy/kHSLWj3U/HeoR04pl+Iaehnoc/FqAWao5VZD9PrtM/VnQ/szdOP12n8aw4nXoMWE7KfP322Bf4yXnA4N2jzx/z8smhrrmEEJ8XXni5rL5kbk2WLlvmVhFCCLHo3auXW5VoevXmr9kIIYQQQgipJOioBLDsc2DMw/Kx8aUoW1ROe3R9XO177APccId0gnXuIhWLxnHnwagRPe3Iy8o2WV1v1RlnneX0yyqvZFS/rNUPqp+us+eRVeN4avLZrO/s9FR9oJ8zlhlH9ct6ntNPtYvoJ+fsz8GvD++PPVaudfrJGj/Hvgb6AejUBThoFHDcj9QteYs4v25Oe3R93OxjHpbXXkKI5L33P4QQgikiLV++Avfex1hlhBCSi969e4WunUlO5eZ4JYQQQgghhOSHjkoAjz+kVD6u6idHoj1cF0f7FtsCF18O/OY6YPsBlgNNKfwAXWfFYtTOQciYiqZO91NeFlOXhX9b06h+ABC4TaxMerKemQP8ftqxo8Y3/dVY9niyMqz8hCfMOmW/4Dx0Wd7F1l+XHWsTZm6WYlTX68221hm1r3p82Uf1c9YZ2lcAvbcEvncycMiRQNdu/rm1z2+uRHu4Lq72x+l3IMTwwot+fEoShvtDCCG56eXEqEw6P/3JqW4VIYQQQgghpIypeEfliqXA04/YThOmckh9dwR+dh6w9zDp/LIVhVAOQO18MwpCS1UI5TSzlY2BOkvZKPs4/VQKjG+rHZ2xoI5hjxU1L7ufduoF6qx1BtZtzUvPyZ6X28/eH/s4bj93PbZKMpdyMmut0/Qz65Tja/uAQcAPz5C3hXXPMVPy09OPyGswIZXOCy++ElKTMAXT8uUr8N57H7hbRwghBMBu39kldN1Maurdm2pKQgghhBBCKo2Kd1Q++d+gyod5svPNusp8wRzg6v8D/nEjsHypdIoAfkxIOyEihqJ2TnqQfwL91FjIo2zUnb0sgspGNb5/bKufOb6eU3he/vG141AmXSmbhudl+pl1y/E1pp9Wluo6p5+el+mnxwocX7azlZPSpvrpOaj+pp8Ho+jUdVD1Q/YBTv65dFxGnXfmyc2fVLfdJqSSue9+youL4V7uEyGERPKd7+xSNqrKUSOHu1WEEEIIIYSQMqeiHZWrGoAx/5WPfWcK8yTmHTvLmIa9twJ6beFh401k/dhXgPNPAx59AGhqshSEHiJjU3q2QjALeI6yUdY7/SwloK4zCkLY4+vj28pIp1+EQlGrHYMKRb8fjELRGr+IecFydHqeLHvWWFHzyqp2up9s4++rrZwMjGX302s08w3Oy65ryqp2ADbbHBg2Ahh1rIcefYLnn3ly8zH/lddiQiqVF198BcuXrwgpSpjCafnyFVi2bLm7hYQQQgD89Menhq6bSUwjR9BRSQghhBBCSKVR0Y7Kpx+RzhAodQ9T8tJGm0jn5DZ9gc6bASIFdO0msE1foHtPQFTJdo//G7joZwJvvSrPvXQEhhWEWQ+yg3YUWspGU+cqCFVd4diLsixUTEjTDyI0ljsvQMhYmNZYpp8zLyFsJaacl+zjj6UdmWoZvl2NpTfYrEWNFRxHjeUoPU0/a6xAPz2WNb7uZ5zIgbGsfQSwxdYCR50I7HeQdFC7zwmmZKWsBzz9qDnhhFQc733woZIZI5wjR32F2pctX4EXX1L/yAkhhAQYOXK4VFXmuIaG8hjay0kZSgghhBBCCCke4XnSlVBpNDUBJ40A1qy2nSLy4xLLySj36AX06CnVeYCAl5W5Vu95HtC0HshkgNUr/f4DdwGOOxnYYSdZJx1qUt1nnIGQdYDltFQHznpe0Gmo21ljBfrlGMvzPMdpqeaT9QBVD6U+LGZenvoTGN9xGgr9WOUCUrWox49en6yHNU70+E4/tStZdV48ez2B9enB/Xl5egBn3e68mtYD09728NF7cv/zPV9Yjm+56+bA/14CqqosIyEVwkGHHC6/pPXktZ95/rxXzx54+N/3uttICCEEwI1/ugUvvvxq6NqZlPzhh+6ho5IQQgghhJAKpGIVlc8+Dqz5Qn1TrmKlCfWY5XiXq2uBHQcDvbeQCspUlUBK5SIF9VimDhsDPXsDW28HdO4i+8/8ELju98Do24D6tPxcHFIeqroo5WFUjEldDtiVEybXWLAVhKpS2n0nnqzOEeNSF3W/qPHNnGRNVttVXTbrjw9rruZ2sFa9rfKUODE07Rid8MeX6k9TJfs5Y5k9sMaSyZqv5bTUpKqAIfsKHHMSsG3f6OcLy/Evr/lCXpMJqTSoDmw+y5Ytx3vvf+hWE0IIATBixCFuVWL4zq4700lJCCGEEEJIhVJ15ZVXXulWVgJ/vhpYvcqtJXGmcxfpcOzRC6jq4Ds5NNrx4UEr9jyIlIAHDx06AJt1BTbaWODrr6WidvFC4JXnZL8BA5WPTDnKtMISlvJPKxmNs0x5zLRi0PSTswn3ixpfLUA66vzxZZ0sy5iPxY0vy1Hj+2VpV/0C67PaCX288PztOnh636zjRYxv9/M8wAvUh8cKzNMa34sYHx6wyabANtsDNd2BL1YD6xrlHpLksHwpcPSJbi0h5c3lV16HtWvXyrhcAPMi8+UrVmDEYYe620kIIRVPr149IYTA++9/GLp2xj2/5S9/RJcuXdwlEUIIIYQQQiqAilRUTngT+GQRpA+HKfapw8bSCbXjYKBrN18tKVJKUakUlLpcVSUgqoBUBwEhgFRKQFQJpKoEunaTyrvaOtm2KQs8/jDw2wuASW9ZDjs4sRFVna1I9CxFoqpSfYKKSNPPGcv0CxxTIuuksrGY8YNjR43vx4QMjOXEwjT9nLHc8QNzUuMH51nE+KouNJbtrM0zPtT4/jyBLbcGjjgW2GNvGb/UbANT7NMni+S1mZBK4cWXXsWy5cshf2UD9WIAy0WUly1bgWXLlqt6QgghNj/+0Q/Rq1cvWYi4hsax/OPTTkGvnlRTEkIIIYQQUqlUpKLyX3/18Pmn8kORME4PCcvxKvfZAui3g4fNugpA3S7SxDiEh5QQyFo9hPnwKwcTQg1q7LLcsZNUWGazwFdfA1+uAaa9DSycC9T1BKprpAMMxjFnlT0YhZ+IUAYaJ5uV22MFFIS6X4SyUU+8mPH9sYsb3+2v2wmtZMwxPpSCVDsT3fF1yju+NU9hOXELje+vJ/f4UOPX1gH9BvgxSjXu84vleJUbG4FDRloVhJQxT4x5GgsWfiyVJE5KCfkPzK2nXabGtWvRpUsX7Lrrzu62EkIIAbDffvtg4sTJWLu2MXQNLXSNLbV95IhDce7Zv3CXQAghhBBCCKkghCe/3a8YFs4HzjxVfkEOyG/KPY/luJVruwNbbQ107CzLsJxZXlY2lWpDGXdR2+36QFk99qyyHq9xLdCQUbcLVccfdihw5HFA18394+v+9nz0cezH+eoC/ex2hcZXxtBYshg8nl5/MeMLq32B8XXZbaP3P+f4drnAWKE6qNib8mHgeJHj6/VYY9VngBnvAUs+z/18Yzk+5TseBLbvpysIKV8OGX6k+REGhLpgsVx0uVePHvj3Q3e720oIIUTx0suv4YEH/oNlK1aErqFxKfNaTgghhBBCCEElKir/+wAw6yO3lsSFzl2kEm7LbTxstLFlEMJ/6Dxwy4Afo1L289wGfkkAG20EbLY50KGDVFdms8CihcDYV+VtZfv2k5+oPfWZ2lY2esYh5sSAVHWBdqqc9WzFoPYG5hg/qk6V5aqc8b2IWJIegBzKT8/zt8e3R4+fdfrpob2s3Gc9lq1sjDqeBzmW5+UfXw4Qrs87vnJq2uNv2lHGNu3SVcal/eZr9QQgsWTjjYGhe7u1hJQXL738GiZOejuoMoGjOgFoz2Nfu3Ytdt11Z94qkBBCctCv7/ZY29iIDz74KHQNLXSNLYW9d6+euPnPN6BLl87u1AkhhBBCCCEVRkUpKr0scNxIeZvPnAjLrxUF7W1ir6qScSi33Fo5myxnlWccUrJtwGY5v0xbq3+oHwDYcQ3tcVS5Pg001Ptz67OFjHu425BgWz1mvjpTjliDvbaC7XRZ/Qm0seusx5FjuXmeueesc46jx9P1ofGj6vKNr8eyxrbzvHVQ59ey22N7HjB7BjDzQ195GyDH89NAe5vbu3QBnnhRxpAlpFw59bTTsWz5CvOSYN6y/Du77Iw/33Sdu72EEEIsHnzoYdz/4MOha2h75j179sCvf3Uhdt2Ft/AmhBBCCCGEVJii8uXnPLz5mlRimTvPMG/3vM9WwM7fkXEhhZDnSggAwndWmLIAPM9DKiVjUwoVq1Kojva4ur3JtV2Na48jPzkLCBW/smtXYP164JtvgS++AKZPARYvAnr0Arp2s5xjWrkXpSj05DFlW1UH+1ar4XZ+e132ZHtr/KynFIzSHOynx4mYh61MhL4Fror5Gax3FZKyXeT4ul3U+Pa8rHkGxtf7oc6bXJ8cWw4Xse6o8fU4jgJT2+28prt0in/7rVRYqsMwj0n+9ddAr95SWU1IOfLyK6/hlVffAJSqhPmG5MB+++5NNQ4hhORh1112hhACy1esMDEro6+ppcl79eqJhx4YTUU8IYQQQgghxFBRmpVXXxZh5xXzdsu71wFD9wEG7gRssqm8zWoqBaSqpCPRlFPBclWVAARQlRKqXkS2S6UAUeWMGyjL/lUpIceokm1SKWDjTYHeW0onasdOcr4fvQ/ceA3w6H+AtWvlc8qDMLdxhXaYhZyUVl2gPtxOOunUExayDSBUQXcXwTiMymlnxrfnYcaBvC2sdTyY+J5qfFPvrkc6Nc28rHmY9ahyYPyo9US086z2/iFyrDtwPGfdKhNOO8+ag8437QjsPgTY/yCgR8/o5yfz9stffVmdYELKkPc/mOFWxZJfX3KBWxU7li9fgZdfed2tJoQQ4vCjU3+AX11yIXr27OGaSsquuwzGg/ff5VYTQgghhBBCKpyKufXroo+B00+RX4Qrbwbzdso7dwb69peqKQ+A1ySVckZp1yTjIxoHkxV3EfDjEELZjbPLGseDewtQ6dyLGidUVvPIqnnAA1atEmjIAE3KQdixEzDyCA/DDhWBGI1aCaidZXJ8Ty7czNdfn2lnKQjtdhDKKWn2Q40fEXMS+nh6/fYx4cdstNvpeet2EEC2Scf4dOZl9ks2lOMF55VzfLW/EFJR6e+PrxgtZt2hdvY89HnLqvlni1/3J4uBOTOBxnWyLup5y7y0+eiHgG23k+eWkHLisFHHRD3lY5WPGH4wTj3lBzjtJ2dE2uOU9+jZAw/ed6e7zYQQQnJw81/+hpdeeT3ymtqW+YjhB+OSX8b/RzCEEEIIIYSQ0lMxt3598lHgw/fVJyUwb49cpIABOwK77Q5s1lX6nGQSgABS6jZuULcGEkJApOQAuq0ezzxOyUwIyLYpOY7uIFICAnJ8PQeh55WrrObjH1+gY0dg826yzVfrgPVNwOyZAh99AGzWVaBHT+Xo0wOpD+TSGSbHk445SLWgJ+cly6pO9wu0k+s1Y0W0c49nxjLj+MfUQ/rtZAPdDtoJ6o5lxtFjqa7aaRjVzlFqqi7BdWvFqLs/up99zELt1PGMk9XuFzUva91duwHb9ZVjN9SbLszbMd9sM2C3PVSZkDLh5Vdex6RJb5uyiH76t7v9mGOOwq67DMaKFSuwcOHHIbsmV/9S2teuXYtddxnc7iohQghJCvvusxd69uyBhQs/xlp1m5hc11i3viX2XXYZjF//8gIce8xRlpUQQgghhBBCfCpGUfmj7wNLlsgPS54UVMFTH55Ybvvy1tsC/QZ46NRRKSfVbTsFhIyVqNpB3S40X7lJKeayWelpMuMou6fa5yprxV2TUvbJ+YT75zr+uq+AlfXAmi/99e26GzB8FNCnjyzLZCv7rHloxZ/dTjvvrDo5uh/TMqvbaQebXVZ1gKOIhFQQBo+n1qP+6ON5Hpz5qv2x16/nb8/XHl8dD45iUSsbA/NV+xM4/7n2R1jnxx5f7Y89vj/f6PlHKTXt8des8TB/LvD55yLn85nlti/36uPhoUeEPFmElAk//umZWL58hVsdO+6/91/o2bMHPvjgI/zfby9zzbFjl10G409/vMatJoQQUoCH/v0/vPLq623yv6lnzx645OLzscsug10TIYQQQgghhASoCEfl9KnA/13s1pJS0L0O2GFHoLa7dEDYCdqxpR8XUbadidpul6Ha5yubeIvW+IXKUfNZs0aq777+2iwXBx4MDB8BbLJJeA72XIqpM7l93Ij5tLQO8qHfJuLYxdblteWZQ7F1kA/DdQWOHVWXz2bGB5BeAcybC6xeJe2k9PzpFhlLlJBy4OVXXsdfbrnNlD3tnHfy9rYPH34wLrn4fEDFgDztp2c2q3972Hv17IE//fEaqioJIaSFfPDBR3jltTfwwQcfYfnyFaFrb75rsGsfPvxg7Dx4Jxw2/GCrByGEEEIIIYTkpiJu/frwvz3MnWN9tMr1SYvlVit36gzsvCuwy65Ap07SbjeBvpUrINWDKQFAK+k8+HcNVQ8CnVVfXed5ECkBD1qa5RmbJ1uH+kP1DxxGlT17PGN3JwBsvLG8HawQHtZ9JRV+iz4G3pkEdNgY2HJLuTG+I8wve5CT04o+KIWirrPbacVnwJGm4lya8XU/S4kYGt8uW+2yzvF0XaCfUnQG28lyNuvBM3FEVcxJa75ZLzgvM741/0A75UiWa5QxQD1r/lIh6Ss6ZUxSKcnzIBWT4flb/az5e1CxN83c/HYdOwFbbCnP8+rVQFMTJHLZPiy3WXmTTYB99rNshCSYMU8/h48/XiRvKy7U7cmtFJfyMd87En23lwFiu3TpjPSKDBZ+vChn+ziU165tROcunbHLzlTtEEJIS+jZswf23WcvHHvMUejZswe6dNkMm3XpAiEEunTpgrVrG3Neg3fdZWfsssvOOOvMn+GSX16AfffZC337MtA4IYQQQgghpHgqQlF57JHAF19YFe4X4y60b5B94EBg4E6AUD5DwHYEyf6eVaft5hagzq1SQ32t/vZYUIrLwK097Xa6HLj1p6wzdjc5tlzzW79eqitXrZLtIYCttgYOPQzYYQdnLvaYUXWqv+fM220TWWcqg2U7L1jnzCsyj2pTxPwL1emyB6eu2Ha6jSz689G2Yuqy/vx13fr1wIL5wOJFajJ5nv+0t569a1fgyWfdBoQkk1FHHOdWxZIXnnsiUP7gw4/wm99eHqiLIz179sB999zhVhNCCGkFli9fgeUrVmD58hXmRyFUsRNCCCGEEEJai5RbUW5MmgCsVk5K5XMwaj1TdnPao+sL2LfeBhh1BDB4V6CqChApIJWSTgchAAgPqRTgCU/20vWQuUj5eSpllYVVTqlx1HjaoSHHl8JM3U6kVNmq0/3MOPoVoPrrcYLtrTGFnL9clyfL8NChA1DXUzonO3aRQ37yCXDvaODfDwErVlhOtKx0qGrVn6frslJl6EE5Q5XSL+tJz1s2q5NqZ/oFnWpZpTKUSkflvFWxPc3xrOS2C8zLTdbcTT811yZn/mZeaq6hdmb+6nh67h7gZaWyUdcF2qk2+jbA/rzl+pvU/PXx9XrkvvjtTD+nnaduDyyVrLJdKgX06w/stTfQXX0no4YJ5zleH7Q33/7FF/IaTkjSeeXVNwJKlLimqNv07bLzYOy6y+BQ27ilFSvS+ODDGe70CSGEtAI9e/bALjsPxvBDD0bPnj3opCSEEEIIIYS0KmXvqBw/znI+MW+TvHsdMOxgYL/95a1QUykgVeU7F/1cQAigKiWQqhKyXcBeuCwEkKoSQEqNo44VOI46dq5yVZWcRyolACGdqkF7/nKHDqpfSvjjpaRTs2MnYKutgF695S1DIYAPPwBuuRl46UXg2/XSAeN5yiOjvDMeoG5zKguy7LfzrHbI0U4n2U6dHNXJ9NN2ywnottO3WTXtAuOqdp41vj2vwDx9Z2D+diKinX9L2FA7v5lxOgKykV6Prpb9ZT+3nd4Du51nzd3up+s6d5G3NB68C7DZZsHXAfO2ycePMyeEkMTyn4cfcatiyeDBO7lVAICdE3JL1f/8539uFSGEEEIIIYQQQgiJOWV/69fvHQWssW/7SlqNTTYFdt0F6L+D9Phox4/nQTrXzGPXZjnAINVz0LEO4dthOauMwyqi7MdwtMYx9jxON/U4m/UgIEwMxqzyhvnz9dciy77NLpt5ZFWsTAD19UB9Rh4PADbrChx0kIchQ6Xdn5OcswjEcpTj2e2gjpO/nZpHYJ1qfCu2o+lnr1WPb/bejyXpnzc/5qRdV7idPJ7eZ10ni+F2Zk4R7TxPTVrPE7JO6PNn+gfbyf1QdjVPjS6b8dV67LrgvgOffipvB2viV5JWZ7PNgKd4+1eSYF597Q3ccus/3OpY8twzj7lVAIDlK1bgZz8/x62OHT179MDFF52LnXeOdrgSQgghhBBCCCGEkPhR1orKd94B1qxRPhymVk2DBgPHHS9jUUpFoVZJymQrIoWjkDRlrVTUikTVX48V6KdUk1Hlqiohx9JKySrd31dt5pyDVkSq/mY+9losxWYqhZzlKtVfqHkAQG0tsN32QNfN5b6tWQM8/bTA3aOB+fOVgw0wG2ucYKou4DwzzsRwO9iOtpCT0hrfqbPH1UkIX1loKzPtOjN+s9pphaLdTuRs59bZ7eRacigg1fzddnDHt+p02R8+Ynzh99N1W24JDN0T6L2F2WKmVk5rvpTXckKSyocfzjQ/XgnnqlGovvT2Qw85SBXC9OzRQzr/8vSPzktrX55O48OPePtXQgghhBBCCCGEkCRR1o7KSROlO8F2SDDfsHybbYCjj/Gw117AJpsog44hqW7XqJ14uuzHgpQxHXVsR+jvFnU/OxalVfZMez/GpVDHNf11WfWNilUJWLEpVRlOfz1mSshXhz2eLgOyvyc8GSczYh3m2ALosBHQqxfQZ0sPHTvKfVy8GLj/fuCJx6XqUjsJs1bsxWCdHxPSrtPtdOxFTykidZ1sa/XLEaMxm/X8WI5WLEzdTtfZ4+Vu58d6tMf3rOPmaqfnma+dG2tTr8Mtu+2arMfQ7eC308fXMS49z4/J6bkxLa1Ymx02AvpuL28J261atkWO1w/zluWTJqoCIQnktdffDMVT9FMqoq597IceMsydeoBddo6KU1n8+NGp9e2vvfamO3VCCCGEEEIIIYQQEmPK2lH59jvSA2U7kZi3LK+pBQ47DBh+GFBXF1RMaudi7rKAUDEhZX1Q6Zi7n69UFEopKazYkG67QuVAbEpLAZlKSVVkld0+R9nMw8TIVGpO+7gRZZECunQW2Gpr6bTssJEc64MPgL/fBrz5pnIgKu+Mdo550H/kyXDr3HaeqjdOHqedrPSdlabOHV/Vue3s8e12sl7XqbI9N1VXqJ1xEDrtdCHQz8zHdyLa7fTta+12gXHVPgg9vrE769H7pcfXD/XtalV5sy7AwEHAgAHAph2jX0fMW5ZTUUmSyqvGaeZchDT2hStQ1tWlsxe6XeohhwzL2z9Y1tWlty9fQVUlIYQQQgghhBBCSJIoW0fl3LnA0qXyqyumlqeqDsBeewMnnChvYSpcZaQqA0pdKOT+ayeDdjQIS2Goy76yUve1jqz7q7F0XzhjyXbWPFRZKx3NODn62vPwLMWlLAXnYfrnGMueh+wbnocHYLOuHrbdDqiu8fd57FvA3/8OvPuer5x0FYxuXaF2RglotWuKUE5qZaBbV7idJ1WPnspVnW5n19mqxOh2cj3Bdur4drLa2XWR7QJ1fr8mtTdmfVad3q987QJ7E1FXUwvssiuwxZb+OWfasLRkqbymE5I0Hv7fo0HlX8pRAKYcZWA72Q895GB36iF69qjDLrs4qsoixy+1/eH/RsfaJIQQQgghhBBCCCHxo2wdlVOmhJ1UTM1LOw0GfvQjYPfdfXWgsJWIlkKxOTEhfaWhNY5WJ1rxKfP1NWUnNqW0+UpHt21UWc+jqoMArPUE5pGjb2geejx7TaG2sl33OmDb7YDNusr9XrUaePY5gX//R2DxJ/J5LB2PTkxFVReIveghFFNRO9KQI2ajXafHL9ROHkfXaUWh3U4+eaLauXVCKRJlnX7i2e2Cisii2pkUjksZVRfYV6NkDbfT4wJ6PwvX9dlCOiy715ltYdqANGWK3mxCksFrr72JFSsy8jlsEyjL/zsB2sF+yMEH2pU52XnwTpH9A8TATlUlIYQQQgghhBBCSHIoX0flVP+xcSawXFR5q62BE08ADhrmoXNnGKWggFZSKpUjLAecExfSLuuYkAJasaj6WmMFYko6ZaiYkLZi0fSFyiP6uWV7HKg4l74aUmaplIpFqfpGlT2luAzshxpLJ93Wnocum3nAw8YbA716A1ts4cf8XLQY+Pe/geeeA1avVufHU/ESdcxGq85WOtptbEWkrA+283RMSKcuPJ5SalqKSE8pG3Wd7Bts52XlHI1S0dNqTEcBqRrYdZ7c4sh2pqzsgWNGjaeOZ9fpfoHx9PxNO6ts7ZWJfVkgpqXnARttJOO6DhgAbLaZPL+ezAwsF1e2r+mEJIHX3xjrqP0c9Z9J7W/fefAgd/qRHHLwgZH9C41fans6ncFHH81yp08IIYQQQgghhBBCYkhZOirXrgXe/8ByQFnOKJZzl7tVAyNHAscfK9Vg8ks/qTAUQpYjVY15yro/hK3ADLYtVK4yykbV344tmadfuCxkbEqldNRz1LEohVI+5i2rGJmpKgHhxLgMrD9fuUrOw8xBAJ27ANtsC/ToAVRVyfPxwUfAv+4CJk6UzhqdAHk/UbusnYLaqeNBAJ6676jpG1YeGqegM75dB6081IPrsULjBdvp8QGrzoMc36oz45vjWQ5Fq073g9NO5/6Y/vjSbCk37VzbrXYaeVx3fXJOOqalrgvvlz93TZfNgH79ga23ATbeOPr1x3L+8vsfyGs7IUnhw49mqkfOBSJwdbDK7WQvVk0JAD161GHnwQOd2vzjt5f9tdd1fFBCCCGEEEIIIYQQEmfK0lE5/V35NRVTcQkC2Hdf4Kc/BQYOVA4CBJ2NQviPYZSRUTEmgw4G088aJ6yMDMenlOM6Y+UZJzgHK7akUMux5u+OZdajxvEi1qL3BO4c3H1QZXstpq+zFq3U1O08AJtXA9tu56FbN1luygLjJgB3jQZmzpTOtSYnJmQ26yHrxH/0PITq3FiStiIy0K/Idm6d3a5Jly3FolYiyrk47ayxjGLR1Kl4ltZYueqyygHZvHa+vcluo9rZdW47ez1N+tyYdfp1nmpbXS1fYz16mGcIUzPS9HfVa4mQmPPf/z0eVvzFtHzIQcU7KgHg4IOG5R0vLmWpqtTOYkIIIYQQQgghhBASV8rWURlwMDHlTIMHA784Hdh3H1+BKBxFoltOVQmkhFQ6QikmdXLbRpUDMS6VslD2VbEhdduqcN/QPLQyscqKcenOI5+6MQWkOggIvQ41TqR6VM3HLduxKaUTMhjjMrKvNXaqg38sCBkrs66nvGVo5y6ybuVq4LkXgcefBJYu9WMhqhvYApb60CgBnbpgu9yKSPnkyN/Og6Vm1OOrmJOScMxG6PGjYmYGFIhhRWTeOnOMYGxMXSfU8ew6WGWjBFWVuk7P328bHdMycj3mWLJO9/NkET17AQN2ADbvZpbCVESa/p7ZVEJizetvjLV+cSOfwnEtDy7ytq+anQcPyjtenMoPP/K4qSOEEEIIIYQQQggh8aQsHZXvfxAs+w4DlnV5qy2Bk08CjjwcqO6mHGgqlqKwlIq6bMd0FEJ+CyhUTEe7b0o9lsmTzjd4AKTqUH+P6LdRfbXjzi6bY8lxBHyFolDHh1DOPl2nnX9WWa8jrOS05uP0s9cF+OvQ8xFKcWmP4/bLVbYVl/r4egwZu1KyyaYydmXv3up2oSp+5cOPAK++Bnz5pRzGs9SIWrnn10mFH1S9rQwEtCIwWKfH0nWeaecrA3XS49t1tiJSj2/s+raoEePrGJdZS60IW4lpHdMeK6tvexuo88x4tiIS1vj2eIX2R8/f35+gYjQwLydpu056PRtvJF+HW28NdOwox4Z6Ztiw7ONe2wmJI6+/8RbS6Yyj8pMpFVHXnvbm3PZVI2//ulNo7Kjx3VRqezqdwUczqKokhBBCCCGEEEIIiTNl56isbwAWLlI/p7edUSybdOThwGk/ArbbLofCz4pNCUsxGdU2f9kfx1dP5mobXdbz8efh2/XjnGWjyHRiXBYax1JyplJS4aj76XH0GIH+rlLTVXJqxaSjuKxy1JamLORzerPNgG23BbrX+fUfzgDuexCYOt130AG+M82vkyfdc+qM48w4gvw6WHW6INtZykqrTrdzx9L9oJ2TfgN/PGf8rO6g2shyUNmIiJiZytdo1QUVkbpOj6+nItuHFZfu/gT3Rc7V7I+9Hmf8rD9ocHyZ+fPL83pl2X+88GN5jSckzrz+xlv+a1vhXzuCucatL5X9B98/Xj1qHgcddECg7I5b7PE1bn1r2VesSOOjGbNUiRBCCCGEEEIIIYTEkbJzVH7wofyCiil32u07VsnEV/SdAiZpB5tdFgBgxag046j+apzAWM4YdkxHXfbno/ojPBc9TuD4qgyhYks6Y8AcMziOXZaxLf1xAmPouVjHzzkfS3Ep52KNYR/PGcezlZqqbOai1wGgphrYdjug6+Zyt75dD4yfBDz0X2De/KDy0Kj+lMPNrmvKhmNOakefrgv0sRSEbp3nRcTCzOaOmdlkKy7VOLoua82rKSJWZVPWOq6pC8egbIpYj2nnzjXQTikwA+389TTlWI+77lzt/HnK4677Cvj0c2Dxp0DjOjkPpsLpgw/91wQhcWTGzFkhpV8c086DB6FHjzp3+kUxeKeBofHimt54c5w7fUIIIYQQQgghhBASI8rOUfnRjKBziCmcZPzFiHiOlgPOVgG6ZR2LUfb11YW52gfKwoot6ca4LFJ1GYhxacZTazFxK3P3d8tVOpakPU6OtvK4wXJVB0uxqXI5F6d/jrI+vr0efy6yHZRzNSo1rARefAV4/iWB5ekI5SQiFJaWWtCUoxSEpk4f0HYaFRMLU7Uzx5LH0w5Cu06PF2pn1XkeACvmpFmPNa+o9QDSM+y2g1XWxxeBdgKeFYNS16m7zQbqotr5x4JcD+T8V6SB+QuB1V/IaQzoD1z2O7McpjzpwxlmQwmJHf975AlAPV3jnh80LKiKbA49etRJZ6UqxzmnqpIQQgghhBBCCCEk3pSdo/JDNxSR/raKZVMOOCTdcgrSZaQUgqkUVIxKOZRRAqp+xulmly2FoC5D1YmUmpLbX8/FKgsdG1IpJ/1xrbk4x5bztZyKWumo1iHHC67DzCXHvkCoWJ3Wvpi+aj1mLtY6Av31vpj1SJdeYC5Qzkt7Lla5YSXw8SJg9erg+dQsWgw8NgYYN8HDunW+o844+5RS0NRlZb/IdlqhCKkMhNVGKy7dumxWuuT8Ov94clxl0/XqeFp5aNo6MS31nGwlpZfNvZ5AO70eNY5pp+cOS/0Yobj01IJkTE19LLUfjsITedaj26xaDcydB6Qzcq5duwK/+Blw47XAgAHB8wmwHFX+aKbnVBISH958c1xI0RfXNHjwQHf6zeKggw4IjRnX9Mij0oFMCCGEEEIIIYQQQuKH8DyvbL71/eprYMT3lHdAMM+VX3Wp3C/jDPLCZdtRhGLK8B1R0A4hPba26/aqXc6yPb51HDNWvrI1D1NvOb7MOlV9seWsPpY1fs6yyu11Nau/U169GliRBr7+Ovp8RuUbbwLssSsweHD0/trr1MeB2iNPjePub6Cdmqdp55Tt/TbtdX+7ne6nmzrHM3XW+Pbx9SHseYaOa7dzyno+dr+869XtRPA82f2ijt/4FbBiBbC2UbUXwNGHAycdD2y6qWz+5Vrgx2f4dua585eeBjbdRO0zITHh9Tffwj/+cWfUUzZ2+cHDDsB5557hLqFZrEincfY5F0eOH8f8qisvxeCdNsw5SwghhBBCCCGEkGhWpNNYsSKDdDoND0AmnTGfyVesyGBFOu23XZEJfXbv0aN7YLwedTJcTY8e3dG9rjt61tWhrkd3U0/Ki7JyVL77AXDhr91a4nLNZX6MQHn2/VtlAkFnkecBXlZeMrLKQ6MVd9oOD+a2mfKxNbZbVoo3QISUaB7ULUPdsZ2ynkc260GoefnjB2/7afpbZXN8T/W3FHfwlP4z4thy/OD8hVD9LbvsY63FnYtqY88/aj3r1gksXwF8sUaO2xJqa4DddgW22UqOCaH3R0/KX6+n9sNer2ln+qk6CMDZl8Aa1Rog7H2Q/ULtIOcRaKeOJ+v8fsE5qPlbdSIwz6h28njC6ReYJ1Q7z5qXqtPjmHmp8+/vh9/P84CmJmB5Gli5Uk0DwF5DgJNOALbd2j++5wmsXevhJ2fJcUh+/noTsNsubi0h7cvlV12PmTNmqWuMunTGND/vnDNw0LD93SU0myuuuh4fzZgVGj+O+bBh++O8czbMOUtI3FiRziC9Ii1zfbsG9QVBWn0pkFkhvyRIpzOoq+tuXhc9etSZ14euHzRoIHrUdUddjzr0qAt+SUAIIe3JG2+OQzrtf/EpACxPyy84V6xIm3LPuu6Ba1zPuu6oU19m1tV15zWuheiY3+m0/JI5av/d/zXde9SZevs87DRoR54DUjL0e6UZM2ercvTz175+5Huv5AHYqczfL61IZ/Cmes1/NFN+1luxQr63tF/fer/0fuzEH4VWFPZrS3/2KPV3A3V13dGjRx3q6rrzeVgmlJWj8j+PAnfco56xudDP6FxUgP3ay2Qb46iBVYbM3bKps8p2gq53++cYX6vRco1txnPL8JVt+lac7rEix9Nl3V+Vs7aKUtW547llM54uu4pFd20Fxvc8awwATd8CS5cB6XrZN0AR5zfKvs3W0rFTXR08PvR67PlHzFMVzfpMWdvtNvnqFGb9bp01H/v4VpXcX7tOHcsc0jq+3UaPa+ehOrvebhc1L7dO91f7U18PrMj4z7FttgZ+cLx0VOp52s/hL9cCPzvXP24kOc6voULsZ/0c+OGJrpGQ9uWE7/8oUPbUUzYX7Wm//R+3tMqH6hkzZuGKq653q4ECx0c72HvUdcft/7jFqiFxRn9Bkk4rJ5xyxunnrf5yRDvWKuEDqftlgP4CKQr3+e9SjL2n2uuddhpYUftMJDNmzDIO8KjXoXZAQH1BScdDabCdRWlLkVBODiD93Js5cxZmqBjTK6wfYqDIa1gh++CdBvK5G4F+js2cqa4B6nVvU8z+FmPX/1N4HkhrsCKdwYwZswL/t/Q1xKbY52cuXLt+zurnb1LfM+n33v979Ilmrd+mR113DBt2AIYN25+v5TLDfn3NsP4/u+R7fqCEdv0aTOrrsZIpK0flFdcDb4yznpnMI/PrL5cPjTPHdrpoxaGlFNOOG9fBEyjDdiD6/aViUdphtQuUnfEiFYvIoVCMGC/bZB3fWkdgPYi+Jao9vqfXocYzZX08t3+Ost6PwHjWPOz2y9PAkqVAk3KmRp2/Dcl3GgTsupOHjTYWeW9l6sFfv70frmIRAvD0/kS1g3peqOO7+xtsZykbrX56/8z+WvMy81e5Z/bdUpCaderz4K8T9vlx52WdTwjXAS3Hj5r/mi+AFfXAV+tkv003lgrK7x3ut/O0ctd6vHath9PPl+t3zxvzYH7QAcBVv5fnj5A48OhjT+KRR590q2PJsGH749yzf+FWt4h0OoNzzvulWx1brrzid9hpED+kxJV0OoM3x45r0Wuprq47Dhq2P4YduD/qyuSLEb0fADBjxmzMmBn9hUApkWqkOuy0044YNGhHvp7KjHQ6g0ceezKvE7wQOw0aiBNPPIbPjVbkzTfH4c2x45t9Ddhp0EAMO/C72GmngbG/Lr755jjMmDXbfAnaHuw0aCB22mnHsvo/Uix6/zfktd9a6GtIjzqpkCEkF1rdO3PmbKO4jhN1yjmy08AdUddDqr3iSDqdwT9uv6vZ/2MKwfcDySatHZOZTIs+m8UN+/U4rBXuLEXajrJyVJ78c+DzpdFfbDP38xuukI+Ng8Xzy1n9WNUbmy477SPLAYdO4fFcB59uF3KcFdnfdxA6/d1yMePppPrDnqc7nlvWeZNfdvvr8srVwOefA2vXyf5R56218k03BnbZGdixX3CeUI7BwPx0DEprH+Dk9rqg+qmHZty87Z191/0CDkXLkar72eOZdlY/T/ULPT+c4wbWaZededvHC7RT9d98BSyvB75Y7e/3yEOBk44DunaV5azaR/uxPs7aRuCMC9X8Is4bcz/fog/w8N3yPBASB84575dYoW4fFPGUjVV+ztm/aJXbvmquuOoGzJyZjFveDh40EFde8Tt3CaSdSaczeGPsODz66JOR5605uXZYnnjCse5hEsGKdAZjx47DRzNmJ+J1pT/0Dzvwu4D6UookjzffHIc3xo5v1efcoEEDcdCB38WgneQv2UnzefPNcfj7P++K3N/m5ieeeCwOipkDznZOxu091KBBA/H9E49BXV15KvxmzJyF9Ar5w4S0FTssbnm5nwfSfPR7xpkzZptbkrrPm7jm+j3ToIE7tupnsQ2hNf/PROVSYbk/vp/Q9+WVRpJfX83Je6hbkQ/mDy9jSdk4Ktd8CRx+YsQzkHkov/EKHZNRAFDOEu1Accoe4MeotJSBsj9kTEfXgeP0h3oc6O/aA7H//PE8hB1NuefjxhnM0d9SXLrzga10jHCwRfZv8vdDttdqOae/U85mPTSuE/jsc6B+payPOl9tlddWA7sMBvr0zKEo1HvpAR485cjM0Q62g89WLnqq3lZKOopI3c5T7cz58sfRzyu4Ckh98IACMqyILG7+6rw22fWF559t8pCuF0hn/P39zi4eTjoW2KG/fn6q54sH81zX89NK37WNwJkXh88T8+j8+UeAzbrIc0BIe/Lm2HG4/Z+jzVNUE9fyP267uVW/qJwxczauuvqGnMeLW/mKy3+HnQbtaFlIe9JWz5/udd1x1eW/a9XnelshlZPSSaTjJ7nrSUIZ+gupA/fHsAO/m4i9r3RmzJyN2/95V8BRoWmt8k6DdsQ5Z/+Cz4dmMGPmbPzjn3chY6mDcu1vc8o96rrjxBOOwbAD2/cL8kcfG4M3xo5r9fW1VfnEE44tm2vam2PH4dHHxhjHsCbf+uNQHjRoR6kOHhR/dTBpffT7pDfHStWk+/xIYrmHiqd34IHfbbfPJaX8DHvQgfvjnLNPt2pJXHA/h0Sdv3Iv688vJ55wjGUh7UXZOCrf/QC44LfKn6CfedKfwLJTvvFKuWee5YgyZSiHk13WbVSetdu7/d2yGs+D6q+UjrCOY48Hd/yI/sYBVUR/XY7qD3c9ecbT7eEoNQF1m9ao/lbZtFfjNWWBTz6VCmDPy3++2rq89ZbA4EFA181knd53vT5zHjzZzV2fWlZQEek8D+w8azqosr2fwjq/ZrBgOTA/ff5Uv5DdKntZud7A/NV+aLs0hI9n5/r5CwCrVsvb9X67Xvbr3Qs46VjggH39uXnWPPW+uCnrAY2NwDm/Uu3znC+WZflvN8i4q4S0N1ddfQNmzJwjn6Qa82Q1FbGwD2uDD4npdAbnnv+roo4fB3tb7AFpGdpJ2Zzz1xx7XV13XBljZ+WMmbMxc+ZsPPrYmMj5WxXJskO2GXbAd9v1CziSH/m/SzrGQ+ew0DlugX3Ygd/FiSccE9vXY1yYMXM2rrrmj6H9K7S/zbGfeOKxGHZA6R1vjz42Bo8+9mTB+cXVrr/ELPW+tQaPPjbGOHlyrc8vxte+06AdceCB+8t4lgk8D6R5PPrYGMyc6dz6Ps/zI6n2urpaDDtwf6XsKs17prZ+Dx5lj/v78kojnc6Y/w2GPOevEux1Peow7IDvls2Pk5JK2TgqH38GuPUOt5ZE8eer5WtTn3n9OOvpmJLSIyAVYEodGNE+VIZ8jZuYkKrSKMg8ac85XkR/PZ+A4jJXf1WO7K/mEervlnPshz8/Zz/y9I+aDzyBJcuBxZ8C33wj7XFh4ABg8EBACDlff22ybK9P53JPZBtZb++P3D93f9w9MwpIqyz/YQTbyO5qXrqdVjbquUSeC3f+fjk016i6iPmvXQesyABr18oqIYAfHAuceAyMgtLznMcqmeeDFXtVq2vP/T91DFKQi84Cjj/KrSWk9Jx08k/8N71urt/8uvXtZD/77NMx7AB5i8bW5Kprb8TMGbMKHj+Ut4O9rnst/v63P7tLICVm5szZuOqaG0Pnp9D5a669rq4WV1z221h92Hzs8afUF8b1BeefKDsQ2WbYgfvhwAO+i0El+vKN5CedzuD2f90tr9nuOXTzVrYP2mkgzjnz57F6PcaJN98aj3/+c3TO/QvlG2A/8fjv4YTjS6Mc+Ocdd8svQt155JlfnO1nn326jDkX8+dxOp3BY4+PwZtvTWjW+pJgHzRwBxyovkwm5UU6ncHYt8bj0ceeynn+Cz0/kmyv61GHc878eZu/Zzrp5J9GHr/Q/DbUPmingbjiD79xp0NKhH59vTl2AtLpdOj8FDp/lWKvq6vDToPk/5m2fi2SMFVXXnml0tclm+deAeYsUM83prxpxCHy9SeE2jz9WFUIIVSdypXJbR8qy5e6018E+6uUq3/guNZ8iupvbLK9biCEgEjpunD7XOVwfzXJHO1D5VRwP1atFpg9H1iyTKkwrfZxSJkGYOFioEMHgZpucu4yCfnAlNW1XVXoNh6EaSOxnIO6ue1QNM38frJOOgftOs9srlNnje+p8UN1qp9fF55X1FzdeQBSObk8DSxdDnz7rZzSwQcAv7kA2HN3rZq0HZNBJ6Wuk6pSOX42Kx9/8y3wwmvh88IUnXrUAfvtaU4WIe3CP+8YjUWLPzHXMUNMy7++5IJgfSvRo3t3jH1rvF+R4/hxKDc2NvKX+O1MOp3Bb353uV+R53xtaLmxsRFTpr2Lw0cdFmjSHjz2+BjcfsdoTJn2LhrXNvqGPPNPZNmpW7T4E4wdNwEzZ85WMWH42msvZs6cjd/87nKkM/VBg3sO26icTmewaPEn2GnQjujcuVOwTYXz5tjx+Ocdo2Uhx/61ZnnmzNkQQt5Ss614c+x4/OZ3l2PRJ58GDRHzSVJ56rR3Y/88/ucdo3F7wt6jNqecTmcwdep0zJw1O9bngRRPOp3BCy++jD//5TbMNGr/6PNfzuXGxnUYO3Y8MpkMOnfq1CbvmcznV4SP39bldKYeQt3OmZQO9/XV2Kg+hxQ4X5VabmxsNJ9fxo4dj2232bpNXoskmrJxVD70qIflGfUk8yC/zNawHCiPPNiTD5QTUT4OZH5ZAB604s2DSOlfIMg2ZoQc/SEAGMVcuL/MlAPQ6mL31+UN7a/LMsalPVkELlBu+4BZ9RdCyLiHNnZHq/26dR7mLhSY9zHw1dfh8xGn8vr10pG6LA1suomHLp2V8k9I51rWUU5mLYWgJ081PLudjhWp64SKQakUi56KCQmjOvTUrXItdaMe3759qopp6UHNS8e41O0gjwdLuajnL4fzHYhG2ejMX97hVc/fQ7oB+HSJQGOj3K9BOwDn/dzDEYcBnToJNGU945iUKlz/cdaT88h6uh1UnT4e8PU3Hl54XTlfc5wflv3yxht5OPIw20BI6XngwYfR2LhO/qAFkD9qgfxhiwDUD2escjvahx3wXQwdsru7hFbjhRdfyXv8QvMrpT2dacCBB+znLoGUiAceehiLF3+a8/wUOn/NtTeuWwe045cijz3xFP55x92YOu3d4PWiyPknxi7UD/tytMmkMxg7bgIA0W7nopJJpzP47aVX5Dw/RZ3jVrBn0vWYOv09DN1jNzoXFOl0Btdce2NR+9ea9pmz5mBQGygD0+kMbr7lNvm+IM/xC80vzvZMOoMXXnwF6XQ9tt1m69g8l8e+NR6//f2VWLz4k7zzL7S+pNgzGXk96dypI7bdZmt3O0gCkA6UV3DzLbdh5sw5zTr/5WxfvPhTjH1rAtKZ1r/G3PyX2woevy3t6XSGjp8Sof8fP/DQw3x9tdDe2NiIseMmxO7/fTlTNo7K2+8V+PpbSIeSlVgOl0cdol90Vj2CbYXuC/WiFQCg+/gv2lB7pyxUfwggpV70dn89hmnvjgEAKVlO6TnrC0iuOaj2bn9zjJR84I4R2V/X2cdQ6wn0T+nHgFD9IYCFi4D3Zwp8udbvr21xLq/7Cvjkc4G1a4GuXQU22kg9FwooJ30EPHW+Pd1W+P1kkmUhlJPTtAmObysgAcATqq8aTzaX8xLKbgyeHNOMb/UzQyq7Rs9DqHZffAl8tlRg9RpZrqkBfnoycPqpQI/uwlJNOkpK6Hib2iGpjuvJuWoHrm737bcCL72h1qNSrvPDMvDVVwKnnGCdOEJKzNi3xmPsuImyIETs88NHDW+zL3E6d+6EdLoei7VqIuL4ccrTmXoMGrgDPyC3Ezff8nf5IMf5aYs8nc5g6JDdS/rhcuxbE3DzX26TDsq1jZHzKqs8qi4inzlzNsaOm4jGtY10WJaQm2+5zVdSRpyXUuaNjevQuVMnnn/Fby+9st2uETNnzW7Va+PMmbPx20uvRFrHQkT0ccslX7z4k1g43uWX0X/HCy+8HDnPcs4bG9dh6tTpgBCo6969Xc8DKR7fQfl3qaDMcX4rPV/8yaeYOnU6Gtetw6CBG/4/c+xbE8zrBQgfrxR549pGzJw9F4ePHC7rSKuTTmfwwIMP45933lMx/4/bOtf/7xvXNqKujv9r2pKycFTWrwTu/59bS3Jx+CGQX/rLTLqClOIxJYRy1WinoEI7CXQf67Gu9zwPqZTuD+Po8TtZ7d2ybiZgu5D8Mdz2TtkMIQBoBafvmjIHkY+D7fP1F0Lfq9r0jtwXt/+S5QLvfggsz1htE8jqNcCCRXILaqplnaf+aOdhNqvv5a2ddLKslYJeKAalagMAtnLSk887v+znsNrIrnLH/bGCik7dzrNjWHr+vMzhA320ClOO/9XXwJLlMhbl+iZZe/yRwG/OA/ptF+znjmErKKWTUioss55yXma16tRv9823Hl56035ykXx8/Q3wvVFAp46uhZDS8OCD/0Wmvl7+D1A/zLB/wOKX42G/5OLz3SW0Kp07d8Jb4ybmPH6h+bWHfUgbKkxJNHfceQ8Wf/JpUeenNe2NjY1oXLcOQ/bYzZ1SqzNz1hxcc92f8Na4iWhc11jU/MrOXqBNY+M6zJo1G5n6emyz9Vb8sN/GPP7E03jrrQlFn59S2GfNmo0DD9iv4s/94088hanT3gvtT6H9ay1747pGdO7cGYMG7uBOrdlcc92f8PiTTzfr+OVgb2xchxdefAV1dd3b7Adh+Xj8iadx8y23qfek4fkVmn+52GfNnovFn3yKQQN3qPjrSpxJpzN48aVXcPOt/8Cs2bOLPr+VbG9sbMSs2XPx1riJ6NSp0wZdZ1586VXrribFHb8t7NLxyh+Ntjb262vxJ0pZH7H/hc4P7dF2/fll6vT30NjY2Co/HiBhUm5FEvn0c0i/BVNRKZUCUkIq/0QKqFKKyZRWPqYEUinIF2Yq3F6XU6os+7r91Qs7b/tw2e6fqhLBY0a0d+2yzl9PKiVvQ5WzvbuuFMxx/TWo+eQYw5SrgFVfAFPeF3h/JtD4VXjvk5rmLABeGQss/ly+5pTvz9xG1a7zAgpGaZe3cw3WybiWVp26PasZRzkRYZfNpIJ1eoxAnaWU9BCel6fmb9fJuQosSwPzF0k1JQSw317A364HfngcUFUl40pms/rWtzI1qSSdj/LWrp626zrdx5PtmlQunZzy9cNUfPpsqT5xhJSembNU/BRzAVHYv4RAPOyluM1pXXf1QTPi+MFyPOwzZ81xDKQUjB1rxTJF7vPjl4PFDbG39TlPpzN4/ImncM11f5K/Xkbz5ifLCbejiDaWfexbE6Rz44mnA01I65FOZ/DYE0/5Fc04P7IcLLam/Zrrb/JfKxXK2LcmBCuasX+yHCy2xC5vydxy0ukMrrn2T/IaGzF+sFy+9jvuvAeP26+1Nkbve1xf37IcLLa1febM2byuxJjHn3gKF1z8Gzz2uHrONvP8Vro9vSK9wdeZwHvhZh6/te2PP873fq0JX1+ls6fTGTz2uPOZj7QaZaGonPq+h3HvCLea5OCIQ2UuzB+FMD4nvwyY2JCep27WaXWMaq8fm4LdX4jAK16WdcHKAqczGOMyEBtSQN7w0x7GPrZpE1yHrjdNnHm467DLUev45luBD2d7+HCWwFoZCqns+HY9sGwFkGkAOnaUMSxhKSezniyb+IwqTqTcbl8pmfVUTEjtJIyMHWnFoFRtbOWkdPSpdvIZEqjzx5HxKj3IP/YcshHzalgt8OnnwJq1cs19t/Vw9o8Fjj8C6NLJijupVJNSGannI+1NWRVnM2spKK24lUZp6cn4m/rxN98Cr7wV2HJSgF0GAgP6urWEtD133HkvPvlE/RpV/Q+Jc/6jU09u81+sdu7cCZlMQ2L2pbGxEQPbIDYXyc1b4yZg2rT3Is9HKfLGdetQ170W22zAL9FzMXPWHPz+D1dj1iwn/kul5VF1BfLGxkZkMg3ql8kbruoiQV586VXMmj03tO9xyLXKuVKvwzNnzcGLL70a2pdS543r1uGA/fdtkQotnc7gwl/+FplMJjRuJeazZs0BhEBd99oW7Wex6P853Pdw3rhuHV588RUccMB+6Nyp7c4BKZ50OoNb/voPX9kfcd6YF5/PmjUHb42bhG222arZ/z8f/Pf/QuO1Wy6AUbz96wYzc9YcXPjL3/IzSDvkmfoGTJv2rlEIk9ahLBSVS5bLixy0o4153txWN+rHWl2oFYa22jBVFVQo2urCqPahcat0e6Ha+OO46kQzr0CS/avceVT5Y9jHk20ikj2PUAofN1e5qkqgSik3UymB+YsFXnkLWPx5ZTwP61cBk6cBH8wWWLfOctfq26wKIcvaEQhZ9t26vpPSr5eDS6djsJ/GVWDK4YPtPOHf7tU/nnJS+g/l8fS8BLC2EVj0mcDS5cC3TcBmXYDTTwFuukxg952lElLfutVWTUpFpK+alM5RYdraqkvpxFTtlLrSOD6VMzNqv5nnzpcst84xISVEfxEFIBF5qd44H7D/vpHHj2v+xJP8JW8pmTlrbuR5KGX+1ngVV7aVSGcyuPb6m3Dt9TfJihzHrYg8qq7IPJ3J4PEnn8bjfE22OmZPI/Y9DvlbOtZzBTJrdnzeS7Tk2qi/HAXC41Vy/vgTT7doP4tl5qw5/J9TRH7hxb9FOkOlS3vz1rgJuPCXv5VKvojzxLxleTqTwb/uvLdZ75uMmjJivPbI05n6Nr/bSbnz+JNP8/9BO+fpTD0ef4KfYVqTMnFUuk4I5vlyoZ15Qj4GPAgBCOFJG2RMRiEAoV5/dntT1rc9Vf0hPNkGHiDUTTrt7y0sJ6ZQY9nOUXMM4amZ6nmpyWsna6556HGFmo81D+PcQLh9Kt9+6H72OlR5yTLg1XHAR7P9GIZR+12u+adLgDcmAfM/lmWpNNTxF301pef5Dj1b5WgceFmlitSOPaVIhNUmqxyNnjN+1pOTkWVrfP1YxdDUdjk/rdYEvv4W+Hwp8PGn0lnpAThyOHD7DcCog/zbumaVg1KX5WMP2SZ9y1fPqldtmlRdk+ffFtbp35QF1q/3+0btM/Pc+dIV6gEhJeStcRODcYBinkpx21fNoIE7YNCgHUNziGuaNXuudDqTkjB7tvqlbzumTKbenVaLmTVrDi765e+kWi3iWEzNT088+Qwu+uVvkW7F81TJpDPx/181bvzEij3f4+y4zu2cnnjyGXd6eZk1aw6uu+HPoXGYZHriyWeavafF8MSTz3Dfm5Eu+uXvKvb60t6kM/W49oY/41933Rc6L0ytkzL19c261mRi+J5g9uy57jRJEaQz9bjol7/FE08+E9pTpvZJ/AzTepSFo3JZWjqOmIpLWn1onINWLEZdjlJH+u19555wlI7Q/bVa0mofGNNSKdrHsPubMfK0t+fh29V88iguI8c0SQAq145K277qC2DCVGDSdGC1imFYqckDMG8R8NbbvrrNM8mPOanrs8pJadfZsSNlfbBsknZW2u2cuqjjhWNYytvJphuAeR8DK7+Qaxn6HeDPlwM/PQnouKnv2HQdlMahaqkmTVxKKwUUlKpdk3HGqv5ZNR9V7+4vU/5ERyVpD9ryV/JtwQHf3detalMG7Vga9WZrkbTzSTaMdKa+VZzTTzz5DK694c9uNWkF0pl6XHf9Tfyg3wqMS4haMVOh8X3i9hwvdj6zZs3h9a8IHn/y6VZVDF97w5+p2GgB/OK49MgfcslbUZK25/Enn+Y1uYKgQyy+6M8wrfm/vxIpG0dlyKnBlDNB+hN9J5x2xBn1oK+sTKmy7i3VjmoMNQ60A9JSJepxU5ZCUY+jFZuw5mDKVl/zGHI+gXFyzcPta63HnQecedhz0HuhnZhCyFuCTp8BvDgW+GxZeF8rOa1dB3wwG5j6IdCwWqkNlVJSO/uaHOVkU9Yz8Sd9B5+HJqWUlM48GOVkIGU907/J04pGqZTMKgVnk6WctOeweg0wf5G8bjR5wFZ9gEvOAn5zrodttvTn1qTUkrKsjwGsV0pJnUwbrZy0FJQhpWWTGtu0k4/1Md19ZcqflqXla5aQUjI7YeqpgSW67atm4MABoTnEOfGXvKUjU98Q2v/2SLPmbNg5v+6Gm/HEGP6CuS1Tpr4B19/wZ34Js6EIhPY2jqkSz3Mc1a7FOBVmzZ6D6/54c6gvU3S6c/R9rfL8vu6GmxP3/jNOif9PSscTY57hNaId0uzZc3HxJfkVxHG8I1CmPvd8SZB0pp6fQRKQMvUNeHLMM3hiTHFKZxIm8Y5KzwNWNPiOJuaFc6MijFA7plJAlVJU5o7pGGxvqxVTzrhCjSPrBKpSQsV29O22WjFy3Co1H1vxaY9h948Yp0q3rVLqSj0Psz5nHGuP9ON5HwNPvQzMWRDeT+Z+3rBKOitnLxD4+lshX6P6xSrCZe1INPV6IKudp5STGvlQH1QiIOAJASiVp67VDi0A+Oob4LOlAp8sBb7+Bth4Y+C044FbrwL22U0qID07BqXtLLVUkyY+pVFOqhxKVanma7c143j+caTS0rd7nnx+R+0r8+g83SD3n5BScefo+wD59AsQ1/IB+5dWTQkAA3fcIaSqzDW/OJTTmXoZJ4y0KfYXJ/nORynKs2e1zFGpvyCY7Txf3PErvRxV15JyOlPPL5c3kFnquR61v3Eq11f4F5XufrR3ORf6Gui2Zzl/eUOvY9ffcHPgfYo7PsuFy+lMPZ4c88wGnQeSH319eNK5DWnU+WC5bcqF3jdlMvV5+7dHOZOOnisJMmv2HFx8ye/4GSQh5XRG3pb5STorW0TiHZX6uhZwdjDPmwutfLRiOaaUghJCvrqEUC8y9dg477RNOwMFpGJRyP7aAQp1HD2O3d4eRx9XjxOahxrHzMMaRx/LVVwKpbi0Y23a8zFOzFzjWOv5bBnw3OvA2+9J51bUfjIP558vl7fGXfRZMAalvnWqLgduiWrFtLTVkwioIqVyMqjEDJY96xhZD2hqApampYpy9ZdyfsMPAG6/zsPRh/lORK2C1E5IHWPSTUYdGVBGqnpPqybt9pZqUrW1x/L7y32K2k/muXO+tyWlpNCv2VMRde1pP+6Yo9wllISBA3cIzS1qfm5qL/uYMc+6SyCtzOzZc3Luf6Hz09r2lvx6e9bsubjkV7/H7Dm5rwHFHj9XSrq9mDbNtWfqG3D9H29u1diilYSrnnD3103tZc9kGtyplz1RscJy7U+p7HPmzHOnachk6jF6dP5Yc4XGr1R7fX0Dxo+f5G5pUdw5+n7zfyfX+IWOT7tM48dPavF5IPnhe6T42Ovzvm8K93P750ptZ3fnSFzGjZ+IG/74l4i9K2Z/aW9P+5NjnsWT/J6h2STfUdmg3NZMRSdfPSiU808AkHnKcuTZikLtzDMKRLtNKMal5YyMau+0sRWXcn5BtWS+MVOpYH89D1t16c8zekzjuLTGWf0lMPYdgVcnAJmV4T1kKpyyHrDwU2DKhwLLM0HnklEXWk4nWDEtTVsnBqUH3/Ns6pQy09QJGQcz68nb0M792D+Huw4Crv8/4IwfAt26+gpK23mok6uG1I5I3+Gq7Lb6UjsrrT62AlOrLo1T06rzPPn8Z2peSlfed1uknRg3fqL5hap/3ZLY1zc717j1pbJ3716rHpWW/b+7T6DszqvY+Wvc+ta2z5w9F7N4C9g2J9f+u/Vtbc/1S/NczJo9F9f/8ebQOBq3vlLt9uNcbdxc49bb9kymHtfl/NKN5EPvmbuvzdn/qPrWtqczlRmjUuPui7s/bn1b2fOdhztH34eZ6v9krv5urnHrK9H+xJhnmv0+487R92Pc+ImhcaPGj8o1bn0l258Y8wy/NG5l+B4pOte49aWw53rflMlkiupv49a3lZ1E8+SYZ3Hn6PsL7p+ba9x62oO49W1hf2LMM7hz9P2OheQj8Y7K+lXy5DMVnwR8daHt+NNlCBmb0lYqAsH4lNA+FWscewyhlInSB6pjSmqVoz+O0ONo56HqK31RWqHpKz9FSs5LjqmGcdbiPoZSjMo1yHmZOJXOWjxP3rr00eeBBZ+E946p+WntOmDWAuDDOR5WfynjMkYpJ7WTUjrw/BiUvhMwGPPStM/KGJZNVmzKLxulk/Tz5TK2aI/uwPk/8XDZBUD/7fX4jvJRKSgDqseAI1PGrdQxKrUK0vR3FJJ2O70GGfcyeBw9jnRkMjU31a+S1wFC2prxEyaHfiUX53Tcse2jpoRykA7KoaqMaxo/gb+yb1vCe96eqdgvjGfNnosbbsz/K2amtk/19Q24/sa/uKeHFMDdxzinSsTdg/ZOmfroX//ddff9mD1nXqg9U/PSXXffH3Ic5GLc+EkYP2FSaAymDU9PPvVs0eeB5IfvkeKbot43xSVWvJtINDfc+Bc8+dSzof1iSl4aP2ESnnyKP5IplsQ7Kld+4Tu8mBeXG1WjVhXa9Sqmo6swTNmxJbVT0lY1RqgUTWzIUIzL3OPYascqHZtSz0PlIiWs+Jnh47r1ZhxLQerGykylgDkLgf8+A7w7M3rfmG9YvvILgQ9mCyz8VODb9VL5CO1w8vzXtHyoO+uyr5w0ZdXPg99u/Xrg8+UCiz4DGr+SQ5x0FHD7tcABe/mxI7Nu7EgnBqVWTcqy1UfFmLT7hNpZCklTp49j97fsum3UvjHPn6/8Qj0hCGljZs2eC6EeJyHff7+gqrHU7LjjgMh5xTUv1nFFWk7UvrdXPntO4fM9W38Bp8rM8+dRda2ZZzL1GH03f5HcHKL2MY55peLuQ3vn9RHOm3HW7TLd9sybl9dn6jGuiB9FzZ49F3fdfX+oP/PWy+/i/5INhu+R4p+775vsGJVxyUk0N9z4l8R998A8f/7kmGcxhs7Koki8o3LVapnbzgvm+XM7JqQQspzSSkX15b+AynM5NFU/rbiUbfW4fl8gWi0ptGPSGUceQ85WtxPOGKafeRyhuLSPb8/JWoce5/PlHsa8ArwxGVjT6O8T87bJl6WBaTOAz5cpx52rlLRiWhoHnyoHlJhKSan7puuBOR8Dq76QdcP2Bv5xNXDi4TJuZdZVUGo1pB1T0lVQWspIN7ntzBhNloIyh+rSLtv1UfvFPH+u/wcQ0paMvvuB0C/j4pwGDtyh3W77qtl/v31C84pzqq9vwGw6K9sOgdCet2syHx2jmT17Lv74p1vC/ZjaNY2fMBljnnrOPV0kB+7+xTlVGvKzdngf2jvZSrNMph6j70nW+5+4pzFPPZdXzcf/PaVJs+fM4/+SDYDP0+Qk+32Ta4tLIj6ZTD1u+NMtmMO7GJRlGvPUc/zfUwTJd1Su0e/0mYpNqSqlmAzFlpTKQ5FH5WgclqmI2JBClW2nYJ5xZB+/f0p6P/3YkkWOEam4tJSSZj3W3EUK+LIReG0iMOYVgc9XhPeJqe1SUxb4ZCnw4Vxg5RpzM19lD8aq9OArLgN16ibAq9cA8xYDy+tl/cB+wBUXAuedBvSoDTsoQ2pIHXfSxJTU7XxlpO5jOzLddmZs7aR0jmP30TbTXpXdfWIqnFatcf4pENIGFKO+ihPf3W9vt6rkdO9eix13HOBWx5oxT/ODQ6UwK89revbsubjhT7e41SQmjJswiT8qIKQEjJ8w2a0irUCuLykzmXrcdc8DbjVpI8ZPmJTXaUyiGT9hEt8jJYwnn3oWo+/mtSXu6B8H8T1uecPPMYVJvKNyzVrXecFUKAn4TkLt9DNlpUhMCRjFJZz4lEL6E0Nj6HFgKRuFGgfKrSTt1jj6mNY48niyX0qNZ2JKOmNAz8UZw54HrPXocd75ALj3MWDG/PD+MJUurV0HzF0k09p1Un3YpJSSMnmRMSg9T97addHn0uH51TdAt82BM38IXH2xh8H9rfiQRrWolI9WbEh9i1ddn3UUlLqPHsuOMZm3nXWc9U1qTZbN7iPtal0Re8SUP32xVl0PCGkjxk+YjPqYxvTIlXbcIR4Owu8mTFU5Z868xDmlk4KIWYzK+hyx2GbPmYsbb7o11J4pPqm+vgF33/sgv2AuAnfvYpugP9xVECKe52f2nHmAuhY+9fRzITvThqcJEydHXr/uvufBxL3fTHKqr2/A+Il0xjeH8RMm4+57HgztJVP804SJk0N1sUiV+P8/B6PveZBKygpI/BxTmMQ7Kr9Y6zu9mBeX22pJo0rUZUvRmBJC2lICKeHHlZR1qq3j6ExFxZZ0Y1xaykb/mNZjFX/SxMq0Ylv6dUGVZWg91jyqrHnM/Vjg3icEJk6XtxON2h/mpc9XrwFmLpDxJZs8AQjphAIEPGGXpYJxWQZY8KlUxUIAxx4G3H4VMHw/pYBUcSJttaKOQWnHhrQdmXaMSq2c1HVN1ljaHtXOHDML6ZpXMTQ9T1gKS90uGMvS8+TzNGp/mOfO19BRSdqYCUpRIFRZ5v7Hqui8/ez777d3u9/2VbPjDv1D8ys0//a26/NN2oZC+18qe32mPvQBMZOpx41/urWo/tH1lW0vpk1r2TOZBjxFBXRRRO1fof1tD3ul4u5Drv0plV1z9z0PBuqL7U97cfYJjoNs/ITJmD1HxyMr3D+6nvbm2p8qcCte4iOdlA80a3+jc9qj6yvXToAb/3Qr5syZG7k/hfaP9uTZM5l68z6LhEm8o/JLHVNQnX2TK3uonvbomJDKLrQTAJYDUFiKxZRsL9vYyslwfEqhxhCOE1GXzTwsxSVUv8A4ljNVz0nXp5z1SBWoWr01j6UZ4LEXgWfeBFauzr8/aqToetrb1L68AZg5D1hRD6mkhHLsqduz1q8G5n4MpFfK9nvvDtx6KXDK0R46VAUdjwEFpXNbV12ftXLtZAyOIccxdsemnZJa6amdkVEKymxAYekfzz5Oof2hPWz/slGXCGl9Mpl6zJk7DyKVCv4aLuX8Oi5G9rioKaFu/zpwxwHNmn972+fMne8ug7QCAihq/0tpzziqynvuVSqBIvvTnsNeTJtWsE+Y+LZRf5Fo8u1fof0trV29wasomrM/pbPX1zfgqWeeDyr7mtGf9uLsTz39vHGQZerr/f8/RfanvfXs99z3kPviJA6z58zjeyTa28heif//g/zpplvl9w2R+1No/2hPqn3O3HmhHy0RSeIdlY1f6W8/nJSKqKMd0ApDSIUhhFROGkeiVihaqkdTNspFoeqEchhqxaPjRLSS7aDUx8mruNRzUQ7K0Nys+el5hMYRwLqvgZcnAA88BSz8rLj9ob197euzwOdpYN4nAquVWm5Nozx/S9LSvv3WwO/OAn71M2CLnr460XY2RioozS1lAQ86FqZSRhqlY9AJ6aolAw5Kt52lptQ2Hf8y6xzPdnLq/sXsD+1Be+NXwv23QEir8dQzz0vHuCdvzQztKI9xeYcd+qtH8WDffffOO9+4ldOZejo/2oBc+92e5TnWeb7xplsxe868vO1Zzl+Oqmvr8j338tfIhci3f3EqVyq59qO9yrPnzMVTTz2X085y65UnTHwbAHDPPQ9G2lkuTXn27LmMx5qHTKYeN950K5Bj/1hmeUPLlczd9z6IWerzSK79Ybl8y/aPlohPyq1IGo1fyRMtb7Eoscsm0W7sgK9GDKglddmKESm00lH3s1SKtiPRdkQGYkuqpFWX2rlgfA5OX6H6yWN4Zjx7HDkRNU6e+U/+APj7f4CpM5q3P7THw65jUC5aAnz8mYxh2bkj8NPjgRt/7WH3QUHFoq2gdJ2IdmzJpiZPlYPxKnUfW2mpbXYMStPOUlrqtv4Yfp/1TR6yTcG+/hjB4zRnf2iXqfErbSGk9Zk7Z766DbqfZNn/dVyc7N/db5/Y3PZVs+OO/Yuef1zsTz/zgrsMsoHI92nF7X+p7HPmyi8G7rn3IcyZOz9kL9Sf9rC9mDataa+vb8A991INk4tC+xcXu/oAWHEUuz+ltM+dOz+vvVB/2ou3T5z4duD/j2sv1J/21rNPnCSdxiTMPfc9VHD/aKe9pfZK/f8PAE8/8zwmTnw77/4U2j/ak22Xd7Hg9w4uiXdUfvWt9HppZ5VxYCnFja6j3X9sKx/1Y1v5aCsUA2pJ7RC0FI1a6WgeCxlbUrb3Y0uaZDtHbXWkNUaVilHpKi79FOxj1qHGnLNI4M5HgVcmAt+uD6+/0P7QHi/7F2tl+chhwD8uBw4/ADLmo3L4eXkUlLbDMsru14WVllkVY9L0jVJa6mPrmJjWWHpszxPIwrJFHE8736LWX2h/Kt3+1TfC/bdASKswYeJkZBrUrSGFijcg1PNNyKejX46HPW5qSgDoXluLHXYcUNT842KfM3deQG1HWoki979U9vr6BsyZMw8TJr0daS/Un/agvZg2bWGfM4ev15wUsX9xsVca7voL7Q/t5WfPNDTI277lsBfqT3vr2efMmRe6HTwB/vTnv0pHOvLvH+20b4i9EpkzZx6eevr5ovaH9vK2T5w4mZ9jHFJuRdL45luZe5DxymzVjZvTrstSqRiINaleKyZpx6F6LNTjVAoBxaVWMErVo98fCPbTj4XtKNXjOGpL/eK152QckdYc/XHlOMvrgf8+L9PSTL71R+e0R9fHwX7jJcBPjgM6dfQVidl8CkpLuWjambKlalSxJe36yHZZt120wtKeT1bNJzhGuK+xOapBN8+3P5Vs/3q9KhDSykyc9E7gV3BJSPvtu5e7jFiw3z57heYa98Rf17c24T2OQ7rp5r+F6piSleobGjBx8jvuE44Aob2KbZJf21QcoX1gYmJqt8T3fUGefvYFpbAO7xUTU6ulCvz/n6lvwE1/uS28F0wVm55+9kX3aVLRlIej0nJwBZJS3eRMFWpPpQQAmUsnoIw5aTsjtVIx0mFp9dPjaaWj64zUKscoZ2Pg+MKPK2mOZSknzVzsOlX/7XqBF8cDf38YmLlQrrFjx9zrL7Q/tMfPbjv8jIJSqxh1bEjLSWm3C8WoVA5EWxmpnYg529mqylwKSzUfu53tiNSqSlfFaTstc60/MtEOCP/HKoS0JhmltEoScXVSIqZKz0Ik7fyT5kP1RPlANQwhhJAN4elnXuD/EcWcOfMYBoGQNuLe+xiygASpr693qyqalFuRNL5tUmobqFsn6seqbB7TbuzGgagchrYyUqT8EYSKUQnttITfJ+DAtJIcN3BUSzkZbGv65JmPGUdI1adxUqhs8gfATfcCb02X6+tQBfSs9VDbLff6C+0P7fGzN2U9ZFUsx/UmhqSq185AEwfSb6ftuo90GvrKR1vlqB2K2nFox5i0Y1Cadm4sSysuZVMWyOo4mLpuvXUMT7f37dk86y+0P5VsX98k6wlpTZ559sXQL93innYYEF9nYPfaGuy4w4DQnOOc6htW8tf1rYh8DxneZyam1kj1DSvxzLP8UtXF3af4JnfmFYBI0vlhYqqMNInv+1Bf34A/U+3FVLLkPgPLmz//5TYqlZlCiZ9jgiTeUdmkVEi+k8svuznt6rHlZEylZExJIVRsSEshKYQfV9IoHHU/NZ5ROFrORjempIxzGXRGusrI0HxSzjiO4nLeYuDv/wXGvA58uU6O2b0a6Ls10G1zuZ5c63fraY+/3fOEr1jUMSQ9Wa+Vi56loJRlEYwTaSkos6qd59ZZqkptt4/dZCss7ViWcOo8paBUddKpZs3bUlTac8u1/kL7U8n2pqz7X4GQDWfO3HnqiYbE5PvGWFEJAEcdNUo+yDH/OOYTJ/F2kq2G2taofWZeJnlUXQnzOXPnyzIJkmO/YpdXHDn2gTlz5u2WT5j0DuorXFV57/3/Du0Lc+ZtmlcIc+bOl+9V3fUzZ67+/xBJ8h2VHgAVu8zEMMuR0y5zo1RUKkVhfbcAy2FoHIu2ejIFX/GolZPakWCNJfQYllNT15nYmCrXqk0zjh5LOz4tJ2hmFfDv54E7HwcWL5Xr2awLsN2WQPcaOYadotbv1tMef3vWuc2qUSZaCsqo27XKdjkUlGpM3c9WQ9oKS/9YjoLSmo/bLlh2k2diY+ox5JheaN3F7k8l25voqCStzMRJ76ChYWXol25xTnG+7aume21NaN5xT3PnLaDzo9UI7y8TU2umhoaVuO+B/7hPvIrG3aM4p0rE3QMmJqb2TQ0NKyv6fd8zz72IufMWhPaFiaktUyVQX9+Am2/5e2jtTEw6Vfr/HxvhefqGeslkz1PcGlKIl/6pbpuob62ongGhOuuxrodRgTn2An3sNoGU4/hun6Ym4PnxwEsT/XVsujFQVw107uTXQd3atvErYNGSYD1JLlefA2zbRz4XzPNPx3yMel6p505WObGi2mWt56u2wxo/lIpop8fMqvau3W1nj/n1N8ADz1iLJkXzzr/dGkJazs23/F2+SfSkQzwnMbJfcvF52GFAP7dF7DB7i+atL5IS2ffdZ0/85LQfulbSTCZOeifoRCpy/3NCe7ztKKJNG9hra2tww7WXBysrmDPOvsit8onYvwAltO8woB8uufg8t0VZM2fufNx8y9/dap9m7F8ktNNOe27y2CvxegT3mpRnf4DyttfW1mCH/v0AIR+b+hr5uL6hAfWZBtQ3SOVtpGMhz/gA7ba9Ul5vSfwMnJNm2vXraN999gQADOjvf2fRvbbG2LWaXccKrq9vwNx581Ff3xB8nTXz+CFibD/qyJE46oiRbnXFURaOSn2e7Vzj1tMOvHyH73iBJxVpEALZrAehct+u9JeWswbWY10PBMfRdb5d3/4y91jRxwcmfiDw/DigfrWcv0hJB2VNV7VIg4eqlJRjrl0HfPx59PrV1ICIetrjab/yLA/b9lG3avU8wBMyV8+rbNaDBymxy3qeup2qbOep55Zv18/BcDs5vjxoNivHb7Ltahy3nbw1rJpPrnG03VqDp24PCw/46hvg389Fr9/NaQ/ap9BRSVqJ+voG/P6ya9zq2POv229xq2LJ3LnzcfOt/3CrY01tbQ2uv+Yyt5o0k4mT38H9DzzsVhPS6lxy0bkYkIAfbpSCM8+52K2KJQMG9MMlF53rVpc1Sfx/SEilcP01lwWcVJXA7y+7puJue1tbW4N9994TNbXV6F5Ts0HvHerrG5RjZQHmzJuPuVEOTBKiEv7/P/vcS3jmuRfd6rJmwIB+2KF/Pxx5xAjX1GLq6xswZ958zJu7ABMnl+dtUo86YmSr7llSSb6j8lS3hhTi1Tvkl/vSWSPrPOMstMqWYxHWY13v1ul+2hHk2qP6mDq33gPmLgaeHQfMWaQmDqC6q3RSpqybFtu3ltW3jV27Dljwmd+GJJvLz5CKyigVo/3cCSganZSNeI5GJut5aD+XQ30sJ2PIpsdRakndzh7Tbff1t8B/GD+5RbzzkFtDSMu4/4GHE/fGd9+998SPTzvZrY4lSXUE//i0k7Hv3vJXoKRl0FG54dSqXx3v0L+f+VJNf5Hq/hpZP840NGDe3AXINDRUzJdmlfClV7HQURlf6KiMRv+v7T+gLwBgh/79UFtbY5wAmYYGNNSvxBylsqg0x0pbE7X/UP9j9P+QufMWmHNRrueg0t73VZIjRTsn99l7aJs6o+vrGzBp8hQ6LQtQ7v//k/rZtyUcdcRIDOjfd4Mc/sWinZaTJk8pq9dXub8eiiXxjsqhdFQ2m9f+pRSPHow6zDgMLScNHIdiNutBwFeyuQqywDh5xvKVcGoc3Ub1qV/t4ZmxAuPe9efcpRNQ1w3YdBO/DvCQSgkIeBApAQEVyxLAl+uAeZ/YbUmSuewXwDa9Ixx+CKoczXPMVVDmaKfHke0cZWREO/m4iHEiFJ/msdNOv06+/gb470vuykkxTKGjkrQSl15+beK+cPnlRecEbqESd/5y6+2YOy9ZHygG9O+HX150jltNmsGkyVNw/4N0VDaX2toa7LP3UOyz14Z/oVZf34BJb0/B3LkLEvcabA61tTW47uo/uNUVyVnn/tKtiiWVeI2dO28+/nLr7W51RbLP3kOxz95DW/ReZtLkKXj2+ZcS994tTgzo38+cg5Zw/4MPG+dlubDP3kPx4x8l40eAG0qlXIuOPGJEq7yXagn1Smk5afKUsn7/1RLK/f9/Ej/3Ngf9OeXIw9tPBag/3zz7XPK/TOVnGEnVlVdeeaVbmSTuelLd/4+p6PTTo2SwVgjp3NMqRPlHNVOPEbDLSmHnTh/TTT3WKkfTyOoPCNNHH/+5ccDtjwosWirLG28M9OoO9KgBOnRQ46akQ7KqSvZPpQSqVJ22fbNe3irWDM6U6LT/bsDmnbXDHMhCO/sgnX3aYWhUwdIB7jsFo9tpJ2HQrm/zqtq1yji+Qz7cTvZvygIzFobXzlQ4nXGcuqQQsgFMmjwFkyZPcatjT9K+SKmtrU7cPtc3NGDAgL7t8uVGufDZZ0vw/gcfudUkgtraGhxy8AH48Y9OxpFHjMCA/v3QqVNHt1mz6dSpY+AL6c8+W2JiLJUT69at4+tV8ezzyfjSRn/RVUnUN0i1TSWzz95DcfYZP8M+e+/Z4tfrVltugUMOOgC1tTX47PMlWLdunduE5GCfvYfi+yccgyOPGIGtttzCNRfNd3bdGYccdADqGxqwbt1XZXEOPvtsCfbZe2ir/O+NO/c/+N+yfC+gOfKIEfjlRee22nupltCpU0dsteUWRsXJa5VPOf//nzR5Cl5/4y23uizQn1XOPuNnLfqRUWtif77p1Kkj5s5b4DZJDJ06dcQhBx3gVlccyVdU/kh+yS+kH8HkGreedmDsXcpZkrViU9pKSU/HmPQdKYDvZPH0Y8hBo8bx+4UVl54n++nH2ayHtz8SePINYGlG1qcE0L2bTFnPQ0oIeDoGJWQZAqgSclHS9+nb1zQKzF4Uvf5C+0N7/OyX/gzYqqd8rNWJdu5BOv6gHIvm+W23UwPbjkW7nRehcsw1jo5vCcDEnsw3H3jBdr4i01d+fv0t8Nir0et3c9qD9qkPWpWEtJBb/np74t7Y7rP3UJx26g/c6lhTX9+AP1xxnVsde5K413Fi0uQpeOCh/7rVxKK2tgb77DUURxx+mGtqMyZNnoLnXni5rJQwADCgf19cfGH5/kK/WM4+7xK3KpZU4vmaO28Bbvlr+auYojjy8BFtdp177vmXE+Ogby8G9O+L0079QYudw/mor2/Acy+8XBZO+GuvurRN9ihOlPN7s7Z8nm8o9fUNmPz2VF6ryvz//x+uuK7s3l+jjf+Htwb19Q144KH/Ju57Hc0//36zW1VxWJH+Eop2Ujm5UfLlyGmXisSUAKpSQikRlUJRCOuxUiqqPqmUX6djQ9rjwOqfUuPa46TUY6EeL1oC3PIfgdsfA5bWy/lVdwX6bSWdlIAaPwVs1EHmVVUCVVVAhyogVQVUVQFVKaCDZddzdtfdnP2Jqqe9fey+8xHq9qwq94AshLrVqlQl5myn6t3ctutxsgXG0c7Mpgi7dEIGx2lS9b5dO0Jl3ybVNtf63Zx2p56QDWTuvAWBN7Pu0yqu5b33St4vUKN+OZtrfXEqJ/XDThyJ2t9KLnevrcFpp/4A1151ack/+O+z91BcfMHZgVs2ufNrbjmqrtTlhoaVTk1l4+5P3MuVhrv+ci3X1tbg4gvPadPr3BGHHxa6BV2u+VRi+bRTf4CLLzynzZw3ter/WWv+T2mv8uS3pzqW8uOBh/6bc/1JLXdX15m2fJ5vKLW1NTji8MNw7VWX8nrllMuF556XPwJ015fkcin+h7cGep6nnfqDvOuJY7l7TK9ZpSbxjkqPqdlJwDNf7psv/a3HrkMR8JRTUveTIxlnAeQrTFh9zFjOOLLew9p1wH3PAX+4A3h3rhyx46bA1r2BXrXS+egJT43lIZWSx0ipW7vC2NS8tENU3wJWitSYyiQ1ZYH1WQ9NWenQa1KP/bKsy2aB9U2WTTkv3Xa6bNv9JMex64LtZH99HHc+gXaeMx+3jVJa6vbuupmKS4RsKG+/PRVCyNuiJykN6N/XXUoi2GevoaG1xD01NKzE5LeTrxBoL+T7tfC+Vno68ogRuOaqS0PO+1KivzA78ogRofklNTU0rOSPC5Cc15z/gbKycPehnNMOA/rh2qsuLcn7lnK7nrVG2mFAP1x84Tkl+19TDudg3vzy/h/y3Asvh9ac9LTDgH64pkTXmdbAOCyvvhQ7DOgXWk8lpHL8/1/fIJXl7lqTnI48YkTJ/oe3FvvsPRTXXH0putfWhtYT1xTXH1eUmsQ7KqWHjak5KZWSCshcSkm3ziguhVD1YcWldGT6SknbYajrqlSf5ycKXHAz8NJkOZ+NNwL61AHb9AY6baraVwEdlHIyVSWMcjJVJcetqlJxKZVdqyq1XTs2mcojafWhpxyGWaVE1M5GrXJs8qRNqyG1UlG3aXLGce32OE06RqVu59htVWXWVm3a7ZRN3lY2OE7WHEPZIULrZioyEbKBTHIcUK4DPI7lJKopNTW11YFy1PriWK6EX9eXglz7W0nlAf374pqrfo8jRsXnV8lHjDoMF11wduR8m1OOqmuPMl+vPlH7E6dypePuR7mVDz9cXltKyRGjDjOqD3c+lVbW+1/qL5j1OXDnk5Ty3HkLyjp243PPvwzkWX/Syke0w3WmtaitqcFFF5yd6NdLS8vlyIMP/c88dtebxPJFF5wdq88rzaG2pgYXXXhWYt4P1NTQUYmycFRaJ5d5cbl2HooIpaTQSX35r52WAr5SUqskIxWX8NSRZNJ9IYB3Znr4zd+lkrLxK9miezdguy08bN5FjaMUlFUp5bA0Dk85lj5OKiWfvVXGSSpVlfZjd93Mk5trp15Qmegh6ygWPW3TDk2tbNT9dFvHHlJiOqrKbBZoUvb1TR6ytoJSO0WbnHE8OY5pp8bJZ3fXzbz4nJCWMjmhasq433YlH7U18vav7prinubNX4h5VGm1kPB+Vmo68vARuOiCs1Ebww+jOqaTO+ckpvllroYpBndP4prMB88KQiTo/GxIurgdv+A8YtRhiXyv0ZqpPfcf6hwceXhylZXz5i10l1QWPPjv/4XWmtTUvbam3Z/nrcURow7DxRecHVpjOady+/8/b94CzJu/MLTOJCb92ir1j1xam9qamsT8L0r6XrcWyXdU6msb86Jz42hUSkmtdJQqSRVfMoe6Ujsn7bqo2JQmCeDTFcCfHwJufFBg4RLZt2sXGYeyrlrFlKySMSarqvyyVkhWKQWlH5NSxahUTkzdRysudaxKd93Mk5trhaRUKgYVi1ohGVAs6tiQtmJRqRZte1bZQ+3sGJNWLErPxJp0xlH1TVYMyqxWU1rzbvLkRctTSs2sim+p7e66mReZE7IBTH5nKvTTKCn5gP59UVsTVCUmjb33HBJaVxLyye9QpdVSovazkvLuNdW46PyzcPio4aomnuy91xD86JSTQvMvlEfVtWde37AS9RUeqzJqX+KcVxru+sstv+j8s9C/nb90O3zUYeiu3i+58yv3PA77DwCHjxqO2prq0PySkJfj7V/rG1bKH2mqcpLz2ppqXH3l72PxPG8t+vfvi6uv/H3FXbfKhedffAWIWF/S8gHqeVhOr63DRw3H1Vf+HohYb1zyctrvDSHxjkqPqdlJCPlC0DkCzktVb6smLcVlSikxtXPAbuvHjJTlb9cD9z0PnH8zMOFDeeyOmwJb9ZS3et24QzAGpVBjGAWlGS8co1K3DfbXyk6Z3HUzJTdJxWEwNmSTdctWW5WolY/aaWnbbGWkVlWacewxrOOFH1t1uWJQWmPr2Jr6OJHjqMfuupmKS4S0lHnzF2B+1K8e1Q93cqZ2tu+91xB3KYmjf/++GNA/RzyWAutvT/v8+eX56/pSUMz+lqt9QP9+uCpBH/j33msIjjj8sNA6cq0vlAq1KZG9oYxv21cMoX1p5v7lTK1tN1/RVBAiQefHTUXYL7ogHk6y2ppq7O2qKouYf6guYfa47L/mR6ee1Kz5h+rayd7QsMpdSuJ54cVXwmvOsf7IFBN7bW2NcTqUG7U11bjwgrPRvbYm5/pzpqTZy+j//7z5CzB/QcT3CvnW76YY2Af074cLzz/LXV5ZoH/cUBv12ipyf0J1rWQf0L9f4n+I3lok3lEphHI/q8Ry4bIQTixJt852WKakUlIIqbgEZB5yajp9X5gMnH4D8MSb8rgdOgC9ugPb9gY266yUkR2kSrKqSiogbRVlMO6ktLtxKHW5SikobVWlUI7NqPWznLyyUUMqZaN2UNrOxSjVpLZrxaJr97SyUd8K1m6nYlAa1aVWTlp2ez52/MmmLJC1+gbma5Se6la1yu4h9/pZLlAmpIW8/c40t0pSyAPezvb+/eLz5dOG0L//9m6VpMD629Ne37ASbzP23YaRZ3+B8rMfPmo4Ljz/zGBlAthrzyHR15pC60cRbUpkz3mNr3SK3L+ctLW90im0PzG3X3DemdHXjnZi1Eip6DMUmH/S7XHbf6j3rXvpH9kVmH+c7OWmqCzqPWwz9ieSEthra6px1RW/cy1lRU1NNS6IugtHEfuTl7jbE8zb70wrvL6Y2/v37ZvIzyzNobamGheef1a0U7DA/rSlfa8993CrKpbEOyo961zrxyznLwvlUISJIekF4kvKOtlOIIcDU/XXiks9+rtzgV/+DbjtUaD+C1lb0xXouyVQvZlUSULHoFTjyPGVKlIpI6uUzVdQWqpL1R9Wnd1Xx97MtX6Wk1fWt1LV6sOg+lHGqmzK+mpJ20HpKjHtcYLJbxcY3xnb2K2xQ/Mxxytgd8bOtX6WC5cJaQnvvDMt9Gu2Qr92a2/73nsNRU3UG+sE0q9f39D6Cq0/DvYXXn7VXQopgHz/Vtz+lpP9R6d8H6NGxvtWr7moqanGj075ft715UyF2pTIXukK6NC+NHP/cqZWt7szrwTcPci3P8mx/+iU78fOSQYAe+9lqSrzzD/p9gvPPyuW+w8Ah48cLlUseeZfaH3tYW8oo1uIv/Diq6H1hVLM7bXda8reSampranGXnsOwRGjrDtcFNif5NndVSeXt9+ZFrG+QuuPj31A/764oMydlJoa7ax0lZV59qct7bW1NWVxx6zWIvGOSltVw7y4XKOVkSIlAvElhXCck6qv67DUsS2rUgLLGgT+9B+B394BzFwkj7N5F2D7LYDe3YEOOgZlCuhgKyRVshWUJkaljkmp1ZKqTwcd0zLlx7I0MSurBGNUlmHuKyClirHJiVUZsFvKx6assodsSgVpqSq13W4n+6s+rj3ffADAEwG1pTvfwHzUY3fdzIvMCWkBb78zFRDqhjNurm9E49bHwN6/33YoF/r32x4D+m0fXmee9cfB3tCwCvMq3AHSIorc33Kxn3/emdhrz2R/6KypqcaoUcMj1+euu5g27WGvaNx9idifyLwd7BWJuy959icJ9lN++P3YXvNGjTwUNbU1eedfaH1xt48aNRz9++W4U0UMqKmpxt57Dsk5/0Lray97OcU6fuedqaH1hfKY2085+fuoJGpqqjFq5KH+e7EC+5NEeznw74cfzbm+QuuPg72mtgan/rDyXlsXnHdmUfvT1vZTKmzvC5F4R6WtqmEqLrkYR6TlhLSdk1qhqBWXEICQrykIAdz7PHDq1cArU+T4m2wMbFHnYYs6Dx03QUD5GI4r6TxWCsrAHEyMSj9upa2g9J2SfqxKwRiVZZXceJG+QtFSLEYoH5t0/MkCsSHtmJKB4xQRg9KdW2hMq7+pd463XvV1181UXCKkJbwzZXro12xJSHH9pXxL6d8/h6oy5mnKFN5SsnmE97Cck7z1Xny/MG4Oew3dI7S+pKSVK1dVtKrS3Y+4JvlBrrKQn6XDe5HUdPio4bG/bdmokYeG5l0uqba2BqNGHOouOXaMGnloWMES89SwsjwclW9PyXEXmQSlcnpv1Vz2GrpHYj8z5Uvl8v8/qd8r6HTqySeWzR2bmkNNTTVO+WHE3WNKmPbea0jFXtdykXhHpXRQ+YnlIsoRCFs56ToslXLSqC6FdBK+/A7ww6uA+1+UY6eqgF618jav3TYTJmakVkimqqSy0qgmTZxJZbfiTgoVi7KDimUpbVJVGWzr9+1g7IIxKsusnIVUKdrKR6lS9JWRtjqxSeVaVdmkFJDGaan6aruut5NWYmbVOHZfOQ81ZoRSMzCOPV87Jqbpo9vK11nU+lkuUCakmcyfv1Aq4ixPt+v09pzKONj3GrpH2X2I2HOo/GKzmPXbtLd9bgU7P1qDQvubZPv55/wC/croA2dNTTV+ePKJgbqo9Tdnj0y5hPaKpBn70972SsNdv7sVSbLX1FRjZAKcZPZ7qOasz3nol2NkP//cMyxrvBk54pDQ/Autrz3tC+Z/7FiTyYsvvWYeN2f9zkO/XGL7qBGHltV7q+ZSU1ONU5QzKWp/bJJmTzpuPHR3fe5S42b/4cknVvRra68998APTz7BlN39KbR/G2Lv12/70GcsUgaOSs868foxy/nL+RBCfe+vchFx69cPFwIX/w245gHg84wcs6Yr0G8LD903BwAr3qRRR+p4lohUWJoYlcouY1iqeJlCOi99taQfGzOVAgRU+4AaM6hOk7NiOall43C0FJS2qjLrBZWLWf1YOyKtvoEYlJbjsUnVGwWl5/cJJkuxGRhf9lnvxMTUaknTX68lIuZlrvWzXLhMSHN4Z+p0pEQwTkDK+XVbHO3l+CGipqYa/fv1LWr9cbKvWrkK70yZ7i6H5EC+nyt+f5NqP//cM8ryddq/3/YBFUzU+ovdo1Lb5y8ojy+ZW0Ix+xMLewX+6kwk6fwUsJ9ifcEXd/bac0ho/oXWF3e7dl4khb2G7oHuTqzKfOtrb3s5XJ7emTINK1euilxfofXHwT6gf1+MHHGIu6yKo6amGuef84tEvX4K2svgBfbSy6/lXl+h9bezvX+/vrG/G0Ip2GvoHhg1cnhofwrt34bY+/fvi/PP+YU7FVIOjkpbVcO8uLwQIoe6suEL4I//Ac66GZgyR9q6dAL6bgH06Q5ssrGKHaljTFoKSa2uNHbL1qFKxss0ZVtBGRGr0sSodBSb2plpVJU51s88eXnWqBj9mJC2irFJxaI06sRAHEnpGAzFmNR2S/lolJiRasmgitOMZ/rL48A5jmf1kf2DSktPqUU9L7xu5kXmhDSTgIPJPIlU7j6pYmTv17d84lPa9Ou3XVHrD5Z1dfvZX3zZ/3U6KUR4/4Ll5NvPO+f0snRSQn05tufQ3fOuv5g9CpZ1ddvaK9lRCRTen/jYK5Si9yee9pEjD0W/vsm57sn3GxYF1hd3+5577iGvzQnDPGcKrC8O9oaGVcG6BDJfq0Ij1qceOGVdHQ/7yMPopNTU1FTjPO3cKHL/4m9PLu9Mme5fI9z1FL3+9rHX1NbgvHNOD9RVMiNHHBL8QUSB/dsQe+B1TEIk3lHp6ViEzIvOi0UoJyXg4YGXgO9dCjw5Xo6z0cZAn+4etukNdNzEg6hS7W1Vo1I5RsWW1LdrNYrKKkiFpB7HsutbzQqhjxOOaWmPLdTx3HUzT26unYq2orHJVjQqJ2BQtejYrdy2B2JQhsYIHqdJHSernJJNWkFp2deHjhNUZ9pKTDd31828uJyQ5mBiSKRSgV+32b98i6N9r73K77avmj2H7F5w/XG0r1y5ik6QZuDuX6H9TZL9vHN/kagv61vCnkN2z7l+kSq8R+1lX7kq+V8yt5Ri9icednfmFYC9FwX3J5722tqaxDkQ+vVV6vAi1hd3e21tDX74g+SoWW323NOJfRyxvrjYFyxM/vu8KdPezbm+Qutvb3ul3/I1ipqaavzwBycUtX/xt7urSxYvvfJ6gfUVWn/72ZP6/6MtGXnYIUZZWWj/Wmrv378vLr/01+6hiUXiHZVCSAc182bkzeCVacD3rxK47Ungm/XSGdizBthhK6BmcxkTUseOdNWPOu/QwVdTmjZa/WgpL1MpNY5WRerHuk0HgQ6OOjNwXPNYKjJD62ae2DyrnIO2EjEUO1I5CD3l1MzqeJF2TEiloPRUfz2eh6BK0062itOMrcaUx3NiULpjWPPWxzWqSm3PytxdN/PickKaw5SpSk3pOW5u1+sdM3vf7ctTTQn1gbufu75m7k972c3ziTSPIvfXLweLcbKPPOyQslU729TUVPvrjNqfPHsky8Fiye2Vjrsd7v60t73iaOb+xNB+8knHO5XJYM8huxe1vmA5WIyDPan7DwD9+m4X/PFdxPqC5WCx1PaGhpWBcpJ4Z8r0guuLq72mphojDjvYMRIA2HPo7v4PRXLsn18OFmNnTyjzF3wsrw3uctz1xdDer+92FfHZpSWMOOxgnHzS8f7/qIj9C5aDxXz2k086HueeTRVrIRLvqPSsFCirCtrD9mKYtRi46O/A//0LmL9E9uvWxUP/LYG6bjJ2pL4lrFQ0WipHFVvSjjspTNxJQEDGmLTtKRWHEioGpe6vFZkpS1mZSknfhLGrmJi6TUr4GxC1/kL7Q3v87FkvGNNRx5M06scskHViUGYdNWRWPV6f9dDUFIxbKfvrsSzFplVn7LbSMqtjUjrzafLHsRWbpq8ac72lsMyq29RGrb/Q/lS6nZBimb/gYyxYuKioX7vFzZ7EW3s1hz33tNRaEesvtD/tZV+wYJG7FBKBfC8Y3r9C+xt3e/9+21fUl2gjDjsk9/7k2KNCe9jW9pUrV6FhZXK/ZN4QitmfuNgrD3c/3HLz9q/UdnnL12R+ydm373YF1xd3e21tbWL3X9Ov7/Y511do/aW2N6xMrjJ/6rR3C64vrvYkO+NLwdChu6F/v+1z7l+h/Y2LPamsXLmyqPXF0T4iYXdDKDV7Dt0d5579c4wccUjk/hXaX9c+csQhuOzSX5X99zmtReIdlQFVja2yUYo62sP2fHzRCNz0P+CH1wNjP5Dtu3QEtusDbNVTYJONfUVjUCUpVYwmdmQHqZD0VZHKHlBY+rEqU2YsIWNUqsdVVkxLnYxaUyk5bbueV1UHkXP9hfaH9vjZpTrRVkDKeJIBFaMT87HJUS9mlTLS85RdP9ZqS61yVGNndaxKa2ytgrTHlmM4dqh5WPPxx9fzDsayzHq5119ofyreTkiRTJn6rluVCIYOKf83tX0T+oVbw8qVVFVWKDXV1TjnrJ+71WVNTU03tyoRlEOMMULiQk11NUYMT+4PNPr13Q411cm+lf4PTjrOrUoc/fpu61aRNiCpIQqo+CpMTXU1DkvwtTjpvPTyG25VIhg6ZHe+topAv9f5w+8vadF3MTXVUhH+l5uuxYjhByf+fUcpSbkVScNW3Ji4ZSznLefiP68DR14K/Ps12a7DRsAW3YHtenvo0tFXM6ZSCMSdFFCPU7aCUsWdNIpLx66cjXo82UfaoRSSOj6lUVJWKbWkVmJa87EVnVKVmXv9LCevrJ2JQWViYcVi1rZHjWEpNW1b6HhZYL0XVFgau2orlZV2rsZx5qbns95ag+6Xa/0s5y8TUixT3RgtCUmV8GGiproa/fpZv65PUHr5lWR+UC0t4X1Lejq5DL4obi6JfZ26C6kQQvsQ01SJvzoTCTo/bioHRYB82oXXloRUa9+GO8EMteMexzytTKiicsrUZH7uEUIk+scQpaRf3+2S+b5MpST//1+5alVoPUlIlfj5ZUOoqa7GyScdhz/8/lc4+aTjsefQ3bHn0N3Rr9/2qK2pNqlfv+3NLZn/8Ptf4Q+/v4TXsRaSeEelVtswb0bu8NYHwCk3AH96BFizTrbr0Q3YcWugdnOpfOwQiCWpVJOWetHEjjSqSivWpCk7sSUdlWRVh3DMy5RWTwYUk+rY1hhVVUqFaSksQ+tmntjcqCJ1ykIqK1UsypDdVipaykijhtRKzGwOtaQ6huyvbX4sS1sFac9HlqPnY5I9H62q9IBvsyK0bubF5YQUQ1LVlAAwdMhublVZMnSPZK6zYeUqLEjoL9ZJyzjnzJ8lVgW8oYTiySaAJN+2j5A4UVPdDYcNP8itThxJvn7/4Pvl8yVzTXUyVfpJYcq0ZH72GTH84ES/RkvNiEOTf01OGkn9XqGc/n+Umprqbhg6ZDf84PvH4QffPw7nnPkzXPq7S0w658yf4QffPw6HDT+I/9s2kMQ7KrWaJjJXzohQPe0AgIVLgf+7C7jgH8CMxbKua2dgwJZAr1o/BmWVUlBqxaKODenHmrSVkx5SwlNOhKjYkh6qVFn3t9vp4wmh7JZaMmDXfc0x/ZiXcsz86y+0P7THy96UtZSPJpcqxKxRP+o4kUGVYs5Yluv92JC2qjI6VqUV61Lb7flYNj2f0DiBOQLZJt/+eT0wc3Hu9UfmtJsyIcUwddp7oV8UJiGVg3KhWPr23S60/qSkqdPfc5dDHNw9S2rq13f7iv4CbciQ3UJ7Eve0clVlOirdfYhtqsRfnYkEnR8rDS2T9yR9t0/m+43amuqy+v+TFCVYUlm4cFFoLUlI5fBjiFLSt+92wZivSUoJ/f+fxO8V+vXdvmJ+/EySTeIdldCKmqhkxTGLTJVqB/C3McBxVwMvT5d1nTYFtusNbNML6LipH+sxZRSPSg1pKx9VLEkTpzIl1Zd+DEsrdqRWSFrKR93fVkhqh6ZWappj2wpLS0GZsmJeVqmYmLo+5/oL7Q/tsbNngYBCMgu/TjsIzWM7XqSON+kFY0tmPcATfnxKPbbsH1Q7SgWk39YoLIUVy1L1MWpM1c7YI9SbWQFk1gCzPhVYtir/+iMT7f5jQgqwYOHHWLAwmYq3IXt8x60qW2qqu6FvAtVaAKiorBD6br8dzj7zp251RZHEXwkn9bZ9hMSNw8pEuZPUeLvDy2T/Ndtvl4w4lUn8sUtSFV90pLSMk75/rFtF2pAkfq9w2PBhbhUhsSTlViQND/ljl7EcLg//HXD3S/JxVRXQu7uHflsAXTv5jkBfrejHloQdO1KrK63HgdiRlooyVaXGUe1dhWRKKSTNuClfqWk7Hs18jLrTVnm6MStzr5/l5JVtJ6JWL5pkxY409kAbO7ZkhN08VspILxzXcn3WV1DqGJT28dZbY9l2ndZbx1nvefhiHTD3c2DxCuCr9XKdPxiWe/0s5y8TUoip094P/aowKSmpjruWMnTId0J7kIS0ctVqTE3oLbZKgXz/Ft63pCX+yl/SL2Hq50p1VLr7EN/kzrwScPcg/qmcYi0lUVFZU1Nddk6cxLw3SOAvYxd+vDi8jgSkcvkxRKmRt6VMTtxXP7kriT9TpyUz9mulfadAkkviHZXSQca8OfmK1TLv3g0YuDXQo5sfW1LnKUsFaSskjapSKxyFFXPSilFpFJYqaYVmqJ1pr1ST2m4dx4yhkxPLMup4KaW2ilo/8+TlbuxIOwak50mFpa1m9LKW8tFSQ3pK2RiIVWkUkL4yEo4S01N2fTzPPZ6X53jWMb5eD3yaEZi/BPjyK7m+/XcG/vNb4Lyjw+tmXlxOSCGS6kAaktCYjRtCkj9Evfzqm24VKSOG7LEb+m6fDPVHW5Pk1ykhpGWU2x0eqhOmDk9qHO98VFdXu1WxJIlxjpOo+Oq7/baJe13GicMOpWKuFCxYqOKmJYhK/E6BJJfEOyo95s3Ou3by0H8LD1vWAh20WtFWJ+aIDZlSyseU8CBEDrtQMSgDdkchqdrJ5B/PJKGOY9SZ0bEszRwRno9Qzouo9TNPXt5kx4aMiB25vsmORamUkVoV6caqVMrGrKWQdGNZrvesWJaqnYl/qRSU+Y7XpByq9nyXrQRmfQLUfyHXtV0v4I8/A/5+DrDTNtHrZl5cTkg+khhDQqdy+1KwGKqruyVOraXTqlWrsWDhIndJBAASqB5y00knHuMuqmLZfvttQ/sT91SJuHsQ51SJuHsQ51RTU112DoTamurQOuOcti/DH8r0Tcz/Enfm8WfVqtUR64h3ojNlw0jqZ6ikMW168r5boBObJInEOyqhFTVMRaftewt07qjjQyqnn1Y02rEhLcWiLGu1o44z6SsfU5YaMhA70qmzj9chRyzLlIplaSsszfEsh6a0i/B8VXLXzZTc5KmYlFqx2KQVjhAmPqVRN+pYlXadlyNWJWR7PaatujQKStXO9LGUlKH52DY135VrBWZ9BixdKes22gg4/3vAmMuBkUN4PWuVREgepk1/z60q+LSJi71S1VvDD8n/YarY/ctFW9qjnm8kSL79Q0ztw/kBP0ChOJVRe2hTansS1TBtibs/Lu1tr3QK7U972Mvxh1O5HK9R67dpD3t1dbeyfU/onoeo9du0tz0JTJ2W+71oofW1p70crzOlJsmfoZJAvtcWilhfe9ipVCZJI/GOSo+p2cnEcnSUj1rhKCzFook7aascndiUKa18NGMG2wWPETxeVGxJ/zjWONYx3XGMzZmXu26m5CatgtQpGyjbyshgna1wbHLtzphmnCbLZrfRMSat+JXrtTrTaqNjVK5Z52HBMmDRCuCrb+U6jt0XePZKD6ePcK9kEnfdTMUlQnKxcOEiLPx4MVIRvyy0Uxzt5XiLr2Kpru5WcH/ial/4cfJuB1QSBEL7FrV/USkO9kJf/FQixe5fMW1KYa9EmrM/bl0p7aICz49I0PlJCYG+25Wfk0wopX8x63frSm2vqUnGLVJbQjHrd+tKbV+5arU77VjzsRWfspj1uXXtYa/kzz2tSdI+Q4mE/f+3X1vFrC8O9j34AwCSMBLvqBRCf/nhJ112c9plMqpDFdfRVj520PEetSrSVlraj63+geQoHwN1+nhG+ejXmbbWfAIqT7ddjuOkrPXlWr9bT3v87XZMSn1bVQ+5Y0dqhaUbO1KrKT2lxHSVkXq80PHUWJ41tq4zdjWf9VmBz+uBeUsF1qyT899zB+Cei4ArTwF6VQv3MmZw113s/lS6nZBcTJv+PhDh0E5C+dBDDnRqK4fq6m6BW5xF7U9cyytXrsJUqirzkm//4lg+4YTvOTWkurqb+XW2u19RdXErVxru+uNerjTc9cet3M35n1wu5LqGxbFcjo5iTTdH6RO1/jiVk8CCj/0wBO7841reY/ddHQtpCUn+DJVE3PnHsTxkdzoqSbJIvKNSvxA9K7n1tAftWsmYEh6Eo5CEUDfCVHatTtRqRa1+FFZsySjloxAeqlwFpaXIDNntdmoMaffnE1BQRiksrfkI5byIWr9bT3v87bZCMmvFpfRjRfoqSDs25PoiYkfaY5tYlVGKTX087cC07Wo+y1cDsz4F0l/IefeuAa4+FRh9ATCkv1pMHtx1F7s/lW4nJBfT3n0/9MvCpKRKv0XL8EMODO1JUtJrr7/lLqfi0cqVpKW+22/HD/g5qKlOVny3SsTdg9imSvzVmUjO+SnnW466a41rKmcnTiLeHyTsGpXE+JTl+GOI9iI5sV+T99pauCioqIx74u2USRJJvKMSWlHDVHTqoGNG6hiRlsOvqkoEFI2yzo9TqR2IVVU5YllqlaWOO1llKSit8apSflxKHasypeqqVJJ2fz6BWJZqPsJqb88nxRiVZZUCKkcVE9JWSOpYlbYK0qgmI2JH2qpLHatSqyqbzJjBOukyV05Mx75qrVRQLmmQNgjgjJHA81cCx+ztXrTyELF2piISIRFMm/6++dGKUA+SUuZtJoHqbt1y7k/cy6tWrcZC69fsRJJrv+JcPvSQA2QlCVFTszlg7Zd8rPPce9oe5VUJu21fa5FrP+JXlnmlkXs/4lWuqS7f244iYr1xK9fUVJf1j9dqauTacq0/LuWkoEMQuPOPc7mS7yLTFuyx26559zteZZknBf1+Mvd64lXegz+2JAkk+Y7KHGoblnOX7XiStlJSCA9V+haLlvNSx7LUTkStWBSB26xqlaa0p5zxAmNZyketqtTz0OPJ8ZVdtbdv62rm4ygtq6z55lo/y8kra+ejUTpacSJtNaRdp9WPuk7bdYzJ9Y4ycr3p68S3VOPoeJS2wrLxG+Dj5cDHK4DGb+R8Rw0BnrkM+P/23jtMkqS88/9G9biudjPTPd57v96w3sFiJaxAGOEOcZIQAoF0Oum4E7pDd0ISSNxxP0knISEkPCwL7GKWNeyyjt2dHb/jvfdtqrtnZ6Yrf39ERGZkZGZV9Ux3VWTm9/M8MVFvvG9ERkRW5lT1W2++v/sGdW0Mk7j1U64sExLHi+s2QIgCROiXhemQr7nmCns5uWPSpIlYtHBB7P6kQX5x3UZ7Sbmn0n65Ki/M8OP2LpdJsRGV0T10Rc4jlfbDNTl/VN4Pl+SsfiaRf2+Irtc1eXKGnZSSyut3Q7bn7C7d3d0x83dbnjQx6+/x+pK271BpQf4IOjp/l+WFC+bZyyDEeS7hz+iOoR1rqugIG1OmPixrh6COSmwqAGN0JKLRpp2CTU1Kr52NOpel1oeiIoMISz2eaVdQkZi+Xo2vIzu1g7RJRWKa4xWa5BpC8zNyVZrzLShnZtz6q+0P9e7pdTSlX5t5IpUjE6pNRj+atmF9WUVGmnkoTbsg56XRZhxbR3Qe6xbYcQToHZRzvHIB8He/A3z2fcC8qfaNqkYS1l9tf/KuJ8Rmz9796hfF1VzZ7ukXLpjHL+yKu++qFs0W3b8wjdPrX7STSiTvn6Sx+muuzuYf5+tL5T1uvD7rVFu/6/qsU239jddPmjQxx59Jqu9PZUZGP5H7n0Cj9W6yZ+8B9ara/N3R05ky8iyouqe1n594RlvvOtXm33h9lh8ZTrJN6h2VXkxJaqdeloKOiDRzOqpIRB2VqCMsdQSkMJ2IQh6hEGNX8CMedd5J9dpo09GT/rEjOSjj7IzxY3JVBsdQ81URlXGl2v5QH21rtL4cyglZOUIyyEGp7LReRUPqsaSsIiQNO53z8qLRR9rL+mSPh22HgBM9cm6T2oA/+TXg3z8B3LJCLeASSVp/tf3Ju54Qm3XrNyb8utAu7un5pSKgev6o6P65ou/u7mFUpYH8nGfvU/L+uaC/9mpei5WoLa9Y5T2upz6PDGd/4kt99Hn91Vmt+5NcRl+f5Wg++Yh5e83D259o28jrs3wOkPj5oPb9SS4jq08L3T06P+Xw1hct9dNn+dHGjSIt97c0/f+/d9+ByPyTS+P18lf+hKSP1DsqdYQNS+2lSUU/jlE5HQt+BKThjFRRkn4uy1BEpRE1aUZO6sjHAlAoBPkv/chJ1aadj7K/8PU6l6WZvzIYz9CbuSq1jX+MIBLTXjdLeouOlPRzQ5bh547UEZJl5Zj0oyShHtsak99SR0jq/jKiMojI9Mc09H3nBHYfB46cFbhQlvN6713Ag58C3n6rHO+yiVk7Sw2FEIsX12303xpCfQHS34N82VH9Aj5q0mfSxA7fcVvr/rmkf/SxJ5QV0Qxn/xqtr/5r9HwzcWJHaP/i9jAkN1ifV2rdn0br84a9/mr70yh91h0I1dbvij7rVFt/o/V+QwroPtsdmX+19TVSz6dXjA6TrM9oso7uvwv6tLBvn8r/quRa19coPSOVSVoRnjcif15vGGs+JiNqhIqs0bXGbqceeOWVHgpCAEJFR8qXECpCEfBQKAgIKNmPZpRtgV7WQHgcma/S0iuXeDBeMCbgoUnZ6ShMcw6+nc6Bac5Bz03IcXTb7mPAlx4Or7vW/aHePf1dq4H2ogd4AkOetNR3rqGyrMueNB7ypJ0HLVv6sgcPAkDwOFdo5yWAstKXyx4EBM5dBE52A2f6w/P5j/d6WDZbvUf99z5URK8cfziUBoGb/nP8+u2a+rB+8xeMRpJ7Xly3Effd/4DdnAoWzJ+Hq69aYzfnmn37D6Q6MvE/fODdWDCfXxTTdl1ec/UVeMub3mA3E4O0ndPP/Nmf2E2Z51N/+j/tJidZMH8e/sMH3m03Z5q9+/bjS//yVbvZOe6+6zbcfedtdnMmSMs5eMub3pBpZ8599z/g/Oe8NN2j0nLf12T9/d0oznb34HN/83/tZufgtTV6fPL3P4JJEzvsZkKcJ/2Oyo/bLcEftJPIu/7eq6VjUUAaaueg8hX6rwXUo12rtIX66GLqzb6GTaQNMkoyMgerj308uw0C2HMM+MefyXabavtDvXv621cCHS06klIaaceip9rMnJS+XjsiTb2RfzKuTTsuPQ843iMf8apZMgP4zVdJR6VQkywY14OAnLyWh0PpXOCorNSV+qh+099aDSTXfO5vvoiz3b3wPPWjAc8DhAhk9S6invp66K+5ag3e8uZfsd+muSNwag1v/xql5x/OqvPiuo2473s/9PcPwLD2uN763Doqa9yfRuoXLJifmj9UjhR79+7Hl7781Zr2p5H6u++8DXfflWFH5T//e8X1V9ufeuj/wwffk+kfPN13/wNY++KGxPVX25966OfPn4sPfeA99tSdQzvf7flXW18j9Z/8xO/SmTIKnO3uwec+/8Wq+99ofZr+///Un/55ZP7V1tdIfR4/95JskPpHv3oxJamdelmkk9KTkY9WPsmCyv0Yyvno61WuylCbaWuNUyVXZdLxdI7KpHEKwkOT1aYfESuEh4Jaqb3uWveH+mhbo/VllVdS1xeNnJU6d+SQipYM5Z9UbReNXJZmfku/mG1DHk6XgG1HpKPSA9A8Hvjo64GvfAy4faWHsuehrDygQ0My76UunuEg9fSCaiRp/dX2J+96QjR79x1Ad08fhBAysl8IiILM4SAj7oOcDtRTXw/93v0H7bdpLpGfA6P7U23/GqWnk7I6kyZNDO2fvYfV9rje+jwynP1prN6eeQ7Q98Sa9qdx+kmTsuxAqL5+F/SI/EQza1Ref7X9qYs+JTep7m6ZnzIy/2rra6CeTsrRYdLEjpr2v/F6e+Zusm79xoT5V1tfY/TXXC1TpxCSRlLvqJShSyzDKTrvZCgnpModKXNAAgWVJ9LP+ajadE5Is48ep6Da/LyROlelP64eMybnpWrz+6hxtKPS7GOPE9iotiZZ7HWzpLeUYeSo1EU5MD0IX6/zSWr9kNZrndFnyAOGEB6n9DKw75TAoTPA+SF57De/AvjWHwDvvFXecjwIv0hfpfAdkxGHJYbprIxZO0sNhRDFuvWbAiHyzceSqQ/L1FviyOi7u3uwbr3bjzRrCDXun9FgiaOnXzB/bkhDakEMa4+lWG993qm2P43W5w17/dX2pzH6iROznaMyIH79RoMl1k+fD0dO8vpVgyXWW58yIvOvtr7G6Cfm4r3dOIL9jd9/o8ES6613n+7u3kCIzL/a+hqtJyRdZMJRaUbZUK4uC+iIRMPJp17Lx7oaEYvKTuvNEjuO1unjNAXjFOzIR2Mc/zh6fDOassJ8zLH1ODrKMmn9lNMnl1XkY1lFPoZkI7pS62UkpZZlrZ2cF41Iy7KyO38ROHQG2HMC6Dsnj3/9YuDvPgx84leAiUXLARnnmFSPoJU5LlVtOS4rUWn9lKvLhADA+g2b1C8KWVjcKY89/pT9Vs0h0X1xtUyalJc/zF8+9t65XPKIvQculzxi74GLJevY63WxZB3hP3HB7ZIG9u0/GJm3y2Xhguw+0tgFJk+aGNlzF0sa6O6R0cppKfzRJUkzmXBUCiFXIoQh2zX1vjxGRyQa0Y/CeD1mjNYbkY9GhKNua1KRlqFxlLOxqSlhHKOvL2u9EdVpHqemcZrCY2pnZdz6Y2vq49sd0ZeVY6qsvFPa+TeknYZKP2TpyzrvpH58rJaNqMqTfcCOY8DZfnm8OV3Ap94G/NV7gZWzLcekcnpqx6MZNelBOiv18XXEpW9XxWEp1D9x66+2P7nXE2JHUxLiEN3dPdi774DdTAghhDhNPqL5CCGNYP48OlMIGQ3oqCRpJvWOyoijQNe62O3UB5GI6o/8wev4tjh9wYyGNPsYY5vFjIYMjWNGRpq2tp0RNSn8XJmqj5qD7tNUkJGh9rpr3R/q3dPrCMmLQyrfpBE1ebHsYWgoyEF5Yciz9MDFISN/pRrjTMnDrqPAsW5pVygA778T+NePAHetjkZMlstBbkr92jMiM0POUcOhmTSG53nhe1mF9Udq6kMyIQDw8yeeivyakIXFlfLzJ3IeVSkQ2RNXy3x+ua8JgfScU5HTXzXZe+BqyeOvztJy/WQZngM3ECl44kJa7lHdPb2RubtckI5tTS2TJrofUZmWaysN9ymz8LHKJM2k3lEpP2GyDKf40Yk6gtHMVakckGOUXud8lBGMQR8/otHuY7UFkZJBzsuIPmGccB91XCO3po4MLRiRlv44MetmSW/x/GhII9+kdgqqyEjdpvNHDlkRlGXVNnBB4MBp4NBZgXMX5fj3XikdlO+6NTlaUk/Gz1Hp1ZCjsuoY4duZvW6WGgvJPfv2HUB3d4/dTIgz8P1JCCGEEEJGi7R91pzUQWcKSQdne9J1bRGSZjLhqFS+AtY11jq6ETE5JguFKrkjjRLoY8bREZTKztab4yWN06TH8aMvY3JVKqekjszU4xRURGXc+lmnrx7yZDTkEIIIxlAuSgQ5KbWDMrCT/c4PAcd6gN3HZR5KD8DqucBfvAv4xOs9dLXrnJLxOSZtB6Tfpo7rmbkpjf5x0ZX2GL7DMmH9rKvUJPes37g58ktCFhaXSk9Pb66jKtP0S2Q+6rBGUhQlK1Lyi/2Rxt4DZwtyeH5Scv1kGp4DN0jDeUjJPaqHEZXEhNfWiJGma2vSpIn29AlJFZlwVAoVVcO6tjoUkWjlmGwqWLkjlT5wHAZOxjFjpN7PeWlGP5pRjnF6o7YjMU0bc5zgOAJNxjzMWo8jYtbNOr21jEBUTj0VGelB+LkndRlS0YshOw84UwJ2HQNOl+R4Xe3Ax14LfPZdwBXzpC1UhKOfW9LKMWk7G2E+ghRqjsp7ZvavOoannG1edN2sa6xJ7lm/YbPdRIhz8H2aDibyF/6EEEIIIaMKP28RQgixSb2jMuwoYKmlCDP6UD+EUiCcY1I7Cv3cj1G90JGMIZ183WTp/QhL09bIb6kdjWYOygI8NFljNylbHalpH1s7UoWKtGLJRhnyrPyUKt+kX1QE5VAZuGDoes8Bu08AR7plZKUH4G03Av/vQ8ArV0dzS2qnoo6S9IvKKWnnpvTKOu9kdIyIY9Iaw+9nRG7a62aprZB8s34DoylZ0lF6enqxb/9B+y2cG+z9cLUwr0utRPfO5ZJH7D1wt9gzzwP2HrhZsk10vS6WrGOv181iz9pNovN2u5DRxd5vN4s9azeJztvdwifDkLSTekclVFQNS+3Fj1ZU0Y5+RKMZsagdmWakoqUPjRNqi4mMNPT+OEa05LDnI6J6c5xCIbpulvSWMhBEVUKEclSWlSPTzFF57iJw6Cxw4DQweEGOcety4IvvB959q3x/eEJFUMY4GYHA2SidYdKlryekj6NrexwzStLTY1ljRCI3eT+79EJyzeO/eNpuIsRZHs/x418JIYQQQsjIk7b8lAD4wzCSGtJ0ffG6Imkn/Y5KAJ76QzXr2uqCipQUQkUsqryU2glY0NGJyiGo9dIpGPQPjaP6+3Y68lE5RpsKQeRjwYiM9EsoElNGSprH88cxIigrzacgoutmnd7a84CLKg/lkCcjHi96KkelkofUY2CP9XrYdRzoHpT9F07z8Ce/Cvz+a4GZk6Rj03RMlsvSM6lzS+rcltrBGLI1HJH2GGXlnSx74QjLkBPTiNS0nZtl7SCNWT/r6jXJJ/v2H0xVzggWlp6ePvttnAvkEzWi++FiIbVj753LJY/Ye+ByySP2HrhYsv6DQHu9LpasnwMwsnVkSNHnLF3IaBPdcxdLGrDn7HLJwX8aJOOk31GpHh3KuvZaOw79HJVGRKIw9E0FRPSmc9AfZ0w0B6UZiRk4FWPGsecjAruQg7LaOEY9piDHsdfNOr21zjVZVg7EIQSRiLqtewDYeRw4XRKAANqbgQ/cAfzFrwtcNV9HZep/wtGS0kmoIiOFEa2Z4FCMjhNESOpxTPvIOOoxtJ45hhddN+saa5JbNmzcYjcR4jTdPT2MAiaEEEIIIbmF+SlJWujuSU80JSFZIPWOSv3HfulwoFyLbOd01E49AStHpZ2DUr+2c0PqMdU4Ba1X4/nRjgXZ5vc3j6ePpez9cSy9dm6G5qOPDRmRWRDSUZq0fsrpk8uezE150QMuXgxyUJY9oPQysPcUcPgscH5I2r/mSuBv3u3h3tUyn6WZE9KPmIxxJpY9yLyTZpvR31ORl+Y4Qa7JwAkZHT/o76nxhoaCcTw1TtL6KVeWSX7ZuGlL5FeELCyul425dLBH98HVQmpDfv6P7p+rJY/Ye+BqyeOvztJy/ciZZhOeAzeQt4Doul0q6bhHReftdrHnT0YaXlsjRXTeLhfmqCRpJ/WOSvkJk2U4xcwhqR2IBRXRKCMVpV7b2G1jxuiIRzOSMoiC9HNPqhySoXGahN8edzzfGWmOY4xtHs+fj46wNI7nf6ZnyUQpewgiKFWuygtl4HA3sO8U0H9e2l0zH/jMrwHvuQVoHi/gGW8EOyekdiZ6tqNS3VoCh1iQW1K22bkldXt4DO1A031Mez0nOQejPWbtLDUUkktkNKV6A+gvOaoW/pce6ql3T9/T24f9+w8qmxxR4/40Wk+GiblvNe5xw/S5Y5j70yi9X+eNGven0fqsU239jdZnnWrrd0XvOD0q6itx/tXWV2d9x8SJyo6MKgn7X+381E2fgvtcT3dP8vyrra8B+o6OdmVDSDpJvaNSwMhVptooV5a1Q9CvY3JM6mhGP2JRRTbKHJGBwzAULennvIw6HcNRkDoXpTUPcxzd32hvMiMoC2oc63jmvJPWTzl9ctkDLpaV008AJ/uAHcfl4149AcyeDHzklcDHXw3M6fSiUZEJTsly2cOQ8jKWPRnZaEZcRuxj21W0ZlnOuGKOypixTDlp/ZST5RR8tiWjxC+efAaiIH85WIj5NaEQgnrqndU/8eSz9ls689h7UGl/GqknNaL2y96/Wva4Efo8Mpz9iejqqrdnngNEOs5PplHrrLR+F/QZPwsQSdFKNe5PXfSpOAsV5h9XGq1Pw5amnIr7X+381E1vz9pB4iJTa15fjG6U9YSkndQ7KgtN6scDOmqcddXaj1g0ohxDshHNWIiJfDTtwnKM3jieP45xvFDt56OMRlCajswxTULZqnHMvJrGvO11s05/3TMI7D4BnOiT1/+4scDbbwD+x1uB6xbIPJSAkPkoYxyB4ShH+NGNup9us/uY43iqfzCOjNzU/VAlR6Xub47jk7Bu1sl1U5O1hyQXbNi0Bd09vf5F5F9LWtaG1FPvqF7/8j1XDGN/GqkntWLtnyFU2+OG6fOGvf5q+9Nofd6w119tfxqkzy61rb/hei1nHXu9te5PvfTOU2X+1dZXd71+QUaT5P2vdn7qrHedavN3SN/T26utCEklqXdUNpm5CFlqKgUzn6Tv1AvazJyP2uGnHY5CeKpIvWwzIyOtcaw2KRuRkcY4pjPSHDvIdRmO6JTjGPMJ5a2MrpslvaXsedh3ysPBs8C5i7Lt9mXAn7/Vw6vXGPkhddF5IEP5Ka2ckCH7qGPRHEfXnpmb0nRixvQPjhHuH8lxafS3181SvTSl/n8xcikcOHhY/WqwEPpVoS/7hXrq3dT39PbhFzmKqpSf02rfn0bqSa2offP3r/Y9boQ+jwxnfxqtzx/D25+G6e1pZwq1zkrrd0FvTztrCFRef7X9qYvenrSLmHO3519tfY3Qp2JTU06l/a92fuqnd52JHR0V519tfXXXZ/9/DZJxUv8n3jFj5IcbltpLoSDQ1BREMsqoRR01aUQ8+pGUhl2T8CMjC1YkprQJ+oxpkqH8ZpvpjLQjLAtGdGShIPvqcfy2mOPZEZbaWWmvmyW9Zc8pgdJ5AQhgxUzgP70OeNdNQHtR53eUeEakpJkL0s4R6Udc6ryS2vGlBrLH0WPJdiPiUvXXff1+ek7K3j6+PE40ctNeN0v1MoYRlblk06aXAEjnB9TbIZCDj+fUU++yfuNm+T7OC/b6q+1Po/RkeJg7VuseN0qfN+z1V9ufRuvzhr3+avvTKH3Wqbb+RuuzTrX1u6J3nYkd7RXnX2199dYz6qs+JO1/tfNTb73rVJu/a3pC0kzqHZXjxwROCg3lyrLvzFN1EL0YRCQ2Kaeh6Vi0IxqbjBySQr02xxHGY1/9sY1xzDkEfYP52LksTWenbIsZpyCdPhsOBuu11085nXJXG/C+W4CPvhJY0GVEKBo5IYMoxnDxIx9DEYxBf7tfxD5BF+4fHce2t4vnyQhLTzk8zfVqKFeWx421Gkjm2bj5pfAvCv1fEmoZ1FOfCn1vbx/2Hzhkv8UzSnT91fanUXpSGwJBjj17D6vtcSP0eWQ4+9NIvf8Xt5xR6/40Up9lYu9hw9yfeuizjtCfDxLWX21/6qVPA5XmX219jdCT0UX40crx+1/t/NRDn5b//5PmX219jdDzRwAk7aT+6/j4sereZhTKlWXtPNSOvzF+ZGQ0gtK3U5GRZr9CQX4Y0nIwbngcHe2ox/EjH41+wpBDEZQxDsrgeNFxfroZeP8/A998Pnn9lNMnv+4K4E/fCFy/QDqqEiMcDceg51kRj+qeoV/bOSXjnIl2e9BXItuMSM2YPvZYcs5BbR4/af2Uk+XxdFTmjsjjMm3vNWXKKZKffCo/j38Fout3XiaVidsvu801OW/Y63ddzhv2+l2Ts469XtflrGOv1zXZdez5ui6T+mLvv2uyo3R0tMsX9nwdlXt66Kgk6SYDjkoZjcRSe7FzUBaMqEQh5EMqpVMwnFuySentiEYzl2UQYRmME8lRWQi3iZhxtINSj+Mfz5qvnsOGAx7+4NvA3/wMOFWS6+xsBdqao+tnSU+5bj7wqV8BXr3ayulYtaj8lFZuyrIX5IisWoz8lB6M3JJD1SM4A50xBzWOnkd0PbyXXUqZMNaz/1sgGWbT5q3o7StV+TWhlcOBeuod1vf09eXjC6VA7Pqr7U8j9KRGREw0Uo173Ah9HhnO/jRUj/ydH5GS85Np4u5hw9yfeugzj/58kLD+avtTD738paz7JM2/2voaoe/t7bOnT0aYnt6+xP2vdn7qpk/J//+J86+2vgbo03K/IiSJ1H8bbxkvQtE1LNVLbG5II0rRz1FpR1iakZFGf53LMjyWzB0p24w+2tEYE2EZmxNT56BUr7WDUvc9VRL43EPAH90nsOmwXF97M7B4GjCtA5gzGZjXBTSPj+4Di7tlwRTgt+4E3nkjMLlFOvIAAc/IKalrP0IxVPR/0FZuSlXHRT16yt/ljydUbkmhckoK1V/VZj89lmf29+cczlEJOxLUiMy094GleimOF6H/E0i2OXDwEPQZF+pDuP6CE8jUU58efW9PHzZt2apas4u/D1qucX8apSe1Ye6fvYfV9rje+rxS6/40Wp871LJr3Z9G6bNOtfW7os861dbfcH1KzkPi/Kutr0F6MrpU239X9Gkhaf7V1ldvPX8EQNJO6h2VxfHSKWBCubIsjJyOBSOq0oyw1DkjfTvjkat2Lkvd13xdUHZ6HF8XE4lpOh6DSEk5N3m8oN20+9pzwPv+GfjpS3JdE8YCcydL5+T4McF6W8cDC7uAGR2yv70flN2R2ycAb7kG+J07gcVTw47EshfkltRRijpqMc7xaDsTw21yDKhISU87Pk3HY9nuY41jRFp6ALxIhKQ1Xkx7WUV96uPb+0G5utwy3m4hWWbzlm0Q5i8HWVgyUDZv2Wa/1TOJvW5XC6mV6N65XPKIvQfuFnvmecDeAzdLtomu18WSdez1ulnsWbtHR0d7zLzdLrl4okgD6e2zIiqdLPas3WTixI6YubtbCEkzqXdUtjVLRxaMQrmyrB2HTUYUY1JEo+mgDGTVJ+TADMYxIyB1mzCPa0Vi2g7KwLkZzlGp7R7bDrz/y8C/PiOj0ZoKwPQOYNFU+X4w12qWya3A0ulAV2vl/aHcGPmOZcAfvga4YUE0t6RZzM7SJohwjHMKQo2D0DgyUrLsAVARk2aUpn9sPa567elB1Bjm8ZMiNf15xK1FLV7PvdL+UI6X2yYIdXZJ1tm0ORx1pq9rypTTLvf09OLAwcNGS/aptB8uyGR4eDF76Jqcd+z9cE3OO/Z+uCZnHXu9rslZx16v67Lr2PN1XSaji73frslpw56/a3I3fwBAUk7qHZXtzEE47KJzPpqRkWbkpH5tRkbG6bSzUghlFxtVaUZGhiMxQ1GVcXaGg1IIYOsxD3/8PeB//QQ43C3XMqkFWDzVQ2dr8J7wPM98i4QoFIDpHR4WTwXaJjAnoAtl1Uzgo3cDr1rpoSCCfI6R3JJWGYpp83NTxuSEjIuQTC7h3JJlYx66TnJIBrpw5OdQ2YNXjl9PyCHKMqzS3mxf5SSrPP3M86FfChasXw5Sppxm+elnnrPf8plCfu5MXr9LMqkdc/8q7akLch6ptB+uyXmk0n64IiPjp8Zer4ty1s8BUHn9rshpYGKHjPqKm7+Lcg8fUTmq9KoclUn774qcBiYaEcv2/F2UCUkzqXdUdlSIoGOJL6Gcjzqa0o6ktCIjbTszv+UYPwelMByMIoiMbJLtfn5L7fBUOntMMw+mEEDPOeCLjwEf+5bACwfkGlonAAunADMnAmPHqA/wqgjpKY0W7ThtEiiOBxZOFZjfBTSPi7FlGfUycyLw7huBd1wPTG0HoKIc/byQEPAg2+1ox5pyU9o5JXWfGCehBzmA548b5JWEjpSsEMEZnUd4PWU1t7Juj3NuShXLMEsHHZW5YPOWrejp5a8DSXbp6enje5wQQgghhFwSHR1tdpPT9PJz76jB7xT5huefpJnUOyonFe0WUg0zOtJ3HJpRlUZkZNAu80r6EZSJdsGjW+MiKH1HqAjGjMuNKVS/774IvPdfgB9slHMfNwaYPQmY3wkUx9krS0D5rvRcBOS8BDxMbgFWzABmTZQ6MvpMGAu8eiXwoVs9LNF5KFW0Y5wjMeQQ9FBzbspEXVm6ESMRl5X62Do7R2ZCtGbl8aLrIMNnYovdQrLIwUNHQr8UZGHJWunt68OWLdvtt36GiK7Z1UJqQyAcEeZ6ySP2Hrha5I8M80Varh8502zCc+AG8hYQXbdLJTX3qJi5u1x6e0v2CsgIcfBgOr47p+XamjtndmTuLpfeHkYrk/SSekfl5JZwdA0KlKvJsQ5K3WZENobajKhKP9LSsDNtA7lCzksVYenbWQ7Kp/cAH/4q8A9PAYMXAVGQUXdLpwMTi5XXZ8qiKVijEHKcQkGo10LJMrrvyjnA1I7K41G+PPn6BcBH7pR5KKEiJsueESlpOvjMCMWQbEQ26nyS2iEYk2cSdrSjlZvSjLjUtT6eL4ciJWUfO1KyslPSWoeav3ROBhGa9n5Rri530lGZCzZv2WY3EZI5Nm8J52ElhBBCCCGkFjra0xVReeBQvvKzE1IvDh46YjcRkhoKdkPamNxiOSEqOjgoe56OioSfW7KgIh+FERVZMHJMBhGPgZ0ZLalfh/JN+s7BynY6ylII+aDNfaeB//YA8KcPALtPyfl2FIElU4EpbVIue0ZuyRhZ56gUQjUK+V6RawGgcnQCnuwADxDA2CZgQSewcoYX5D6N2T/Kw5cXTgHedxPwyuXA+DGBAy+cZzLI6ThUVrkm7ZyOduRiRFZj6PySFXJcJhZjDp6KvDTHqWk8fXwrR2VSf89DEFkZs3+Uk+XJdFRmns1btkV+JcjCksXS21fCwQz/0cZer6uF1IhIzzkVOT2v9h44W/SXtTyRkusn0/AcOIG9XidLSu5RHUYevTSUPuaoHDUOHU5HRGVarq05c2ZG5+5woaOSpJnUOyqntFoRNixVi45yHKNyRxaM3JHB41mDKMdYOx1hKZJyVFa2C+WpFMC5iwL/8JTAb34NeGqPnGdxPLCgSz7qdeyYYP52DkpTFkLmoBQFHT0ZVwSg6kKTkLWh7ygKrJ4FLJ0GTGD+yssqna3Ar14JvO1qYFq7cswZjiaYTicjp6P0JIcjFv2+yllVtp1WAGCMYUZeep7sZzsIy6pj2AlWOTdl3Hh+X7UoPYY5D3s8s+jj2vvHUr1MafX/OyAZ5Zlnn7ebCMksTz/zgt1ECCGEEEJIRdrb0hVR2UNHJSGjAvO/kjSTekfl1HarQVCuJpuRkdqh6EdQFuTrpoKyU1GVvp0RGRmXozJiFxoveAysMHJe/mAT8J4vA99+Uc5vbJPMGbmwC2gZb80/AQF1zAIAIweljqL0oym1M9MovjtJBHoB6Vi7YT4wb7J2qcXvJ+Wo3FQAbl0EvP8mYOlUFS1oRSiGnHwxDsSoTvVXkYdA9JGxkUewWnoYuSnNHJXDmYMZKQk1H/P4oT4J89NjmPvhecn7STlZjvwfQDLFlpe2obevFPmVIAtLVktvXx96M/iHGyFSEjWRg+iVkSO6dy6XPGLvgbvFnnkesPfA0WJPO1PErNfFYk87c8Ss2bliz9lN0hZRKRj5NWocPJSSiMq0XFvt6bq25FN6eG2RdJJ6R+W0NvXH65jcZZTjZT8y0swfqfNOChVBqSIOdVSldkQWEnJU+mPZdkLa+cfxIzoFXjgAfOTbwBd+DvS8LOc2pU1GMk7Sj3MUlWuhxhRNsk2o9elclHoucRGWQjk2CwUB0SRUX7UGI7flgi6BVywEppv5Kyvsb97l1TOBD9wMXD8/iHT0hI50BCBUhKRVtK35WheoiMOyjkiswSEo++jjq7E9eXzPC3JTmjkqPS+ws+eh5+AZUZtluaCgT5zD0hxHyYB8s5rHV0NF9pNyZXlaun44SobJwUNH7SZCMk1vbx+2vLTdbiaEEEIIISSRtOWoBCO/RoWDh45k8kePjaQ9hdfWIToqSUop2A1poyBk5FuSQ4ByVG4yckfK6EIZ3ahzRwr1CFjteNTt2s53RgqEoiUr2QnD7nA38JmfAv/p+8BLx+Sc2scDi6cAU9sAr0quPhlRJ/NKAsph4elf6wOQD9GUtQBk3Jphq1/G2MuB1EtlKwTQPBZYOQO4eg7QPqHy/PIqz5oIvOVK4M6lHopj43NLDum8lGZuSZVT0rePyeUYzmUZLnI8FeloRDxeNMfRx7MdipGi56GjJuNzSsYVzxjDzE1pR5DG91Fyhf2lHJWntct7CskuL23dHvmFIAtL1suWrVl0VEbX6WohtWPvncslj9h74HLJI/YeuFiyjr1eF0vWkX+Tia7btZIW7Hm7Xnr7SvYSyGXS29sX2WeXS1pIW8TyocN0VJJ0knpHJQDMnBhE2AgRRNqEZOp9WUY1mlGVMvLQbCsYjkY/gtLIN6kdmWZeSj+CMsHO84B/+SXwG/8GPLJDzqc4DpjXCczpBMaPlfOzc05G5m/llRQFFQHpR4gGEZVCRVhqWzM3pu9EVTktZVRpOF+lPX5XC3DjAoGVM4L52vOrtv9Z07dNAO5eDrzxCmBGBwAVYahzOZa95AhDIIi2hIq4DEU6xkRY2rI/hpqUjniEmRPSdlAi6OzPSdnqxen5mzklPVUijkVzLsHDhNVc1bqUfWgeqqNuj9vfavufZ/3MDrXpJJMwqozkld7ePj6uhxBCCCGE1Ex7e1vqIr8Y9TXy0EE1OqQtYpk5YElaKdgNaWTWxOC1dhZAWLKCehXxWICMgPQdl1EHpbbz26xIy5CdFUFpR1r+ZBvwzn8FvvK8nEdTEzCjXeahbDPyUFaav1COCgHPz0WJkGtJUtB2hr2eB4x23clcX3T8YGyh5lAQwNzJwJ1L5PxNKs0/JGdEf80c4F3XAUunRB1wgUPPyC0JI0dkQqRkrENPRV16+nVcn0rj6XmYteE8tfsktet1QNW23j+ePX+zVMiRae9vtf3Pu362ce8n2ePZ59YGvwosFMK/EqRMOePys8+ttS+JdCNQcb0uyaQ2BNQ5tfczrs0BOY9U2g+XZPXFK1f410/MfrgkZ5nEe5hjctYJrT1m/S7I8o9H6aCjoyMyf5fl3lK/vQRymRw6fDRxv12T0/T//5zZsyLzd1nu6yvRaU1SSXruChWYM0l90lRRN36hHCs3NckoSJ070nc8qjoUaanafTvDNmSndHak5cajwO9/T+CzjwAn+uXxO1uBpVOBTp1ftMp8hZ6bn1dSyDYrsrLQFM5FGbwWfsRkMIaxFtNJaY6fEF0p9ONxm4Dl04A7lqhIwoT5Z1FeNAV4+7XSUekpB1KkqLyQ0Lkl/VyMQU7GkDNQOw4Nh1QwloySLHsAVI5JP0rSqE2Hn11gRDiG+ho2Wjbb/XkIPT8jN6XthDRKaC5Gredv58hUQ8buN+V4efYkdYJI5tiydUc4t4b6gUAgh0XqqQ/LYTGN+t7evuzml6lh/WG5znoyPOL2z26ybRqtzxv2+u3taLQ+2pAvqu1Po/VZp9r6G63POvZ6I3KV/am33nHmzJoRbrDnby+nwfrenl5GVY4gqfsOHW1wltmzZkSnW219DdYfOnQ03EBICijYDWlkzkQZmeTZDgrKsbJ2RuooQ52vsmDkqAwclyp/pbKVTj0VkWlGIyKIqhTwcKof+MtHgd+7D1h3WB63dZyHRV3AtDZ5HD0fHWkXJwPKKaFfCgCQuSelgVH0ozNVH1HRPrDTRTsqfXvb1jQ3xm8b7+G6OR5umAt0NBszStj/NMtTWoFXLQduXwS0jpNRgUNGKZs5HctGTkolh5x5Sm/mlfRUhOGQBz/HZKgoB2M0clLlhQQwpCIda80tqYvMZRmN3DTXY/eJlFB+y+HPw95vypXlOYyozCyHjxi/BI39taDxmnrqM6jv6yvhpW077EsjtQgzR2UN62+kntSIQOz+1bLHjdDnkeHsT0P1ebzu9PVTy/40UJ9pku5hw9ifeugzT2Q/bLny/tRFb/5BynHa29ui86+2vgbrn33uRXsZ5BJJ3XfoFN3j2tvbovOvtr4G6w8doaOSpA/heZ5nN6aN5w4A7/w3+ddrIeQfsCEoJ8lffY+KDoSUC5B6oZyYwnc4ytfC0iHJTtX/9gLwL88BF4ekPL4JmNIGdEyIn0+cbB4Talx9XE0lvdnfs+YHT0VFenIftAwlJx3f72/KUgzpd50Ctp4ALlxMXl/a5OZxwBUzgBXTouvVNRL2S0COJyAjbm29Ldt1nF4fp9rxKun1ezj2eDF94sa222zbanpzfoPngfd8NX7/KcfL33gfcP0cuYckW3zhi/8IzzNOulULIZzXr1i+JNI+nP7UR9uHq39p286KervdNX17Rzs++N5fty+PVPLS1h146JHHh7V+u71e+o9/9MP29EkMhw4fxXfu+2Gwf0DNe9wI/cd/9zftJWSev/3iP9a8P43Uz549E2978xvs6WeaQ4eP4Dvfe7Cm/bHreuo/+N5fT13Ou1qJ3MNi1l9tf+qh/+D73pnZcwAADz3yOF56aXvi+u26EfrZM2fgbW9Jxz0q6X1daX2N1re3teKD73unvRRyCaTtO3Ta/v//7vcewMFDRyLrSlqfXTdC/7Y3vx6zZ820l0KIs2TCUXmyBLziC3YrSeKb75X3LRlNKX8fZjseofQFIWStPCqBc0bpBAD1+pGd0kF54Kw8TkHICLwprebRKyOPIseDzj8pD6KOG609016tx7aR65GyvIFrWa8hpo8e1/Nk/4SxdX9z3heGgJeOC+w6pXXpZeU04IqZwNim6F6GamMvdJt828h90ecp0i/mHAW1vD0VCvI86P01x4nvZ8xFRcgKcxz1fo7rExrTmIfu7+n+qo7tl1DL9yhC69Dv28ELwG98Vc6Z1MazHxve/YWkg5e27sDDjz5hfMhWVYrklSuW4lX33G4vjdSR3t4+fPf+H6G3ty9yftIkv/VNr5ePGko5L23dgZ89+kRkfS7KH/vdD9nTJzEcOnwU3/3eg8H+QX3gidlTF+Tf+0j+zusX/u8/Je6HS/Kc2TPwlje93p5+pjl0+Ci+e/+DsfvhkvyB33hHZp1kkXtYzPpdkD/wvnegvS2b5wAAfvbIE3hpq3ZURtfvgjxr5nS8NSXOlN6+PvzLv36j4npclN/65jdk4vNuI0njd+i0/f9/3/0PGo7K6HpclFcsX4JX3XOHvRRCnCUTz8GZ0gpMbNZeBZZqJchJGeSo1EWoR742CWCM0hdUvknfThh5KQWw/aTAf3oA+LOHgAPd8hiTW2QeylqdCMKIcCsUpBNK5pYUQT7JmHyRUPPTuSh9vVqHECofpRpbj6uLzjdp9rHnIexcmMYxdH973hPGClw7B3jVMmBmR/QcpKHMngi8dgVw5Sy53rJn5IGMyw8p/y8EIGvPz/Moc0JCuR3tfva44SI31/NULkdjPLufLxsFUPktEeS4NHNCeuYcjILIXKI5MrWcNBc9vlnLPbBzdarxvOg5YEkuHc21319Iuvjl8y/6169EPhY6TfKsWdNDLaT+tLe3YeWKJbHnJ03yL59ba0hZoPJ6XZDJcLD3L67NNTlv2Ot3Xc4b9vpdk7OOvV735HwRXb9bsvu0t7UZDj97/u7KW7ftDGnI8Nm6bUfi/qZDdp9ZIWe6PX835UOH+fhXki4y4agEgEVd8iJkqV4EZI5JnVPSd+jpPJNWrkrp2DRyVaqclr3nPPztEx4+/G3gmf1y7JbxwIJOYEa77Gcf2zNzUKoCoU6iGh8q6sxTtWEZtkXYHtDeHs+3k+3B2La9jrbTNratbe/PQ9upY8TbeehsAe5YBNyyAGifYGrcLR3NwE3zZWmbEHXiDfl5F4NcjJ5qG/KAiyo3o11C+So9+T7Q/WXf5JyOoX6GY1H30/PR8wh00XnEjxv0ryW3ZOy4xlo8lWuzrGvbNq7EnAuW5LKoywuuRZIZtm7bib6+kop2T29ZuXypvTTSAFYsXxo5N2krfX39mfiCKT8rRdfnYiG1Y++dyyWP2Hvgcskj9h64WPzvxxnFXq+LJfsnIS3nIT20t7dH5u96OcxcepfN4SPHIvuahpImZs2cEZm/66Wvr4RfPr/OXgohzpIZR+WSKfKDtP4sxzq5bioI6ZBUUYEyQhIY06QiKJukPi6CUr/+9kbgHf8ucN9mAQhg/BgZgbdgMlAcF39cXcsEvzIaUUZsBnVBHd+PkFQRimYEpxnNKNdh2BnRj2Ykpj++FfmoX0tnbFD7zlt7/JjIymAdgZ1f1DwXTAZ+dTVwzWxpG7cvja7HNMlHvN6zREaBaseZjIYMHEQAABWlqGsd6Sj1KnLS6K/H0OPIWkYp6nF0Pz2Odt6VjahEqNqfi7EA3c+eTyTKURdjPHnscMSmvw6jv56PnH9Q6+N6UOswIyUTIkDtUlaPZrDPC+v4eukUoc4AyRKHjxwFhHykclrrFSvopHSF9rZWzJ49M/Y8paXuLZVw5MgxpJ/49blYk9qI7FvMXjpV55DYfXCwziv2PjhZq3+zSOx6Hayzjr1eV+s0sWL5ksj8Xa/7+kqZ+GFeo3j40Sdi99X1Om20t7fFrsP1etu2HSAkLWTGUbl0iqxN5wHr+Fo74bQzsqAiJIWOoNROStWmIygL8PDUPuAD3wT+95NA/3k53tQWD0umyMfvxh0vWuucgUHuQFi1sPJhmjUse3PuUh/YQ96XdZeQnV/g+X1C9ta49nz0oPqlaVew56Hs1swA3nIFsMSx9+v8ycCrlgILO+FHFnp+ZGR8ZKKXFFnoBdGFur9nOh0r9bP0OsLRjHT0nX4V+oVLQqSkMZ9oH2tcI2JTjxPpZ80rojf6y/219CoSM+78sI7W+p5PssW27bsivwJMW7nx+mvsZZEGcuP1V0fOUdrKtu3ZeByWvS5XC6kRkZ5zKnJ6Xu09cLb436byg/yeGbMXjpVMw3PgBPZ6XSzBX3zSQXt7W2QNaSjPvbDeXgqpkdR+h07btdXWitmzZkbX4XjpK/Uzapmkhsw4KpdN1Z4olmrFjJYMIgXD7UJFFepclfvOAp96SOA//xjYeVqOM6ko81BObVdeuCrFd/yZOSjVcYQIckna0YoFnUvSzFep7Yxaf4YMR0yGx5TjBMcL7ILoRz0ne2y/GPMOzddYS2Qehn3beODWBcDrVzQ+f+XUNjmX1TOAsU3SAWRHJEJHBMYULyE60FObYI7nO/MMO9PBZ/aH1lvzMY8ZGlPVul+4hCMkQ/Oxj69kewx9Us15mA7JkNPRWk8wp2h/s698c0XPEUt8WTZVbS7JDFnITTJr5gy0tzF5qku0tbXZTamjt6/EL5eEEEIIIaQq7W2tqfw+0tfXx8+7l8DDj/3CbiKjyOxZ0+2mVPDL5/lDAJIOMuOoXDE16lxgiS86QlIYkZNmXkph5Ko8PwT832eA93wDeGy37N88Dpg3CZjVAYxrAjzPC50LW/bRzkQ/ItHO6aicEEYdsfOUrWWnx47YW7bCtDXG18WOljTH1uNqd1dobMNeiHBEpTm+aTOjHXjdCuCOhUDr+JDVqJfiOOCKGR6unQ20jY/PoahzSsZFKfq5If38kNHckEl9g7FV1KWZ09EDLlbJLRkeN8hzWdbHrZATMjIuwrklAzk6TqSv0X/IWIe9HnucSH8PQZRmzLliiS8r6KjMHM+vXR/59V/ayorli+1lkQbT3taaiVyVqf+VuUBkTa4WUivRvXO55BF7D9wt9szzgL0HbpZsE12vk8WeduaIWbNzxZ6z+6QxqrKv1I9t23fbSyFVSG00pRCpvLaWL1sSsw73y5Gjx3A4E+lEGk9fXwlbt+/E8y+sx3MvrMcjjz2JRx57Es+/sB5bt+/kPl8mmXFUdkyQj68UwnAssY6tm8wISj8iMMhLOUbpv79V4Ne+Cnx1vew3pgmY3QEs6gTaJsjxIGSEoX5ty0JEc1HKPJIq4lBFSpo5MM1aRiIKCFXrHJR6PDOaMTZnpRHNKMeQtn5/IXNi+lGVFXJWal0wXyPXp2HnH8eehxVZqee7fBrw7quB6+bEn6+RrAsCWNwF3LYAmNGuXK5C5WJUDqCy8VpHL0LJfm0MrPuHaitCUffTRcrR/mVPju1HNhq12VePF/RXdUJ/7RT0++m5eHreai5aVrXpTPTtVWezv78XRj+zDu2H8reHxlPub/t8sY6v50+W93ySHbZt34m+vhIgT3Fq6+XLliiJuMQN110Ve77SVPf1lVL9pcdej+s1qQ1z3+w9dK3OK/Y+uFrnFXsfXK2zir1OV+usY6/X1TpNzJo5IzL/NNSMqBwejzz2ZOw+pqlOG+1trZg1c3pkHWmon39hnZLIcOnrK+H5F9bjK1/9Nr7y1W/j0ceexHMvrMPzL6zDtu07sW37Tjz3wjo8+tiTuP8HP8ZXvvptPPLYk6n+/t4oMuOoBIBV08JOCNbxtR1BWYAnHXIqkvK5gx4+fB/wl48Dpwdkv64WYNkU+bjX2qmQg1I5HQQQykFp20HbKSebtvNrfSjDXtvpWq66Qg5Kcz56Hpa9OefIPDw5D3v8iJ0VrWmusyCAG+dIh+XSKfHn7XLrGe3ATfOB+ZPC0YHaeVb2owaNXIp+xKCpDxfPaNf9zUhJs7/dL3zccIShZ0Y4+u3xx43T+/2MefjtFfqZ87IjNv31xPSL7x8ex4N6HdGrvjHnjXW0XjVNvSCZ4cjR45Ff/aWtrFhOJ6WrtLW1YvasGZFzlqZSKvXjyNE0f9GJrsnVQmrH3juXSx6x98DlkkfsPXCxZB17vS6WrCP/xhJdt2slbSxftjiyhjSUUqkfj/78SXs5JIbDR45h+440R1PKkkZmpfR75ZGjx7Ft+y57OaQKz69dj3/72nfw/Nr1KJX6I/saV0qlfmzfsQvf/+FP8OjPn/R/lE+qkylH5Zrp0vHDUrnoaD8/grJJvj5SEvjvjwAff1Bg03Fp29EMLOkCprfLfvZYScXPLWlEEJqRhLrdzEEpIxqDqMRQzkrt9FMRilJv5KyMiWoU/nqj0YyhuRj2enzT3p6LPY9Ck4oMjRvfnm+MjTnuxGbg1UuBN62Se27v66WUic3AVTOB5VOA8WOMiEkhHT+6wH9t5YTUEY+qnxmhaDvXdH9PRTqWAUD1t/uZ/SNFR0p6sn9cvzKCiMS4cVAhwtG3107CmDHkmsIRm7q/px2ScXOK7IcaBypiVLnCY/vFnD+WaFmTzrQApALbtu/yrx1N2uRlS/nYV5exz499/tIgZ+mLZdz6XJLJ8PBi9tA1Oe/Y++GanHfs/XBNzjr2el2Ts469XtflNNCmor4QM3/X5UOMQKqJF9bKtBD2/qVNTiMzZwR/kLLX47r83Nr1dJrVSF9fCV/52nfwvJGCxd7PWuRt23fh/h/+BM+ra5ZUJlOOyitnyjcBS+XiR1CqXJWe5+Efnwfe9lXgRzukzYSxwNyJwJyJwPix4f460s4ugOHwAwA/gtCw0Dpp4Ov9OtQvsIPhSNT6wH2mjx4eVygnYGQe5pja92GNb47rr8ca27f3tBtKzT9mznq+ej5Jc9aOy3mTgHdc4eHuRTKfpL3XtZRxY6STefV0+ajeIJ+kyueoc0J6QU7JckzRuiEvyOfoRxqick7JUF/tmDPmUI7J5WjmdBxC0rzk/PWaPD2OOV6FNQV6Yy4q0tHsb/cJ9ddORqO/p/rH9vXtY8ZWx7TPIUt8uXJmcPmQ9PPC2g0QQqAQ80s0s7isb29v8/8YQNxk1szpkfNW6/l1RV8q9eNIWv94IxBZk70+u61RelIb8vNzsH/D2eO4Mtr6PDKc/WmkXn0Byx217k8j9VnGvofZa69lf+qhzzoClddfbX/qoRcpPQ+zZsqor2rrc01fKvVj247s/DhvNHhh7Qb/iUT2/tnFZX1a//83v1dWWp+L+lKpH48+/pS9JGJx5Mgx/PvXv4v+KhGU9v7aRetLpX68sHYD/u3r36WjuArZclROV/c5fb9jHVvrCMpCQeAnO4C3fk3gn9dK/ZiCfETokk6gfQIg1N6atRBBUncpB9GJfqRgQUcmqlrnpVR24VyUQvULclbqMSrlrAzlivSPGdgFUY7B+GbOSj+S0cihqe2CoseQOjNnpVD7qW39edu5Lf09kfNOmoc5rp7H1TOBD10P3DAneh4r1XMmAtfMAqa2BifPUxP28zGqiEnoCD/lBLJrjQd5sv3+KlJStln9lGMuyMFo1LqvETGpIx/NCMhQfxX9qcfRc4COeLT7G32THIAS2d/cD7+2+vvj6DmpQez9lC5rq7/hlDTXoWu9Zvs8so6vr6Q/KFMkfREVdoOFS/rrrr3SkIiLtLW1YqbhTB7O+Y2jUfrnX9xgN6WSpPVpGq0nl0+1PW60Pu9U259G67NOtfW7rs861dbfaH3Wqbb+RuvTwrKli+wmoIb1uaB/Ye0G/jE/gb6+UsXIrFr2txKN1qeF5QlPU6q2Phf0R44cS/wbDJH78/0Hfmo3AzXubyVKfSV8/4Gf4oW12fhOPxpkylHZPDZ4JGCcM4C1rIUANh4DPvpD4M8eBY72yfbOIrBkCtBVjO8XrSvnoCwox4IfaZhg79tZ9gLRnJWmXWj8UL/4eZj2UGND2aguvl1BmPOVq/Xt1NgFMw+lNQ/TLtRPqJyWyi6Yk554YKd14woe7loIfPBaYGmXtIk/HzKH6JXTgVntUjaj9jwdyZcQpej5uROt2nC26X7x/fXrhNyQcf2MOZrj2zkh/f7WmsLHtceXEY7BuuKLuS9xusi+JO1rYgnvh47YNOet7ezzyTpar5nuoXmsaiCpZ/uO3TU/59/lMst4/Atxl+uvvTJy7tJW0pqrUjBHZfYQiOydyyWP2HvgbNFfgvJESq6fTMNz4AZpOA8pvUfJx7+mM5deqdSPFzLy47yR5rHHn47sV2pLSq8tAFi2bFF0PSkqa1/cyB8DxNDXV8IPHnwosl8jWfT9jfe4eDLlqASAa2dpjxNLUvmLx4EPfx94/rCU2yYAizqBme0yotK2jys6pyR0nskK0YFBLkkjp6RhF5cjUtvLSMSwnS+b9ka/uPmY48vIRyui0ZoPrHHtOSfO27L352wWc77+nKJz1mssFAQgZHTkW1YDb10NTGsLn4/mcfIxr4smy0f1llVkY6ioaD5POdv8HJV+7btYQ5GFvnNOOYo8Y0wth0uQ29KvrWP7Y+r2mIhJv19c/5gxgr56TCvHZsyxQ3PQtVHkGsP7Yu6Hfh3XVxcgPlemfWx5YUWvNZZwuW6WUGebZIHtO3bbTalj2dJFaGtrtZuJg8ycMT2UUySN9PWVcOTocbuZEEIIIYSQEDNnTrObUsP2HbtT+eO80eSxx5/injhCW2trqr9X9vWV6Ciz6Osr4bHHn7abR40X1tJZGUcmHZW2o4AlXL63VdbjxgBzOoC5HTJCSet1ZFecDMMxByNSUmmlM8GoTUdekr2Is1O19OCEIyv9fjH2wrDXdrDG9yMq/fGtcXWkpDmPGPuK81ZFaP9KhXnLSNCYvJx+PxV5qeplXR4+dJ2HVy2W59ADMHAB2N8DnByIj+7T+Rh1XkczR6XOqegX7YCL9Ne20ZyOZn+7b1mN6euNHJWeijCsdOzQ8f22ICdkWeXYvGhEXtolMrYxB38dVh3pHxk3GCPI/xnOsen3T1iX2b9cwdnJEpRrZwXXB0k/R4/J3BppLssSHvtC3GTZ0nT/+lUIgR0799jLSgX2OlwtpFaie+dyySP2Hrhb7JnnAXsP3CzZJrpeF0vWsdfrZrFnnR5mzqico9318vMnnrGXlFuOHD2OHTv3RPYo3cVeZXpoa2tN/ffKHTv3ZOKH4yPFz594uu5/n1r74kasfXGjPZVckzlH5Q2zA2cQ6+R6Rpt8jOjEZhXxaOjj5NhoPz/iUaBJ5aA0cz1GowSTc1ZquyYBOZa2bzJyRVbJWWnax9sF6/FzWxrziNTGPLR9pXkX/H3Sc5Zy1E7OIzRv9bpJKFtjHk1NgZ2um4TATXOBj90k81cKAbw8BOzrBnacBkrnpVMHZqSikCfUrD3V7iGICvQdZkL3M2qVi1HXof6qxEUYQtciPI+yijD07b0gUlNGQ1r9/Vr1N44PNR89/7Iaq6w6hueh5m+sQ/f3VARkXMRkeJxgDH2x6MjJ2P7GPIIi++89K/D/1kavU9bR+obZ6gSQ1FPxA5mwGywc0s+ckd5fKueRmTOmDev8xtJgfV8p5VGVVdbXcD25fKrtcaP1eafa/jRan3eq7U+j9Vmn2vobrc861dbfaH3KaGttCX9XqbY+x/R9fSX8/In6RTi5ypGjx/HDBx+K7E+EtOtTRuTvANXW56B+7To+AhYAfvjgQzhyrMr365j9C3GJ+u07d6f7u/0IkzlH5dQWYPmUOKcCa7M+WpK5KS+qBluvawDSfSPkNSX0haWcaUJIvV/ra0/Zm/1Me/nG8wDVp5K9tjHnEWcnx1Z22v1kzdueh7b3Xyu72PHNeVvzQIKdlm177YyMrM+YR6TWr41xW8YBb1gK/OZ1wJJOuaO9LwNbTwF7z3o4dzHsLPMj/KzajlC07crK0abHivaX/fz+Ri7GSH+zXyTSUEU5IshNOaTk2P5m8cfS0Y3h9cTNP654OqrSyJGp68jxI/PX/YO5+P11xKYxTt/LwDc2An/xC2Dz8ej1xzpcL5si7/EkG4R+EVooWL8us2RH9ddde6W9LOI4sfl6Es6vy/oX11Vw9DuI/BxT+/oaqSe1E7d/texxI/R5ZDj702h9HhnO/jRKL7/AZpdq63dBH/yBIqOE1h5df7X9qZc+rbS1tWLmTDOqMn59LuuPHj2BHTvzG/XVVyrhgR/9LHF/qu2f6/o0I6MqF1dcX7X1N1pfKvXjgR89jL5Sfp2Va9dtxNFjJ2L3p9r+jYS+VOrH44we90n3XSGBG1VUpfQIGa8ph+RTg8COM8DpwXi9ECoa0IholLIR8af0QkX6wbQxi7I37ewIRdNeGHMoJOSsDM0pMt9wJKYcJzx+eFz5Om59+vtBaN7WePZ+wB4/5vjmuLq298O3sdbn26s5z50IvP8a4B1XAF0t+vwKbDopndK+U03IaySSnxIqQlEAUBGK2r6sX3tS1tGFnjCKGkOOr1yuKuLRLh7CkZOheagF68jEsh7HmL/uo9v8MdQ4etO8hFybev6RORkFOuLTOL4vqzHMMf32Srk21Tz0/jyyB/hvPwd+vj/++qMclW9kNGVm2LFzd/jDsA45Tpm8dMnCcDtJBddctSbckHB+XZaPHD2e3l9exqzHKZkMj7j9s9tck/OGvX7X5bxhr981OevY63VN9r9dZhR7efb6XZNTSOj7ir2eFMh9pRLWvrgpl46UvlIp7MCI2Z9MySnk2muM75X2elIi95VKeODBh8O6nLBj5+7gSV8J+1MPua9UwtqU/RB5tCjYDVng5rmGw0E7VSjHyheHgMN9wK4zQO/LSgnp64HKiSg7yR5CqqXjQPsP/B/62fa+WWCv9L49lL06sLbXzjk9nmyP5qBU/gtAO/RC48l5+HM0x9fHMOyFP37M+pSd9JsE4+vx/Bee4VistD7j+NoJqce37fXxlZ9UHlfZy/XpCEvgqmnAJ28B7l0s7ctl4GAvsPkEcGpARhjqXI5mZJ/OIVkuh/MxemWl92QeRa+sog11/3IwzhBi+vuRhUGUoo6QDEVMhuyix/eL6i/nINcT6m8eH+Hjh8Y3Iy6teSTNX4+vbeJybZbLcn9j+yvH5objwF88Cdy3FTh3IfRulaeUcqJ881yQjLBj117r12XpK8uWLkJba6u9NJIC2tpa0d7WGjmnaSs7d6UpV2V0/q4WUhvyM2p0/1wtecTeA1eL+mKTK9Jy/QTfXrMHz4EbyFtAdN0ulbTfo9pa7ajK9JVSfz8e/FG+HCl9pX48/otnVaRXdE+yUNJ+bSEj15dQ19gDP87XNbZj5x48/otnI3vRqLJz5x70lfrtaeaOTDoqb1E5+4QIInIoV5YHLwL7ewQO9QEXyipXpBlB2KTzNMpIP6kPIhCFFRnY1CSCfJV2xKHK/dhkRBzqseMiGnXkYJMfcRiOUBSR+RgRlQkRm02qzV+fZR8az++roy7lfM390E5V/drfD9WvSc1ZWHYFvXd6PwRQENYa7Tpip2wNu1ctAv74dpm/EgI4NwTs7RbYeRYYuChdrTAiJz3lENIRlBDyWgoiBOXkyyrHpN9fIIhc1M447WQKRVvKBk9FKprHD0VMGk4pqbNlKyekmo8Z3ajXoudjjyGnIscwj29HTHpxEZdGxKS+iJIiJv39UGMd7QO+vAH40jrgSF/l65FyvHzLHL35JO0cPXZCvhAitfWM6cxNmVbaWluwdMmi2POaptq/jtJCwjqcq0lt6O0y983eS9fqvGGv39XafzPlDHsfXK2zil6evV7X6qxjr9fVOuVce7WK+rLXlaK6r9SPB378iJQzjnRSPpOJ78wV64z8/790sYpatteXsvrosRN4/Bf5eATpi+s24fEnn5VCwn7Uu+7rH8DOnWn6IfLoULAbskDbePmIQNMxEXaYUE6Sz5yT+Q2P9EM6CNQ1I68bI+eieueY15VfjIg/KUuHn8Yc07cvqNo0UmgHn22vZy8MexHjMAQ8QOiVBvbaVojg8bB6fH88e666jzq+ACA8tU59PHs8rVcRp6adnofUB8cvqNq003MqqD3RRe+zXKcaG8CkCcA7VgG/c72HhSp/5dlzwJaTwP4e6ZDWkYGeCOdi1FGFOjLQdwR60gGnIzB15KKf4xKAp3NUmnrLkaijEu3xdYSjpyIUbb1vY45vHkPNxQNk1KWOdDTnYJS48WVRuTLVfCL6ODnUpqItAbw8BPxwB/BXT8toSlS4/ignyzfOlvd2kn5eXL8p8uuxNBY+9jXdLFmyMHJO01ZK/QM4eiw9j3+15+9qIbUS3TuXSx6x98DdYs88B4h0nJ9sE12viyXriDScB/2HmBQzY/o0zJyR/qivY8dP4MX1m+zlZYq+Uj+eePJZHMtwJGVQ7NWnkxkzpmXiaT1CCOzctRff/M4P7CVmiiee/KWzf5NK1xOTRodMOioB4Pb5gWMnVBsOn9iaekAAx0rA5pPAmUHDQWfmRtTOOMREBxp2wrYzIhBD40JGKkYiKi2noxxP2keiDk1btZ7ALhr96B9f2ZnzMR2Bpp0vAygIaz8sOz1uZD9MO9PpaO2f8CMnDTtr/2DY2/PWdku7BD56A/CuNcCkZtnneD+w8YSsQxGFntwIz3Iuhpxx6u3iwYheVNGSZchxPO1QtJ15xjj+GEbR/f15xPTTsj5GeB5Gf6h5QEVs2g7FhDmY6/HUPCJ9jRKah9kfAs8eAj77FPC4mYcy7rrTNfXx7fqeTjJBFn4l5v9qkqSWttYWzJg+1W5OHS+u22w3EUIIIYQQEmLJ4gV2Uyp5cd0mPPHkL+3mTNBX6scT6nGvJD20tbbg6quMXJUpp6/Uj29++/uZfAzpE08+ix0OOwP7Sv25v/4z66i8Y550GEBF5vi1ciRE2qmP6F8eAvb2ANtOA6XzMmqvILSFiia0Iiu1A03bSaeeB6EiGn3fg+kkFNqZGeS41OOZtV/goaAjGvW4ysEh1EHMR7ZC23sqB6S2NZ2G2kkIZafXadnJ40fX6a/VsIFlZ85fR48Ka522XUHbazs1rp6X75Q07M3x9J4UBHDTHODTdwD3LpLrulAGDvTKCMuz54LoRz/KUDnfpJNO5ob0jFyOYX3Qxx9H7YxsDyIuh3Qd0sf0N8b1oCIt1fHNcezja3nIaAucpmoewshJqca1+/vjmOs0xrDX4/cDsOMM8Hdrgfu3A33n5XmQ71RV29cd9VX1d8xTBiTV7Ny1F6X+gcgvx9JWrrlqtb00kkKuuWpN5NymrRw7fiIVX2bkZ5vo/F0spHbsvXO55BF7D1wu+SO6B04We9oZI7JeF4s96ayRis8H9qTTycwZ02LWls6yc/fezDkrjx47gW9994c4djwPkZRByQozZ0zL1DVW6h/Aj376KEoZcVaWSv340U8fxc5deyNrda0cO+7+d/vRJLOOyjVTgbkT9Qcf1pdT950HXjotsKcbOF9WkXs6P6PK5VjQeR9VgR3pVwhyVpp25iNStb3O/ejbCcPxGLEzcmHqcUznnZH7sUl680L6UEFgr+cfsTHWW1D74++HaRezH+Y6/f2z98OyC+xVzsyY+YTskWxXEMCYAvCm5QKfvgO4fpac18BFYOdZYE+3fA0hH7UJGLVaQBlyk8rayahq/bqsrj/b6QSdyxGyoYzAeaj72+NFxwkf35yHZ4xnOieD+etauojLXvI4eh1x6wFUxKiRmxJqPM8DTg8A39kK/OtG4GBvcN5ZX149p0Pe00n62bl7LyDUH12EkI0pk2fMmIbW1hapI6mmrbUlcn7TKO/avVe+dprk+bsmk2Fg7l+FPXVCzitJ++GanFeS9sMVOevY63VQzjr2ep2WU05rawtuv+XG5PWlTN65ey++9d0fSl3KWbdhM37000crrjezckZobW3B1Veujq4vxXJ/qR8P/vRRrNuQ7if4HD12At/87g9x7NiJiut1RU7Dj5BHk8w6KgHgrvkqZx7LiJTj/cDaY8ChPn0taU0YYUUGhkcJ2wl1XWq7kL0n7YXQH2BlidirZ2/67UbRfQWkfUEgmvtRz8cYV9vFzVsjtKPQiASNsxXm413NecftR5KdtcZIgWHvKXecrTdeT28FPnSVh49eD8yfKGdyehDYdAI40ANcHPJi8lCGi9YNlWW0pRnxWPaAi3G5Lq2xgmN4QWSiygmpc1Sa49hzCM3DinSUr4GLXrAWu29kDLUOXcz1xM5BOTOHPODRfcAXnpd5KM13Dsvll7vme6FrhaSX48dPhn4tJh+hnS45K49NIvIL5dLFQa7KuPOdBvnY8ZP20txDIHH+rsmkNuTn1vg9dFHOI5X2wyVZfeHJHUn74ZKcZex7WNz6XZCzjlDRxUnrd0XOCjOmT41dX1rl/v4BfOu+B1Ib9VUq9ePHDz2G9Ru2xK4v63LW/v+fMX0qZs6YlrjeNMr9/QNYv2EL1m3YYi83FazbsAU/eeixxPW5KPf3D9jLyBWZdlS+coHyyrCMWCkD2NcDvHAMODUYjgwMRUkaEYJBBGHY1rfTzjkrArPQJO31/1+ms0/bmfZxdnLcsH0o96PSh0tgFzfv0BrUuDDnbdpYc9Z2/rztuRrOxYKKkCwIYx5xdt6+4eYAAEXKSURBVH5t7Z9pp+dizfuKacCnbgPeswZoHS/nd7Qf2HhK4MRANLrQjzwU8hqTr40IQyWXAcDMdWkWHUWpxxBqDB2ZqCIVZZscJzKG4cRKnIeOnFS5Ku3+1caw1+MhGrVZ9qRj8otrgScORq8XlpEpr1wg1FkiaWbdhs2h6w3qRwVpk5csoqMyS1x95aqK5zsNcipyWaj/+9XLiutptExqw96/SnvqhJxDKu6HQ3JeSdoP1+SskrRe1+SsY6/XVTkrtLa24Labb4isL81yqa+EHz30WOocKaVSP7513wM4evR4xfVlWc4iWbu+tLxuw2b5fnX9O6dC/whg3fpNsetJg5xXMu2ovHMeMHFCzGMsWV92PXAB2HJaRuD1XYCMPlR6ofzDCDnRAIQiD8N2UaebtBPaziihcQFA6OhBFQlp2IXm4Ts9jchKfXyj1na+o0/P27Lz12DY+vM2okHloJYdpJ0cNxzhKdT4/vGVkxFq3vb++eNqOyvXp2mnD1Mw5gN4uGcB8Jf3eHj1Qnl+z6v8pFtPAd3nAc8DhiBvmDr3o59jUsm6NvXSmadzQKoIRQQRitrZF3EkWuN4OlIyNI6pDzsP/fmYuSr1fNWNX0dchvTGOuwy5Otk/wN9wNe2AD/YBXSfi79OWF9+3TFB3stJ+tm1Z3/4V2OFQurkpYymzBytrS2YOX1a7PlOk7x+40v20txCzTVp/i7JpDbkZ0xj/yrsqQtyHqm0Hy7J6mFXuUJfP3H74ZKcZSL3sJj1uyBnHSFQcf0uyBDZ+rOpjqpMWm8a5f7+AazfuAXf+d6DzkdXlkr9WL9xC779vQcT15MXOYv//7e2tmDGdJmr0l5v2uWB/gH85Gc/x5NPP+f0daavr+PHT1Zcj6syIyozzr0L5Ycf7QBiPbL1qXPA80eB7WcFhjwjirAANGnnmXL8hXI/mnbqta6lU05FFJqRiZXsQrWyM17H5cLU87Dt9Ni2fZNqb/Lbg3lpW4Fw7syQnTWumTtTGHpzrQVh5M5UBwjtn1X0eP6+WI+dtccGAruWcQLvXg38+Z3AtTPkWKULwI4zMn/l+aFobkozKlHLUK/92oqMhM5RGTeOdhiqufm1esN5QCjC0XQuhuZh5L4MjeOpeejIzbhxVF97TDkPoO+CwE/2SCfl/l65T/Z1wXrk6lcvUptPUs2u3ftQKvVDWO1pkxcvmm+1kCygz6t9vtMkHzt+AseOu/0L10rzd1Emw8feQ9fkvGGv33U5b9jrd13OOvZ6XZOzjr1e1+QsoaMqTez1plUulfrx45/9HOs3bnHOkWI6KNdb0Z9J68mLnDVuu/n6kGyvN+3yrt37/OvMJbJ0fbl2/6onmXdUvmZh4HjwC+URlw/0ykdf7u8xNl9dbQLK6aAj/Tyzd9gWSi99bSri0bfXevXScuTBzFlpjClU8Z1zKtdjeBVyDG0rlKPEHxemvWFrHkPbG+vTa4izNecr7QJbH2se/r4YeSj9QY05FCDtCgIqujO8J9pW6/W4BQHMa/fw+zd4+Pj1wJx2uZyTg8CGEzI/qRlhqPNTDnmy9gAMDckck35uyXJCfkd7HE/2K+uckH5t5rIEyuXoGHIcNRc9D3scFT05ZPf35aC/7BPuX/aAZw8D/7Re7oV/lmOuB8ojJ79mYfCeJell9559/i/F0lra2loxfdpUe2kkA0yfNiVyvtNYdu/Zby/NGeRnn+icXSykVqJ753LJI/YeuFvsmecBew/cLNkmul4XS9ax1+tmsWedfqZPm4K2ttaYtaa/9PcPYMPGl/CThx/Hho0vOfEH/w0bX8J37v8RNmx8KTLffBd7p7JBa2sLrr5ydcx6s1P0dabf1428zsx59PcPROaaxpJnMu+ofNUCYFJR/4UkoUivTnKhPtoWo7/oAVvPAE8dlo4tP3rPjzyU3j2Ze9LIo2hHTDYJ6XDTkYa+fXRMnedSqPF1HbFNjKiskPvRmHfI3rYzbMN2gX0wR2Od9rhKtscMzQPwx43k2jRLIZi3n2vT1qvXer8LQp0fNfcbZwF/dbfMXzl+jIxKPFwCNp4ETg3Kc14ppyN0jkqV21QX3wklZO2PoyMt7dyQQjqvIv0j48TPw9MRlAjG0X3M/p7efD2OMZ/tZ4B/3Qw8eVi+z+Pe/4mF+mhbjfpJzfIeTtLPseMn7abUcdWalXYTyQitrS2YPm2K3Zw6snCdEUIIIYSQ0aW1tSXz3210BONPHn4cTz3zfN0/J5dK/diw8SV8+d+/7VzkGRl9Fi+cl4nvl9Vo1HVmX1+NdJSOBq2tLXZTbijYDVnkdQs9QDkloBwTIdmuqY9vr1Hfc14+DvaFY0DfedVoOuCEfuOFcykC0gbSX+bb+nYq8k/rda3H1X1C48LInWnYFvR8rHnoeSqfXXh8Yz56zlqfZCfXFUQ/mmNCzVe363kInXPTsDPH93NyWpGn/jjWcfzISmseMMfX80bU/o1LgP97L3CvchgNDgG7u4GXTnnoO68ciGZko5JlBKWHsopw1PVFHaloRFT6jshQhGQQKWmO40deRuwqjRNEWupIybJl648j32ooAzjeL3NQ/ngPcPqcXH+19z/1Ce2XoH8dH/uaCZ565oXIL8TSWKZPz/4XjTxz1RWrIuc8baW/f6BuXw6HjUBkvq4WUjv23rlc8oi9By6XPGLvgYvF/9KYUez1uliyfg7AyNaGsXjR/FC+yqyW/v4B7N6zHz99+HHcd/+P8dQzL4za5+VSfz82bHoJDz38OL77/R9jwyZGUFYrWaW1tQW33Hx9ZL1ZLXHX2e49+1DqHzkHor6+7rv/x5m+vtpaW+2l5wrheZ7++3Bm+cVB4J0/tFtJvVg6CVjRBYwpGA4yw7GW7GBTtlZ7qC1Ol9TfPp7dL+b4Zq2x2+P6+LYJet2GSvOMGbMWWz2m2cceS7eZtpGxY8bccQb4xlZgvZEGa2oRmNUGjGuKjm8f0z9ejE5oR3NMu20bmmeMXWicCrZJ41woS0f7ptH5/Epq5Ou/Atw2x24laeO++388oh9QG8GihfNxy03X2c0kYzz08OOj9oeLejF92hTc+8o77OaGs3vPPjz1zAt2s5O8991vs5tIDMeOn8RDDz9uNztLHs/rV776HbvJSVy9b40mabl+3vKm16K1JZu/6uc5cAP9x2yXyfI9qtTfj/vu/7HdnAtaW1rQ2lpES0sLpk/rUnXtP0wt9fejVBpAf38/SuoxmGR4ZPna0qTpO9BoEXetAUBrazHy/5v+u1GpNIDjJ+T38uPHT6b+O/pwyMN1UYlcOCoB4OZ/97C/V7s4SL2ZMAZY2Qksmmg6mzz5uFEjN6NQSttxJM08FAryOaBCKNsYR5SMvJTj6hpqbHvM0Dz83JWWbYV5JNoaffT64OvkI1xtWz0PT6/PHtvqI+crgv1TexJ3/IIQ8Kx1Rmz1PDwPwtznmDn//ICHr28TOFqS+9UkpLNyRktwPCTMO3QsKxrUPG+mrdq+SH9ZgvNmn/fQOGqQSH+hxoB87O2mkx5ePC5wfkiOSRrD3HYPz7xHnViSWnbv2Y+nn03/B/N777kd04bxxZWkE75fR4807e1vvOutdhOJ4fjxk3jokSfsZmfJ43n9t699125ykmnTpuDee263mzNNWq6fN7/xtWhtKdrNmYDnwA2efvYFp3NsIwf3qI2btmLDJjrZNOb11qIev9jaUkSpfwD9JemUJCND1q8tACj1D+DpZ1/A8Rw52sjlsWjhPNz8ivz+SD4Xj34FgDctDXk2WOpczg0BL54AHjsInBgI51D08zMWBISdl9F8bdiH8jNafczcj0JUydFozcO3NY8f6aOcdrZtTJ/QuEbOyjjbUI7ISnNW4/p74Nta9rpPQY2rnHaxY9vjKqdd0pzvmS/wT68B3rNK9hkCcKAP2HQaOPOyyu2ois4tGZdfUh5QPWTWyi3pF51fMm4MI7+lHCfo74+jH/Fq99X9AXgQ2N8n8L2dwLNHBc6Xo+9hlvqWNy8V9m2cpJDde4M/PHghTbpk15w+ZHQwz3Ol94PrsnnduUql+bsgk+Hhxeyha3LesffDNTlv2Ot3Xc469npdk7OOvV7X5KyzcOG8zHwGHgm5r38AJVV0JNfuPftx/PhJlPoHIvaUL0/OOq0txZDTyV4/Zcq2vGjBPKs1X+TGUfnGxcHruDcC5frIpwals/KZI0D/BeUcQxDVJmUzwlL2005JKXt+LkU7P6OA/Md3uoloLkeEjmm81v3M8Y3jx9kG4wZzDo2vXoecgfAgvGDe8gDhMc1ckVDzsMf3xzPWV1BG5thxxw+Pn2xrjqvnLP+Rfd69EviX1wGvmi/bBi4AO87KUjovz33Z82TOR52bMiaHpAeVF9IqnspJqfvDz1lp5Za0xgyNBZkfU88jGE+W0+eARw8AD++X789K71/K9ZPNezZJLydOnPKftS9/LJFcXNVfecVKe1kko7S2FDF9WnyunqT3h4v6EydO2UtzAnvOSfOPK/XUkxoRwTktDHOP48po6/PIcPanoXr95SJHyO+JNe5PA/WZxrqH2WuvZX/qoc861dbvgj7r96jWliKuXLMiuu4a94f6aBv1Neozfm1ptLMysv5q+0N9LvV5/5F8bhyVyyYDt8zWH0iVs0UVyvWX9/UCP9gNbDwlZSHCkY0FEUTwNRUCG6Ei/Xw7O/pRvdaRmZFxC/Ixpb4TzuwTN746vq83X+v+Ihx12BTSyTZ7/nouvo01J3PeTUKObR4/PP9gvkI9hjV0fNPeXJ/QdXiupm3Izu8XLjNbgD+8HvjLO4E1U2Sfsy8Dm0/L8zwEGekIHekYE2WpX0NHOKq67Bn9VA01Xqi/dkiq690TqtZFBBGbgKwvejLK94e7gf19ld+vlOsr3zJb3rNJunnml2vtphDCbrBwRb8w579oyxtXrFkODOP9kUQj9aX+IKeHq1SaPxzQk8un2h43Wp93qu1Po/V5p9r+NFqfdaqtv9H6rFNt/Y3WZ5FpU6fgijUrgBrWT31lqK9MNX1WWbRwHq5Ys6Lq+qmvTNb1ixfyb0+5cVQCwFuWeIHjgsWJsuEk8L1dwO5uADri0bRQV7GAdGBIB5qOdFS1Z9kKZa+iA307qFC7CrahcfUc/FyU9jwC+0q2Ql1owhhf25o2vq2283NmSnszatO0lbrwvONs/eMnjWvshbYNxjPHDUd4CrUf10wD/vZu4BPXAZ3NcvSj/cD6E7IesiMmAQyVPQx5XlB7si0UDamiJv0CYywVKVlWY5QBXCyrcYz+ZhmCjPi8fxew+VTo7LE4Ut6yxANJP8eNaMq0lkUL52U6LxCJ0trSgunTpkTeC2krmzZvs5fWUOz5uVxIrUT3zuWSR+w9cLfYM88D9h44WuxpZ4qY9bpY7GlnkMianSv2jLPJogXzMvEZmCVNxX4XZhteYyzVCn8knzNH5duXCXRM0N4VFldK3wXgySPAQwcETgyaEYcqStGI9BMq56J0jqnattWORB2xGInADEdshm3D4wd9DFtV/IjIggzXjrP17Y2oyqq2Wk7KFWnZ2jk57QjP2HHteceM67dFxk22FwL4lUXAN94gHwsLAVzwgH19wJbTQLd6HKwuurPOM2lGTvpORtOJ5eeUNPJTqgIrR6XZX5ejA8AjB4DnjwODQ9H3IkvjS8d4ea8m6ae/f8BuSh3Tpub7sRt5pKWlmInzXsrA9UcIIYQQQupDS0sRN914LVr4I01CRgVeY6QSCxfMxbSpXXZz7siVo7IggLcvVQ4SA8puyEdKwAN7gCcPA4MXdU5EGf0oIJ0Y2p9hOspg5ayEaavtjD6IybmobYW6KApCjqftq9mG7NW8hfK1xNn69lDjW7b2GvV8C1pp2lpr9NeH+AhP09a0j7ONm3ct+zG+CfjtK4F/fx1w91w539IFYNsZGc04cNGIcFTT9CLRjzICeqgs63LZyC1p2PrRlUZbkIPSQ7nsoXQBeP4Y8MQh4OSgnI8m6f1IuTHy25fp9xlJM3v2Hoj8OiyNZeECdQMjuWLhgrmR90LaysDAII47lqvSnqOrhdSOvXculzxi74HLJY/Ye+BiyTr2el0sWcder6slL2hHir1+FpbRKnmjpaWIV919W2QfWFgYTSnJlaMSAN6xTDpVfG+QoOyavO0s8I0dwIbTQbRfKDejfq2iFEMRhTFRiqatUDkfhQBEQURyPpq2OqKxSY2bZFtQ4+oIT9++gq1AOLKxmq22g21nFX++kOuzoyVtW70fUOPbNiF7c/y4OcfYLuwAPnML8Nd3ACs65fk98zKw4RRwoGRES6pISRiv/ZySVo5KD8oRaeaoVE5KD/IYwVgC27oFfro/yEMpqrz/KDdWfscy/3ZNUsyml7bLF0KktqaTMr/IqMqu2PdFmuoTJ09L2RUS5ulcTYaHuW/2XrpW5w17/a7XecNev6t11rHX61qdeRLW7VqdI6ZN7cKa1TJfZWQfWKeunja1Cy2tLZF2p+qc0dJSxCtuuCa6D6xzWzOaMiB3jsqVncBdc5ir0vVyoQw8cxT4+nZgd08Q/aivY//zrGqT7eFIySRb+DkWdWRgkHPRto2Oa+Rn1OMbtv74Ndj689C2CObtT90a14wctW1h2OpxpUMybCssW3Nc396w1XP37UPjVraV7R5umwV8+dUePnkt0DZOnuPDJeDFk8CxfplT8mLZk/knzRyVyiEZylGp8kz6+SlVxKXOcalzVO7vAx4+AGw9E31/sbhZ7poj79Ek/QwMDEZ+IZa2smbVcntZJEesWbU88p5IW9m7/6C9rMYhEJmfq4XUhvysF90/V0sesffA1WJ8m8kN8ntTdC9cK1kmLfewrJOG8+D/kSNHLJw/B9OYSy8T5RU3XIPWlpZIuwslj///axYumIsrVqf/+ybLyBT+7Skgd45KAHjPCtOzwuJyOfMy8JP9wIP7BU6dk58RQxGTVu5HqZfRj7ItbCtrI/ejKsEYYVt7XD/C07SPiZSsZiuLNa5tb9jqcfV8IrZW0eP68zHaI/bGuP74CfbRcZNtfXtj3HcuB37wRuBdy+X5PV8G9vYJvHQG6L0Qk6PSiJoMIi11HeSnLHsAVI7Ks+cFfnkcWH8K6L8YfU+xuFveo364SdLNnn0HDMkzXqdHnjqli7kjco48//Hvj7TI/f39juWKrTxf92QyfOw9dE3OG/b6XZfzhr1+1+WsY6/XNTnr2Ot1Tc4XLS1FvOL6q43vQ/Z+UE6DfKM6h60tzbF6d+R8snrlMuWgsveDcp7ke+68mX97Msilo/K184Glk+xW4jJ7eoCvbQeeOAycH1J+De3AM3IoCgHAjDxUNn5t5VsUAqGckpVsC6odMRGNcbbwjMhNy9Z26Jm5KhNt1TH0XIN1GvZxe6LtjUjTJFttX2u+ytA6Y+Zuj1sA0D7Owx9eB3z9NR7umC3Pb+954KUz8jyfuxiOlNS1F8o9Gc5JWQZw7iKw+TTw7FHglJWHkrjP0kny3kzSTziasmD9Wiwd8sL5c+xlkZzR0lLEwgXzYt8faZL7B9xwVArEz89FmdSKuXeV99QFOY9U2g+3ZHvmOUCk4/xkG3Ot8et3Qc48VdbvhIwcnIcYWlqKuOeOm6P7QTkV8rSpU/zvtC2RiMqofWNk+12XP1avWoY1q1Yk7A/lrMsLF8zF1Cl85KtJ1j99JvLeldqToj09lNMgv3gK+NJLwLpTygFWkEUovRBGhGBB5auMyW+p/0MM7FRkYIytdLKp8QuWvW1bCGxD8zBtraLnHkQexoyrxxYqtybM8aNjFkynoR5X70eMrZ6HQPXclqatv04YevO1tgdQUJ10FOaqLoEv3gl87nZg0UQ51olzwPpTAocHVKQkVISldkzqaErtpBSyfV8f8ORR4NBA5fcPZXfl964M3aJJiukfsH4pYH8DSYG8gI5KAmD1iqWx749UybDlBmPPz3WZVCZuv+w21+S8Ya/fdTlv2Ot3Tc469npdl7OOvV7X5BzS0lLEjddfLQV7Pyg7La9etcx/PXVKZ0TvnJxjVq9citX2oz/t/aGcOXnqlM7g/kp8CnZDXnjfCmDiBBWlpRwfftQWZaflwYvAIweBr2wDdnfL8ykMJ5nOtQh4agBPGQXn37c3Iv18e8sW2gGqx1cRmHJGlq0eW89D1WaUom+vagFjHqrWeTZ9DFvTriCiuTO1ofAdisY87OhRc2xtb+eg1BGhysafh7XfkbGN+eixw+uTtq+ZB/zwV4FPXA2MK0jH44E+6Yw+MRjkpBzygKGyzlMpoy5P9AO/PA7s7AYu6tNd5f1D2T154gR5TybZwI+oLJi/GhMQBeuXZI7qF86fay+J5JSWliKmTe0a1vvHNb0rEZXyc0l0ftXm3wg9qZ3Q/g1jjxuhzyPD2Z9G6/PH8PanUfrwF9LsUW39Lugzfw5Qef3V9qc++oyfhCosmD8HN15/VYX9qbZ/1Ndbv2bVMumcVLS0NA+rfz31RLJ65VKsWbUssj/V9o/69OpvvP4q+21A8uyoHCOAD6zQHheWNJajA8C3dwP37wHOnFOORBXxCB255+d/NCL8YnI/QlSJlNT2yk7E2dr9CkI55wz7hIhGPQ+/9vtGS5M5rlDzVq9j+xj22ragbBPt1TykbbJ93DxMXcQe0XkUhLwRfXgN8OhbgHcslef33BCwqwfY1g2ULijHloqo7LsosPmswJazzEOZhfKBlfKeTLJBf7+KqPRsjdXgqH7+PPVMakJC74fa3j9JYqShTvoBO8LZFWqcf2LDaOvJMPGiexjZ0kbr8061/Wm0Pu9U259G67NOtfU3Wp91qq3fMX0OWTBvDm647kopRLZjmPtHvcXI6qd2dWLViqWhtpaikf+uSn9bjDSMuJ5oVq1YitUrgkhYSbX9o76SGGlwRH/X7TeFr0vik1tHJQB8cCXQpHdA/5GcderqrWeBv98CPHpIRtsJFaEYOMdickpqR5p6nKp2loXstW1MP21XECqS0HDMadtCkr0ddSgCh6gQAIyIRt1mz8NcH/R4CRGNel0R+xjb0NjqtbyTRiMrbVs938C+wth6fVD2ymZqEfjzm4Bvvga4ZYbs1P0ysOkMsLcXOF8G9vQC609J5zRE9P3AOl11oQB8kNGUmWJgUEdUWr8es5/N76C+taUY+vUpIVOnqIjKGt4/Luojj2JuEDJHZXR+1ebfCD2pnfD+1b7HjdDnkeHsT6P1eWQ4+9MoffChPZtUW78L+qyfAwhUXH+1/amXnkhn5eqVy2L3p9r+UV8ffWtLETckPEoy8Skxwxh/NPQkzKqVS+V1VuP+UZ8+/V2338S/OVUg1//jdjUDH1qlPvuxpL48dQz4P5uC/JVClbhISV9nyTXbq8hA397Q2fbmuLpfJXs/ArJCVKXuA3seMXOJ2FeYR8Rej+tHQUbttG1ByI0xozCTij5+YK90ypl5wzTgq68GPn8rMKdNzuPYILD2pIyktc89S3rLb66S92KSHVqKzRBWW1pk+9enhLQUm7HAirJNev+4KruGPT/XZDI84vbPbnNNzhv2+l2T8469H67JWcder2ty1rHX67qcd1atWBL6vmTvD+XGyjdceyVaisl/XLHtGy2TePR1Zu8X5fTLd972Cjopq5BrRyUA/OZKHf/FkoXScx74/l7gn7bKCDwhAPj5HgNLoW4SupgON62Hp+wNR6JtX1D2QZH49oYDTud+jLXXJeTMU7kljXn4xsY8zEhNHdnoj60HNsaulIPSPIbQ807KQWmaW/ZxY+t+2h6RnJzRCM+3LQL++40eFnfIFZWt3WNJf/nNlepNQTJDS0uL/4sx+UOKoLguT+GHRhLD/HmzY98vaZBbW9x4pExLS3Ps/FyUSW3Iz37xe+iinEfaWoqJ++GU7H9DyA/ye1nCfjgkZxn7Hha3fhfkrKOfuJC0fhfk4K8YBMqJsnrl0sT9otwY+a7bX1Hxu+zUKZ0V+zdE5rWVyKoVS7BKXWeJ+0c5VfKdt9NJWQu5d1TObpWPgNXeFP9zCOVUy/tLwD9vA+7bA/ReEBDCiDgsqFyRZq5KVWREn2VvOA8LIvyYVt9O3XwitqF+MfOwbUJF2lfLh9lkREjKOVW29yMqjXn7a9El5Iw15m2sMdLHl80clBXszchOa+wCgN29wEd+Abz/UYGdvZXPN+V0yh9cIe/BJFu0FJvhqddpqufPnV3xF6gkv0zp6sSUrs7Y943rddGh93Tc/FysSW0UVV4Vc9/svXStzhv2+l2tXbpP1RN7H1ys8/C5KG7dLtVZPwf2el2tSZiVy5dg1YolkX1i3Zj6umuvwJSuyg6QKV2TI/0aXef1//9aWbl8CV736rv8fbL3j3V66jtvu7HqNUokuXdUAsBvr1YvRPBGopwNee1J4C/XAY8eNpxpRuShdpwISCeKMJ1ukYg/ZaPG1q+1U08IM1Ix0IfsDUdcaHzL3pyPOV9pb+rUHIzxI+NaY/vOQGWPSvbGfHUfHWkama85tjFfeVaiY4edocoewIUy8Nl1wF3fB36wL3w+7fNLOd2yf+8lmaKlpZj4KzKX5fnW4z0JMdFRlUnvH1dlV74QFYtBZFel+TZadiUCNS3Y+xe3py7IeT2vOnrC3g/X5Dyen7TcE7OMPgeV1u+CnHXMKK+49bsgt7bQmRLHyuVL8PpX34VWI3o/bv8oj668asVSzJ9b/Xtssejed/Qc3OIum5ZiM+647RVYtWJpZP8op0O+87ZXOPOdPA3QUQlgbqt6/KDtdWHJRPEE8NAh4LPrgRdPQd0s5B9XfEecEV2pHXiRiL9C4Aw0bXW7HteMZoyzF0i2t/vo44fs7fFs+xpyUAoh3/sh+7goTNMJqjpEoh9jip4vVB2ytx2Uxjq/sRu49XvAF7dEzyNLtsqHVsp7L8keU7om+69FSOOuPKVrcmjehNhM6Zqc+P5Ji9xI0pK7lr/srp2WYnMk0iduT12Q7XnmlaT9cUXOE2m4J2b9urHXZ6/fBdmeY5aJW78rsn6CAIlSLDbj9ltvjLxXK+0n5ZGTp3RNxsrliy1tPOY5Shqv3jKdN7XRUmzGyuWLsXL5EqDCflJ2Sy4Wm3HHrTfy70zDhI5Kxe+sAgAPnh//JQPHKGdHPjkIfHUn8PcvAfv6oCIIjUg/KAeediZqWY+g8yha9kI53qB08Ez7wEYX30Gn7f0ZqmMb9trOrPXYEXs9bkIOSm2vK38e2t5fX7BG314dx49ERUxeycA82d6ar1A3oWeOA2/9qYc/eAY4MhB//ihnRwaAj6xSL0jmaCk2h35JloYyr4ZfoZJ801JsDkVVpqFMndIZ+cNRI7GjJlwsLTmM7LocWqwciK6WvJ7XKV3uX3NCCHTl9A84rl8/eYh0df0cqD9GZJpiKr432LMmJi3qj/GrViyJ2TuW0Srz583G7bfeaJ+Oirj2WZwMjxXLF+N1997p/P9dLPJ7+GvvvZNOykuAjkrFzBbgo2uE/BBiFC3bNfXx7WnQb+8B/nYz8J29AqWL4ehHP9LPzGEZyikZjSQM+ildyD5sa/YR/liVbf0clHaEp22rnY9WDsrgOAllGDkrZVv8foT66FNg25vRlAAO9wOfeAZ4x8PAL0/y+suL/qNr5D2XZJNisRnz5s6ym50mbfMljWHFstp+sewKy1M2XxeY0skvk1mkK6fnNQ0RwsVic27/iOPSD0niyIMD2fVzMD8Hn0+ndE12/l6Vts9/jaBYbMaKZYuxosboPnJ5XHv1Glx39Rq7uSqu3dfz+v//5VAsNuP2W27g3jnMiuWLcfstN9jNpEboqDT4vdVA+zj1R3bI2kuoqY9vT5P+F8eAT68FHjkCQEUGAtKZIpSZCDneVOShCCIDtT1CjjzLXkcdqnGhat+5Z0ZMGsf152G/TsqdaYxrOg6DqEcjGlSPZzoOlT10BKRhY49trg+e5++faW+OG9oPNecvbAZu+T7wrT3x58eU7Zr6+PY06NvHyXstyTYrli2O/KrM1XLdNcP/kkfySbHYjPlz0xFV2dJSdO4LbBruC/zRwvBIwzkVQjh3LdSLKV2Tnf/VfS15tbLKvLmzIvvhUsnDDzdcjzrOy48spjp8HvIakX+prFgm/0Bv7yPLyJXbb7nhkj+vTumcHBmvkcX1Hym4inZWrly+xPnPeXkrt99yA3/ccpnQUWnQPg74+Br1h3aWXJTzZeC+fcCfrxfYcNpyrlkOPB1pGBtxaNna9uF2w9aKlIzorT62fVxkpe6jlxmOmAzbmn1g2MdFjhZENLISNdgLGPsB4PsHBG77IfBXG4EhfVCW3JTfv0L9IIRkmmKxGfPmyC9QQrW5WHd1TfbnSUgtrFi2SD6mTMmu1iuXLVKv3KHLyAVrz9eFei7vBcNmStdkdKn8rXF76kI9b86sXP8hTN8L7H1xpZ43Z6Z6lT/mzpnlR/TZ+9LouqXY7FzkzWjg8v/peYo2ntI1CUjYh0bX/J4wfKZ0TcarX3k7Vqo/1sftK+vh1y3FZtx28/WXdV9w6bM4r63LZ/myRbj95uvlDwdVG+vG1CNxfRKJ8DzPsxvzzk3fB3b12q0kD1zdCfzqPGBea9h5J4SMHCwUBBCKYpTON19W4wzHXr/2IvbKIWqPb9qpA/rjxtnDk05FnSPSsEct9taczT3R9oE+fs4CwNpTHv5ms8BjR+QYJH8sbgeeeaPdSrLKwMAgHnrkF3azU9x683W5+bU6GTkOHDyCF9dvtpudoVhsxr333GY3O4HLe3fvPbfl2qF1qZw6fQZPPv2C3ewMvM8DDz3yCwwMDNrNDaerczJuvfk6uzlXvLh+Mw4cdO/L0fJli7B8qXs/eBkNtu3YjW3bd9vNDSdP5wCO3qdc/jyVFk6dPoMX129x7tymjZF8L7pyz+Pns5FlYGAQTz7zAq+1OlMsNmPunJm5+v96tGFEZQyfvEI5ZFTkGOv81OvPAH+2DvjWXuDcENBkRgeakYkxUYTCeN1Ug73Zz7cL2UdtI/NQOSUjNqESb2/OVxfZZtkbUZRmH4HAvmBGdyp7/fr0y8B/eQH41Z8J/Pxo/L6zzkf9ySvsuy3JMsVis9N/gFy+bBG/HJFLYu6cmc6+d0byDxmjQVfnJCf3bu6cmXRSXiLF5mZ0dU529ry6OK96M9fRqMXlyxbaTblj+VIZ0ecSxWJzrv7gNne2e/f/vJ0DOHqfcnFOaaOrczJuvek6LHfwSR9poFhsxvJli0b0s/3c2Y1/X7v6uTHNFIvNvNbqzNw5M3HvPbfl7v/r0YYRlQn82iOQThWSW9rGAm+eD7xqFiAgnS3K3yIdL56MPPTgRaIOzdqMgCwIAZi6Ydr7x7bnoewrRVYK3SkhUjLptVejfdw8/n4b8PlNQP9FtViSW+6YAXznHruV5IEDB49g3YYtdjM8fV9KYDT1XZ2TcMtN7jpRifsMDAziqWfXJv5qtdL7D6OkLxabccsrrnXuD642AwODeOjRJyPzN4lbn8lI6ovFZrzq7lstCzIc9HXws0ef9NuGcw7iuFx9c7EZ9/K8+qzbsCUUuVdt/0Zbv2zpIixfSkclAGzfsQfbdoSjW6rt32jqb7npOnR1ykdx5oXtO/bgwKEj/r2s0v6gDvo8ngMY10K1/amHvoWfDUacgYFBbN+5B/sPHqm6/9SP7vfVuP93NLXOL4la9NdcuYo/BBhFBgYGcfDQ0dhzXMv5oT4ZT/3/cPWVq3L5/3Q9aPr0pz/9abuRAAvaga/uVu9QllyW82Vgwxlg41mgcwIws2hEFqqIQ/gRhdHoRG1rRihKWY1h26tDmxGTto3Zz5yHQPV5wLA3IyX1sW17IeS1UM1eb5k5758eBn7raeC7+4AL+k7PkuvydzcDs1rsOy3JAx0dbSgWm3Hs2En1hgCgHz+t0TecOuiLxWbcefsrTC0hw2bs2LGYMW0K9uw9MKz332jpi+oLU0dHm6lxkrFjx6LY3Ixjx0/KhhrWN5r6G667ynnnruuMHTs2fF6HeQ5GQ3/jdVfyvBrMmD4VBw8dw4ULF2rav9HUd3VNxjVXrjItck1X5yQICJw63S0bquzfaOqXL12Uyz8ed3VOwsULF3Hq9NmK+6Pl0dQvX7bIiYinRtDVOQkHDx3DxQsXgsZh7t9I6OmkHB3Gjh2LGdOnotjcjN6+Ei5cuBi7/9XOT9b1LcVm3HDdVaMapVVsnoBjx0/iwsUh1VL7/C5XP6VzEtasWmZakRFm7Nix6OqchLlzZmLc2LFOfL7Igr5YLGLxgrm4gd8xRhU6KhOYVQROnfOw7kzobUpyyJmXgaeOA0cGgLmtQPs4db9SEYRC52gUiEQ0Fvz2wB6+fTSfo3T8yUhK4XmA1lvjCtNRaM7DsEcF+/BxjXnIbuH5xOS2jB0XHrZ2C/zR8x4+t1ng5LnwPpL88sGlHt6/RL25SC7paG+DEAKnz3aH7yWFgiXre8zo6FtapDOHHyzJSCC/BE7GocPHanr/jZY+jb/q7OhogxAFnD5ztur6RlN/yyuuTdW+uY48rwKnz6h7fQ3nYDT0PK/xzJg+FcePn8LFoaGK+1dtfy9HP3f2TNxw3ZX21HJPV+ckHDp8FBcvXqy4f9X293L011y1CgsXzLWnlhu6OifhzJluDJ57OXZ/qu3fSOindE7C1Tl34ne0t+HQ4aOx+1Nt/0ZKf8O1/CP0aNLR0YZFC+aipdiMi0NDGBw8N6zzk2X98qWL6uIEGTt2LMaNHYNjJ04Na36Xq5/SNRm3vOJaezpklAg5LMeNxeDgOfk5I+H8VDt/edW3tDRj0ULpoOT3i9GHj36twNmXgRsfkI4qYYQAs853/eZ5wK8vlHkoBRBxNurXUJGHUG3qZaK9fq3t/P6mXQV7Uy6oF3afSmNVtU96LYDSBeDzW4B/2BbdL9b5rieNA375K8Ck8eoNRXLNwOA5HDx0BNt37gU8490i5GOjR1PumjwRN/OLERkFBgbP4eln1mJg8Fzi+2+05GVLF2DZkvQ+PnH7zj0NuR8UJ0zAVVeu5JfNUWL7zr3YvkM/mib+HIyGXGxu5nmtwsDgIJ5+9kX1iMvK+znS8rKli7BsyQJ7SkTh/19y7lzs/o2mfPON1/C6UTz9yxdx6tSZivs1GjKvj4CDh45g+469GBgcTNyv0ZCLzfxs0AgGBgdx8NAx+bmhwvnJqlycMAFz5sxsyPV/8NBRlaIleX4jJRebJ+Dmm65FsXmCPQ1SJ/TfYg4ePFr3+2sa5WKxGcuWLMCcnD7loFHQUVmFf90FfPI5u5Xkna4JwDsWAK+aKW9hQgAwckoiwRkooOwK8gYYl4PS72uOq+z9X3jEjWvY++3a3uxj9fV8+2iEp/k6mG/Y/ss7gc9tBk6/rHeHkIDP3QC8b7HdSvLOwcNHsWPHHgyce1l+GJQ3o1GrOzsn4+Ybr7anQciIMTB4Ds/8Uv3xP+F9OJJ15+SJuOqKlZn4ss/7QTY5eOgoduzaW7drojhhPK66ciU6J/MPzNUYGDyHHTv34ODhY5F9HK36qjUrMGf2DHsqJIb1G7fi4KEjsfs4GvXNr7iG143Fjp17cfDw0brdv26+4Wp00jkWYmDwHJ55di0/G+SIgcFzOHT4KA4ePFK3897IujhhPObMmYmli+vvoDTZsXMvtu9SPxqMmedI1MViM65as4L3OYeQnwX31vXzRlrqObNnYumSBZn4np1G6Kisgbc9Bvz8mN1KCLB6EvDOBcAVk+Q9DQlOPt/Zp9tibOy+tpz0Ggn9K70ebh9tb7Y/dhT43BbgxdPKgBCLO6cD37nLbiVEor+Mbt+5VzboD4eaEZCLxWZcdcUK/gGO1IXQezrm/TgScrF5ApYuWYA5s7L1B/963Q/mzJ7R8D8I5Yl6XRM8r5fG6TNnsX7jVhkNnrC/lyvPmTWDf+y5BE6fPov1m9S5QfL+Xo48Z/ZMXHXFiqCNhKjX9TFn9nR+Tq1AyHGvSdjPS5X5Qwq3GBg8h9NnzuL06W4cPHw0cr7SLs+ZNR1Llyx06v9F/weXo3C/W7Z4AZY2IFqU1EbWr7da5c7Jk9DVOZHfJxyAjsoa2HgWuOsndishAffOBN69EJjaLG90AghHKMY4JWFGStr2ppPQisD0YERWmmPH2Pvthj3sucRFSsaMq/vu6fXw+ZcE7ttvbAAhMTz2GunEJ6QS8sNxN86cOSujOzT6qRtJVNAXmydg9qwZWLp4vq0iZNSRzplj2LFLOd3iqPD+BcL6PL2fDx4+hkOHj+L06e6a9yeWnO6fq/jn9Ux30DiMcxiLByxdsoDndQTYsGkrTp/pDpxiqG3/K+k7J03E0iUL0Dl5oq0iNaL/Lzl0+Gj43KD6/lfSz5k1HUsW03lcKzt27Yuegwr7C1TXz5k5HbNnz+D1USOnz3Rjx669GBw8pxwplfe3Vv2Va1ZgzqzptpY4hL7uDh0+Jp0pZ7prPr+J1FmvP4c2N09w+v3mf3/ZuXdY64ug9MXmCbhyzQre51JE4t9lTGo8/4k4ok/LdZlH6Kiskc9uBv5ys3y/6/c9a9ZmXRDAbyySEZZCtcU6HpWMGF2cvd/H7J9gJ5RBnA4JfULjJdgIAQx5MoLyb16Sbfb6WbM26z9cDfzRavUGI6RG9C/6Dh0+htOnz8qbj/7VW5W6OGE8Zs+eic7JHfxlOnGCy30/d3ZOwuTJEzMXPVkL+ovyoUNHcfpsd2R/qtW8H7jJ5VwTUFGxs2fJ6CP+4WvkMa+5S3nk5ZzZMzB58kR0Tp5EJ9gIY143l/JIxDkzp2Nyp7xueG4ujdNnuv3zwOujcZw+040dO/de8meDPH+2ygL6c8SZM904eOho7Hl2odafV2bPmpG66107LE+fPjvs6yzN6yZh9I8E0nC91VIXJ4wHhOD3iBRAR+UwuOchYP0Zu5WQMLOLwHsXAXdPD+eghHLgCNuxWCVnpd03sEuIrLRee1D2OsdlnF3IcRmOrIQAvrlXOikPDci5EFKJqyYDj9xrtxIyfPQvpwdVGTgX/Jq9OGECIIDJkybygyZJBYPK+TZ47pz/R87BwXPy/esBk9X7mO/nMH4EhXpt7h/UL9X1r2SaJ0zAbP4qNhWY93dfjrnHN0+YgObmCbwu6kzo/99zMoLJPj/N6o+QnZMn+q/J6GPeE8+clVHK9j2xeQLPzWgS+X8p5v6l9533r9Ehcg7U/g8Yj67ktZB9zP+rTp/tlrX+IZRGOyxGQW5unuA7wIHsfS+1PwvY1xcQfE4rNgf3PZJNBtV3Wf9aO2M4sjWOyH6kpPqOnaXrMuvQUTkMnjoB/Opjdish8dzQBbx/EbCiQ943he0cVHZJOn2vNdttudJrbWy3x72OGxcCePakdFA+dVIPSEh1fnA3cMsUu5UQQgghhBBCCCFk9Ih1sBk6jfmDKSjHo8Z3xFlt/AEVIRJ97ejUDtqBabaNJqaDnNdmdqCjcph8ZhPw+ZfsVkKSefNc4AOLPEwaFx/NCDOnpBCwIxrtPrBzSmpb0+loOCgj9gnj6tcePBwdAD73EvC1fXpEQmrjEyuBT62xWwkhhBBCCCGEEEIIIVknFPluPHVA6l72bUzsqNzm5vHBayNCnmQXOiovgVc9DLx4JpqTjTXrpLplDPDBRcA754ediELZAPJFQb9McCIKZRynQ0KfauOZ/QHgf2+TzviXy7Ipbj2sWcfV104GfvZK9aYjhBBCCCGEEEIIIYQQQqpAR+Ul8MJp4N5H7FaF/ot9EtTnWr+kHfjQYuDOadJUQP6jX0ciIEcqB6XxWtohNDYE8P2DwF9vBXb12rM2kAdMhvpc6x+6B7iu024lhBBCCCGEEEIIIYQQQuKho/IS+d/bgU9vjPnDPWXKNch3TQM+vARY0iabfCeiMolzMNqvtXGczn7tj2uPIYD1Z6SD8pFjqjFmvpQpV5M/fQXwe8sMHSGEEEIIIYQQQgghhBBSBToqL4N3PgX85Ei4zf47vg311Jv69y4AfmsJUBwjdTKQchg5KAEgFFEZjpS0HZYCcnwIoPs88NdbBb60O5iPPT8b6qmP0792JvC1W+xWQgghhBBCCCGEEEIIIaQydFReBocHgDseAU6/LP+AD8i/5Cs/EGXKNcmTxwG/vRh4xzztqDQcjKajUdn78mVEYf7jLhlF2XsxOh/KlIcjTx4HPH4PMKuoGwkhhBBCCCGEEEIIIYSQ2qCj8jL5/iHg/c/KP9jDY8360usrO4CPLAVunRJ2Lnqeh0JBeoj8aMkER6R0dKpITCtfJQTw06PSQbmpJ3p81qwvpf7yjcAbZ9t3RkIIIYQQQgghhBBCCCGkOnRUjgB/thn42x3RP+CzZn0p9a/MBD66FJhXlLJQaoEKkZZ2m+Wg3NYrHZQPHI0ejzXrS60/vgz409Xh+yEhhBBCCCGEEEIIIYQQUisFu4EMnz9dDdw1Vf79Hurv+Lpo2a6pj2+nHvjBYeBVPwe+sEPKwvNQEICAZxTpKxKQTsmCkBeztoMnjzA45OG/b/Jw56PAD1U+1WrHp576WvR3TfPopCSEEEIIIYQQQgghhBByWTCicoQ4PAjc/Rhw4mX1V/yECCTWrIdTzyoCH18KvHV2csSkKUPJEMC/7QP+ahtw4lx0XNasL6eeOgF49C5gVnP4PkgIIYQQQgghhBBCCCGEDAc6KkeQh44Bb3/G+IN+EtRTP0z9zV3A7y8FXtGJ5ByUkA7Lx08Af70deO5MeAyfmPFDUE99Ff23bgbunW4rCCGEEEIIIYQQQgghhJDhQUflCPPFXcCnNtuthIwM75wLfHIpMLNZ+pK0P0kIYF+/dFB++5DViZAR5DOrgd9dbLcSQgghhBBCCCGEEEIIIcOHOSpHmN9dDLx/vnytPcDaFUyZ8uXKXz8A3PwI8H92aoVU/vV24IZHpJOyUn/KlC9Hfv98OikJIYQQQgghhBBCCCGEjByMqBwl3vg08PhJJXjWoxQpUx4BeWkr8HtLgL/cBhwYjOopUx5J+Y4pwPdvNtoJIYQQQgghhBBCCCGEkMuEjspR4tg54NW/8LBvwPyLPyGEpI/5ReCntwHTJ9gaQgghhBBCCCGEEEIIIeTSoaNyFHn+LPDaJ4ELxg4LFaBEmTJlymmQxwjgx7cC108yFIQQQgghhBBCCCGEEELICMAclaPI9ZOAL10X/OHfMwplypQpp0H+0nV0UhJCCCGEEEIIIYQQQggZHRhRWQf+317gDzfbrYQQ4jZ/tRr48AK7lRBCCCGEEEIIIYQQQggZGeiorBP/czvwFzvsVkIIcZP/vBT4k2V2KyGEEEIIIYQQQgghhBAyctBRWUf+YDPwj/uCRysiISccZcqUKTdS/vB84K9XGwpCCCGEEEIIIYQQQgghZBRgjso68tergbfPChwDnlEoU6ZM2QX5HbPopCSEEEIIIYQQQgghhBBSHxhR2QDe9QLwwHG7lRBCGssbpgNfu9ZuJYQQQgghhBBCCCGEEEJGBzoqG8SbnwMePmm3EkJIY3jlFOB7N9ithBBCCCGEEEIIIYQQQsjoQUdlg3i5DLzleeAXp+XjFnVuONasWbOud317J3Df9cB4PgycEEIIIYQQQgghhBBCSB3hn6UbxPgC8M3rgJsnS0cBCwsLSyPKLZPlvYhOSkIIIYQQQgghhBBCCCH1hhGVDabvIvBra4GnztgaQggZXW6ZDHz7WqBtjK0hhBBCCCGEEEIIIYQQQkYfOiodoDQEvH0t8MRpW0MIIaPD7Z3At64FWptsDSGEEEIIIYQQQgghhBBSH+iodISXy8A7XgQeOSUfx2jnkGPNmjXrkapfOQX45tV83CshhBBCCCGEEEIIIYSQxkJHpWP8+jrgh8elQ0GjHQyUKVOmfLnyG6YB37jaaCCEEEIIIYQQQgghhBBCGgQdlQ7yoU3AN47YrYQQcnn8+kzgn9bYrYQQQgghhBBCCCGEEEJIY6Cj0lE+sdXDPxwQMhRKh0SxZs2a9SXW/3GOh8+vEPathhBCCCGEEEIIIYQQQghpGMxQ5iifXyHwx4sBIaSTgTVr1qwvtf7jRfKeQgghhBBCCCGEEEIIIYS4BCMqHefvDwCf2Ab4LgYBeJ4hG4FT1FNPPfW2/nPLgd+aazQQQgghhBBCCCGEEEIIIY5AR2UKuP8E8P5NwIWy8kiYZ4wyZcqUY+SxAvjyFcCbphp6QgghhBBCCCGEEEIIIcQh6KhMCc/1AB/Y5GHvOSEdEdohwZo1a9ZWvaDZw7+sEbihw76TEEIIIYQQQgghhBBCCCHuQEdlijh2HvgPW4DHTsvcc55n1dpPYbdTTz31udHfOQn40mpg+jj7DkIIIYQQQgghhBBCCCGEuEXBbiDuMn0c8ODVwAdnS6cEYNVeQjv11FOfC/0HZgEPXkMnJSGEEEIIIYQQQgghhJB0wIjKlPKFA8Af79QhVqxZs857/b8WAx+ba98pCCGEEEIIIYQQQgghhBB3oaMyxfzkFPDb2+QjYQkh+WTaOA9/v0LgNZ22hhBCCCGEEEIIIYQQQghxGzoqU86hl4Hf3go8cjZoSwi4op566mPa06x/5WTg75YDs8cbBoQQQgghhBBCCCGEEEJISqCjMiN8ajfwuQNKsD0bNtRTT30yKdF/ci7wmUW2khBCCCGEEEIIIYQQQghJD3RUZojvnQQ+ugM4fcHWEEKyQucY4P8sA948xdYQQgghhBBCCCGEEEIIIemCjsqMcehl4GM7gAdP2xqJUAFZSVBPPfXJNFr/+k7gC0v5qFdCCCGEEEIIIYQQQggh2YCOyozy+YPAn+wJHB/C0GnZrqmnnvpouyv6zywEPjnHMCSEEEIIIYQQQgghhBBCUg4dlRnml73AJ3cBL/TZGkJIWriuzcPnFgvc2G5rCCGEEEIIIYQQQgghhJB0Q0dlDvjTfcBnD9ithBDX+aO5wJ/Nt1sJIYQQQgghhBBCCCGEkGxAR2VO+EUP8Ed7gBf75KMkNXGPmKSeeuobq7+2DfjsQuC2DsOYEEIIIYQQQgghhBBCCMkYdFTmjP9xAPjMfukQSUI7TJKgnnrqk7lc/X+ZC/zXeXYrIYQQQgghhBBCCCGEEJI96KjMIetKwH/ZCzzSbWsIIY3inonAny8Arm61NYQQQgghhBBCCCGEEEJINqGjMsf84zHgT/cDpy/YGkJIvZg8Bvjv84HfnG5rCCGEEEIIIYQQQgghhJBsQ0dlzjlzEfj0fg//cFT4j6Q03xBatmvqqac+2j5c/W/NAD49F5g81mgkhBBCCCGEEEIIIYQQQnICHZUEAPBMn8xf+Uh34FBJgnrqqU+mFv0rJwL/dS5wU5utJYQQQgghhBBCCCGEEELyAx2VJMTXTwJ/fhDYMWhrCCGXy9Ii8F9mA++cYmsIIYQQQgghhBBCCCGEkPxBRyWJ5XOHgc8eBrov2hpCyHCZOAb4o1nAJ2fZGkIIIYQQQgghhBBCCCEkv9BRSRLpuQj85WHgrw5LWT/SkjVr1rXVBQH8wUzgP80COsbYVxghhBBCCCGEEEIIIYQQkm/oqCRVOXQe+PwR4ItHDQ9MEtRTTz0A4HdnAJ+YCcweZxsRQgghhBBCCCGEEEIIIQSgo5IMg70vA39zxMPfHRO2ihCi+O3pHn5/psCC8baGEEIIIYQQQgghhBBCCCEmdFSSYbP/ZeD/HAO+eAwY4ruHEDQJ4HenAx+dAcxjBCUhhBBCCCGEEEIIIYQQUhN0VJJL5sQF4P87DvzdceDMRcDzACFYs85P3TkW+O2pwO9MB6aOta8QQgghhBBCCCGEEEIIIYRUgo5Kctlc9IB/OAH8w3Fg6zmVo0/n6mPNOoP1imbgP04D/uNUYIywrwhCCCGEEEIIIYQQQgghhNQCHZVkRLn/LPBPJzz8pEfEOnhYs05z/ZqJwIemAm+aZL/zCSGEEEIIIYQQQgghhBAyXOioJKPCpgHgy6eAfz0FdF+MOnxYs05LPbEJeF+XLFcU7Xc6IYQQQgghhBBCCCGEEEIuFToqyahSBvCVkx6+ekbg0V7l/9E5/rQ/iDJlB+W72oF3TwbeOwUo2G9sQgghhBBCCCGEEEIIIYRcNnRUkrqxZRD45hng66eBvedtrYH2GCVBPfWjpF84DnhHJ/Drk4FVzbaWEEIIIYQQQgghhBBCCCEjCR2VpCE83OvhO2eA+7oFTl9QjiPtQGLNuo515xjgLROBt0328Mp2Yb9VCSGEEEIIIYQQQgghhBAyStBRSRrOAz3A984CP+gGzgxFHUmsWY90PXkM8KsTgTdPAt7QYb8jCSGEEEIIIYQQQgghhBBSD+ioJE7xkx7gwR4PP+oV2PtyxL/EmvUl1/PHAa/rAF7fAbyGzklCCCGEEEIIIYQQQgghpOHQUUmcZe0A8FCvLE+UbC0h1bm9Fbi3XZZri7aWEEIIIYQQQgghhBBCCCGNhI5Kkgp6hoBH+4DH+jw8XhLYNGhbEAKsaQZub/Vwd5vA3W1AR5NtQQghhBBCCCGEEEIIIYQQV6CjkqSSoxeAX5SAp/uBp0vAC3Rc5pLrisDNLbLc1grMGGtbEEIIIYQQQgghhBBCCCHEVeioJJlgoAw8NwA81y8fGbtuENj1stTpHIUayumUF40HrikC1zZ7uKFF4IYiUCwYhoQQQgghhBBCCCGEEEIISRV0VJLMcnYI2DAIbDoHbBkEtpwDtp4DzgzZlsQlJjcBKyYAKycAq5uBNROAK5uBSXyMKyGEEEIIIYQQQgghhBCSKeioJLnj2AVgx8sedr0M7DkvsPc8sO88cOA8cOiCbU1Gg9ljgbnjgPnjgAXjgIXjgMXjPSwdLzCdj28lhBBCCCGEEEIIIYQQQnIBHZWEGJQBHL4AHLkgHZonhoCTF4BTF4GzZeDsRaBnCOgrA6WyfOTsOQ84VwYuALjoAUOefFxpFhEAmgQwRgBjAUwoABOEfARrawFoKwAdTcCkMcCkAtA1FpjSBEwdA0wfC8wcC8waC/CJrYQQQgghhBBCCCGEEEIIoaOSEEIIIYQQQgghhBBCCCGEEFJ3GNhECCGEEEIIIYQQQgghhBBCCKk7dFQSQgghhBBCCCGEEEIIIYQQQuoOHZWEEEIIIYQQQgghhBBCCCGEkLpDRyUhhBBCCCGEEEIIIYQQQgghpO7QUUkIIYQQQgghhBBCCCGEEEIIqTt0VBJCCCGEEEIIIYQQQgghhBBC6g4dlYQQQgghhBBCCCGEEEIIIYSQukNHJSGEEEIIIYQQQgghhBBCCCGk7tBRSQghhBBCCCGEEEIIIYQQQgipO3RUEkIIIYQQQgghhBBCCCGEEELqDh2VhBBCCCGEEEIIIYQQQgghhJC6Q0clIYQQQgghhBBCCCGEEEIIIaTu0FFJCCGEEEIIIYQQQgghhBBCCKk7dFQSQgghhBBCCCGEEEIIIYQQQuoOHZWEEEIIIYQQQgghhBBCCCGEkLpDRyUhhBBCCCGEEEIIIYQQQgghpO7QUUkIIYQQQgghhBBCCCGEEEIIqTt0VBJCCCGEEEIIIYQQQgghhBBC6g4dlYQQQgghhBBCCCGEEEIIIYSQukNHJSGEEEIIIYQQQgghhBBCCCGk7tBRSQghhBBCCCGEEEIIIYQQQgipO3RUEkIIIYQQQgghhBBCCCGEEELqDh2VhBBCCCGEEEIIIYQQQgghhJC6Q0clIYQQQgghhBBCCCGEEEIIIaTu0FFJCCGEEEIIIYQQQgghhBBCCKk7dFQSQgghhBBCCCGEEEIIIYQQQuoOHZWEEEIIIYQQQgghhBBCCCGEkLpDRyUhhBBCCCGEEEIIIYQQQgghpO7QUUkIIYQQQgghhBBCCCGEEEIIqTt0VBJCCCGEEEIIIYQQQgghhBBC6g4dlYQQQgghhBBCCCGEEEIIIYSQuvP/A0+ESbkfAAppAAAAAElFTkSuQmCC;" parent="1" vertex="1">
          <mxGeometry x="150" y="172.05" width="252.67" height="62" as="geometry" />
        </mxCell>
        <mxCell id="8AhzLtra5F1OILPT977s-4" value="Scheme Implementation" style="rounded=1;whiteSpace=wrap;html=1;arcSize=50;labelBackgroundColor=none;fillColor=light-dark(#B6B8C2,#4D4F58);strokeColor=none;fontFamily=UD Digi Kyokasho NP-B;fontSize=20;fontColor=#FFFFFF;spacingTop=2;" parent="1" vertex="1">
          <mxGeometry x="412" y="188" width="292" height="34.1" as="geometry" />
        </mxCell>
        <mxCell id="4GcCkNCRazbgQxLHn3y8-6" value="" style="shape=manualInput;whiteSpace=wrap;html=1;size=77;rotation=-180;gradientColor=none;strokeColor=none;gradientDirection=west;fillColor=light-dark(#eafed1, #ededed);flipH=0;flipV=1;" vertex="1" parent="1">
          <mxGeometry x="1067" y="594" width="64" height="92" as="geometry" />
        </mxCell>
        <mxCell id="4GcCkNCRazbgQxLHn3y8-8" value="" style="rounded=0;whiteSpace=wrap;html=1;fontSize=16;fillColor=light-dark(#edfdd5, #121212);fontFamily=微软雅黑;strokeColor=none;shadow=1;shadowOffsetX=5;shadowOffsetY=5;" vertex="1" parent="1">
          <mxGeometry x="1130" y="670.5" width="41" height="19" as="geometry" />
        </mxCell>
        <mxCell id="SCAqfhZdBm1mwaxYcVvj-132" value="" style="rounded=0;whiteSpace=wrap;html=1;fontSize=16;fillColor=none;strokeWidth=3;fontFamily=微软雅黑;" parent="1" vertex="1">
          <mxGeometry x="1130" y="610" width="40" height="140" as="geometry" />
        </mxCell>
      </root>
    </mxGraphModel>
  </diagram>
</mxfile>
